<?xml version="1.0" standalone="no"?>
<!DOCTYPE svg PUBLIC "-//W3C//DTD SVG 1.1//EN" "http://www.w3.org/Graphics/SVG/1.1/DTD/svg11.dtd" >
<svg>
<metadata>
Created by FontForge 20090622 at Tue May 16 12:02:30 2017
 By deploy user
Copyright (c) 2016 by Vintage Type Company. All rights reserved.
</metadata>
<defs>
<font id="SouthbankLT" horiz-adv-x="468" >
  <font-face 
    font-family="Southbank LT"
    font-weight="400"
    font-stretch="normal"
    units-per-em="1000"
    panose-1="0 0 0 0 0 0 0 0 0 0"
    ascent="750"
    descent="-250"
    x-height="748"
    cap-height="741"
    bbox="-101 -266.455 967 986"
    underline-thickness="50"
    underline-position="-50"
    unicode-range="U+000D-U+FB02"
  />
<missing-glyph horiz-adv-x="425" 
 />
    <glyph glyph-name=".notdef" horiz-adv-x="425" 
 />
    <glyph glyph-name="NULL" horiz-adv-x="0" 
 />
    <glyph glyph-name="NULL" horiz-adv-x="0" 
 />
    <glyph glyph-name="nonmarkingreturn" unicode="&#xd;" horiz-adv-x="425" 
 />
    <glyph glyph-name="space" unicode=" " horiz-adv-x="425" 
 />
    <glyph glyph-name="D" unicode="D" horiz-adv-x="484" 
d="M402 420q0 -17 0.5 -27t0.5 -18.5t0.5 -18.5t0.5 -27v-90q0 -17 -0.5 -27t-1.5 -18t-1.5 -18t-0.5 -27q0 -22 -7.5 -41t-17.5 -36q-22 -36 -55 -56q-17 -10 -36 -17t-41 -7q-14 0 -21.5 0.5t-14.5 0.5t-14.5 0.5t-20.5 0.5h-72q-13 0 -20.5 0.5l-14.5 1t-15 1t-21 0.5
q-11 0 -17.5 5t-6.5 16q0 17 -0.5 27t-0.5 18t-0.5 17.5t-0.5 26.5t-0.5 27t-1 18t-1 17.5t-0.5 26.5t0.5 27t1 18t1 18t0.5 27q0 16 0.5 26t1 18t1 18t0.5 27q0 16 -0.5 26t-1 18t-1 18t-0.5 27q0 16 -0.5 26t-1 18t-1 18t-0.5 27q0 16 0.5 26t0.5 18t0.5 18t0.5 27v89
q0 11 8 18.5t19 7.5h71q13 0 21 -1t15 -1.5t14.5 -1.5t21.5 -1q13 0 20.5 0.5t14.5 1.5t14.5 1.5t21.5 0.5q22 0 41.5 -5.5t36.5 -15.5q17 -11 33 -24t27 -31q10 -17 15.5 -37.5t5.5 -41.5v-91v-90zM308 420q0 17 0.5 27t0.5 18t0.5 18t0.5 27t-0.5 27t-0.5 18.5t-0.5 18.5
t-0.5 27q0 26 -19.5 44t-45.5 18q-18 0 -29 -0.5t-20 -1t-20 -1t-30 -0.5q-20 0 -34 -12t-14 -32q0 -15 -0.5 -24t-0.5 -16.5t-0.5 -16.5t-0.5 -24t0.5 -24t0.5 -16.5t0.5 -16t0.5 -23.5t0.5 -24t1 -16.5t1 -16t0.5 -23.5t-0.5 -24t-0.5 -16.5t-0.5 -16.5t-0.5 -24v-80v-81
q0 -20 13.5 -33.5t33.5 -13.5q19 0 30 -0.5t20 -1.5t20 -1.5t29 -0.5q26 0 44.5 20.5t18.5 46.5v27t-0.5 18t-0.5 18v27t0.5 27t0.5 18t0.5 18t0.5 27v27t0.5 18.5t0.5 18.5v27z" />
    <glyph glyph-name="E" unicode="E" horiz-adv-x="422" 
d="M312 99q11 0 18 -9.5t7 -20.5v-12.5t-0.5 -8.5t-0.5 -8.5v-12.5q0 -11 -6.5 -16.5t-17.5 -5.5q-17 0 -26.5 -0.5t-17.5 -1.5t-18 -1.5t-26 -0.5q-17 0 -29.5 0.5t-24 1.5t-24.5 1.5t-29 0.5q-17 0 -26.5 -1t-17.5 -2t-18 -2t-26 -1q-11 0 -19.5 8.5t-8.5 19.5
q0 16 0.5 26t1.5 18t1.5 17.5t0.5 25.5t-0.5 25.5t-1 17.5t-1 17.5t-0.5 26.5q0 16 1 25.5t2 17.5t2 17.5t1 26.5q0 16 -1 25.5t-1.5 17.5t-1.5 17.5t-1 25.5v26t0.5 18t0.5 17.5v25.5t-0.5 26t-1.5 18t-1.5 17.5t-0.5 25.5t1 25.5t2.5 17.5t2.5 17.5t1 26.5v87
q0 11 5.5 19.5t16.5 8.5h26t18 0.5t17.5 0.5h26.5q16 0 29 -1t24.5 -2.5t24 -2.5t29.5 -1h26t18 0.5t17.5 0.5h26.5q11 0 19.5 -6t8.5 -17q0 -8 0.5 -12.5t0.5 -8.5t0.5 -8.5t0.5 -12.5q0 -11 -9.5 -18t-20.5 -7q-14 0 -22.5 -0.5t-15.5 -1.5t-15 -1.5t-22 -0.5
q-28 0 -46.5 3t-46.5 3q-20 0 -32.5 -15t-12.5 -35q0 -14 -1 -22.5t-1.5 -15.5t-1.5 -15.5t-1 -23.5v-22.5t-0.5 -15.5t-0.5 -15.5v-23.5q0 -20 15.5 -32t35.5 -12q19 0 34.5 0.5t35.5 0.5q11 0 16 -9t5 -20q0 -8 1 -12.5t2.5 -8.5t2.5 -8.5t1 -12.5q0 -11 -8.5 -19
t-19.5 -8q-20 0 -35.5 2t-34.5 2q-20 0 -34 -15t-14 -35q0 -23 -0.5 -36.5t-1 -25.5t-1 -25.5t-0.5 -36.5q0 -20 15.5 -35t35.5 -15q28 0 46.5 1t46.5 1q14 0 22 1t15 1.5t15.5 1.5t22.5 1z" />
    <glyph glyph-name="F" unicode="F" horiz-adv-x="422" 
d="M347 722q0 -8 1 -12.5t1.5 -8.5t1.5 -8.5t1 -12.5q0 -11 -9.5 -18t-20.5 -7q-14 0 -22 -1t-15 -1.5t-15 -1.5t-22 -1q-29 0 -52 4t-51 4q-20 0 -32 -15.5t-12 -35.5v-27t0.5 -18.5t0.5 -18.5v-27v-91q0 -20 11.5 -35t31.5 -15t40 1.5t39 1.5q11 0 20.5 -7.5t9.5 -18.5
q0 -8 -1.5 -12l-3 -8t-2.5 -8.5t-1 -12.5q0 -24 -22 -24q-19 0 -39 -1t-40 -1t-33.5 -13.5t-13.5 -33.5q0 -13 0.5 -20.5t1.5 -14.5t1.5 -14.5t0.5 -20.5t-1.5 -20.5l-3 -14.5t-2.5 -15t-1 -21t1 -20.5t2.5 -14.5l3 -14.5t1.5 -20.5q0 -11 -9.5 -17.5t-20.5 -6.5
q-8 0 -12.5 -0.5t-8.5 -0.5t-8.5 -0.5t-12.5 -0.5q-11 0 -16 7.5t-5 18.5q0 16 -1.5 26t-3 18t-3 17.5t-1.5 25.5v87q0 16 1 25.5t2.5 17.5t2.5 17.5t1 26.5v86q0 16 -1 26t-1.5 18t-1.5 17.5t-1 25.5t0.5 26t0.5 18t0.5 17.5t0.5 25.5t1 25.5t1.5 17.5t1.5 17.5t1 26.5
q0 16 -0.5 25.5t-1.5 17.5t-1.5 17.5t-0.5 26.5q0 11 7 16t18 5q16 0 26 1t18 2.5t17.5 2.5t26.5 1q33 0 58 -3.5t58 -3.5q16 0 26 1t18 1.5t17.5 1.5t26.5 1q11 0 18 -7.5t7 -18.5z" />
    <glyph glyph-name="G" unicode="G" horiz-adv-x="507" 
d="M428 244v-28.5t0.5 -19.5t0.5 -19v-28q0 -45 -20 -80q-11 -17 -26.5 -30.5t-33.5 -24.5q-17 -10 -36.5 -16.5t-40.5 -6.5h-33.5t-23.5 0.5t-23.5 0.5h-33.5q-22 0 -41.5 6t-36.5 16q-17 11 -30.5 26t-24.5 32q-10 17 -16 36t-6 41q0 17 0.5 27t0.5 18t0.5 18t0.5 27v27
t0.5 18t0.5 18v27t-1 27t-2 18.5t-2 18.5t-1 27t0.5 27t1 18t1 18t0.5 27v91q0 40 22 76q10 18 23 34t30 27q17 10 37.5 13t42.5 3q21 0 33.5 0.5t23.5 1.5t23.5 1.5t33.5 0.5q18 0 36 -3.5t34 -11.5t28.5 -21t23.5 -27t20.5 -29.5t13.5 -33.5q2 -12 -7 -23t-22 -11
q-8 0 -12.5 0.5t-8.5 1t-9 1t-13 0.5q-17 0 -24 18q-5 19 -22 30.5t-38 11.5t-33.5 -0.5t-23.5 -0.5t-23.5 -0.5t-33.5 -0.5q-26 0 -44 -16t-18 -42v-27t0.5 -18.5t0.5 -18.5v-27v-27t-0.5 -18t-0.5 -18v-27v-27t0.5 -18.5t0.5 -18.5v-27v-27t0.5 -18t0.5 -18v-27t-1 -27
t-1.5 -18t-1.5 -18t-1 -27q0 -26 19.5 -42.5t45.5 -16.5h33.5t23.5 -0.5t23.5 -0.5h33.5q26 0 45 17t19 43q0 14 -0.5 22.5t-1.5 15.5t-1.5 15t-0.5 22q0 20 -12.5 33.5t-32.5 13.5q-15 0 -24 0.5t-16.5 1.5t-16 1.5t-23.5 0.5q-11 0 -19 5.5t-8 16.5q0 8 -0.5 12.5
t-0.5 8.5t-0.5 8.5t-0.5 12.5q0 11 9 18t20 7h29t20 0.5t20 0.5h29t28.5 -0.5t19.5 -0.5t20 -0.5t29 -0.5q11 0 18 -6.5t7 -17.5v-28t0.5 -19t0.5 -19.5v-28.5z" />
    <glyph glyph-name="H" unicode="H" horiz-adv-x="479" 
d="M386 201q0 -17 1 -26.5t2.5 -17.5t3 -17.5t1.5 -25.5t-0.5 -25.5t-0.5 -17.5t-0.5 -18t-0.5 -26q0 -11 -8.5 -16.5t-19.5 -5.5q-8 0 -12.5 -1t-8.5 -1.5t-8.5 -1.5t-12.5 -1q-11 0 -17 8t-6 19v22.5t-0.5 15.5t-0.5 15.5v23.5q0 14 0.5 22.5t1 15.5t1 15.5t0.5 22.5
t-1 22.5t-1.5 15.5t-1.5 15.5t-1 22.5q0 20 -13.5 34t-32.5 14q-20 0 -31.5 -0.5t-21.5 -1.5t-21.5 -1.5t-30.5 -0.5q-20 0 -33.5 -12t-13.5 -32v-22.5t-0.5 -15.5t-0.5 -15.5v-22.5t0.5 -22.5t1.5 -15.5t1.5 -15.5t0.5 -22.5q0 -15 -0.5 -23.5t-1.5 -15.5t-1.5 -15.5
t-0.5 -22.5q0 -11 -7 -19.5t-18 -8.5h-12.5t-8.5 0.5t-8.5 0.5h-12.5q-11 0 -17.5 8t-6.5 19q0 16 -0.5 26t-1.5 18t-1.5 17.5t-0.5 25.5t0.5 25.5t1 17.5t1 17.5t0.5 26.5q0 16 -1 25.5t-1.5 17.5t-1.5 17.5t-1 26.5q0 16 1 25.5t2.5 17.5t3 17.5t1.5 25.5t-0.5 26t-0.5 18
t-0.5 17.5t-0.5 25.5v26t0.5 18t0.5 17.5v25.5t-0.5 25.5t-0.5 17.5t-0.5 17.5t-0.5 26.5q0 16 0.5 25.5t1.5 17.5t1.5 17.5t0.5 26.5q0 11 5 18t16 7h12.5t8.5 0.5t8.5 0.5h12.5q11 0 16.5 -7.5t5.5 -18.5q0 -18 0.5 -28t0.5 -19t0.5 -19t0.5 -27t0.5 -27t1 -19t1 -19
t0.5 -27q0 -18 0.5 -28t1 -19t1 -19t0.5 -27q0 -20 11.5 -34.5t31.5 -14.5q19 0 30.5 0.5t21.5 1t21.5 1t31.5 0.5q19 0 34.5 13t15.5 33q0 17 -1 27t-1.5 19t-1 19t-0.5 28v27t0.5 19t0.5 19v27t0.5 27t1 19t1 19t0.5 28q0 22 22 22q8 0 12.5 1t8.5 2.5t8.5 2.5t12.5 1
q11 0 18 -9t7 -20q0 -17 -0.5 -26.5t-0.5 -17.5t-0.5 -17.5t-0.5 -25.5q0 -17 1 -26.5t1.5 -17.5t1.5 -17.5t1 -25.5v-87q0 -16 0.5 -25.5t0.5 -17.5t0.5 -18t0.5 -26t-1.5 -25.5t-3 -17.5t-2.5 -17.5t-1 -25.5v-87v0z" />
    <glyph glyph-name="I" unicode="I" horiz-adv-x="180" 
d="M96 201q0 -17 -0.5 -26.5t-1.5 -17.5t-1.5 -17.5t-0.5 -25.5t0.5 -25.5t1 -17.5t1 -18t0.5 -26q0 -11 -6.5 -19t-17.5 -8h-12.5t-8.5 0.5t-8.5 0.5h-12.5q-11 0 -18.5 7.5t-7.5 18.5q0 16 0.5 26t1.5 18t1.5 17.5t0.5 25.5t-1 25.5t-2.5 17.5t-2.5 17.5t-1 26.5
q0 16 1 25.5t2 17.5t2 17.5t1 26.5v25.5t0.5 17.5t0.5 17.5v25.5t-1 26t-2.5 18t-2.5 17.5t-1 25.5t0.5 26t0.5 18t0.5 17.5t0.5 25.5t0.5 25.5t1 17.5t1 17.5t0.5 26.5q0 16 -0.5 25.5t-1 17.5t-1 17.5t-0.5 26.5q0 11 8 17.5t19 6.5q8 0 12.5 -0.5t8.5 -0.5t8.5 -0.5
t12.5 -0.5q11 0 18.5 -5.5t7.5 -16.5v-26.5t-0.5 -17.5t-0.5 -17.5v-25.5q0 -17 -0.5 -26.5t-1 -17.5t-1 -17.5t-0.5 -25.5t1 -25.5t1.5 -17.5t1.5 -18t1 -26t-1 -25.5t-1.5 -17.5t-1.5 -18t-1 -26t0.5 -25.5t1 -17.5t1 -17.5t0.5 -25.5v-87z" />
    <glyph glyph-name="J" unicode="J" horiz-adv-x="445" 
d="M370 640q0 -15 0.5 -24t0.5 -17t0.5 -17t0.5 -24v-24t0.5 -17t0.5 -17v-24t-0.5 -24t-1 -17t-1 -17t-0.5 -24t-1 -24t-2 -17t-2 -17t-1 -24t1 -24t1.5 -17t1.5 -17t1 -24t-0.5 -24t-1.5 -16.5t-1.5 -16.5t-0.5 -24q0 -43 -19 -77q-11 -18 -24 -33.5t-31 -26.5
q-17 -10 -37 -13t-42 -3q-11 0 -17.5 -1t-11.5 -1.5t-11.5 -1.5t-16.5 -1q-22 0 -41.5 6.5t-36.5 16.5q-34 20 -56 58q-10 17 -14 36t-4 41q0 13 -0.5 20.5t-1 14t-1 14t-0.5 20.5q0 11 6.5 16t17.5 5q8 0 12.5 1t8.5 2t8.5 2t12.5 1q11 0 18.5 -8t7.5 -19q0 -13 0.5 -20.5
t1.5 -14t1.5 -14t0.5 -20.5q0 -26 16.5 -45t42.5 -19q10 0 16.5 0.5t11.5 1t11.5 1t17.5 0.5q26 0 43 17.5t17 43.5q0 15 1 24t2 16.5t2 16.5t1 24t-1 24t-1.5 17t-1.5 17t-1 24v24t0.5 17t0.5 17v24t0.5 24t1.5 17t1.5 17t0.5 24t-1 24t-2 17t-2 17t-1 24t0.5 24t1.5 17
t1.5 17t0.5 24t0.5 24t1 17t1 17t0.5 24q0 21 22 21q8 0 12.5 0.5t8.5 0.5t8.5 0.5t12.5 0.5q11 0 20.5 -6t9.5 -17q0 -15 -0.5 -24t-1 -17t-1 -17t-0.5 -24z" />
    <glyph glyph-name="K" unicode="K" horiz-adv-x="484" 
d="M368 109l9.5 -22l6.5 -14.5l6.5 -14.5l9.5 -22q5 -13 -1.5 -22t-20.5 -9q-17 0 -23 -2t-23 -2q-8 0 -13 5t-8 12l-11 25.5t-8 17t-8 17l-11 25.5t-10.5 25.5l-6.5 17.5l-6.5 17.5t-10.5 25.5q-6 16 -10.5 25l-8.5 17l-8.5 17t-11.5 25q-6 15 -20.5 16.5t-22.5 -12.5
q-9 -16 -14.5 -25t-11 -16.5t-11 -16t-14.5 -24.5q-6 -11 -7 -23.5t-1 -24.5v-120q0 -11 -8.5 -17.5t-19.5 -6.5q-8 0 -12.5 -0.5t-8.5 -1t-8.5 -1t-12.5 -0.5q-11 0 -18.5 8t-7.5 19v87q0 16 1 25.5t1.5 17.5t1.5 17.5t1 26.5q0 16 -1 25.5t-2.5 17.5t-2.5 17.5t-1 26.5
q0 16 1 25.5t1.5 17.5t1.5 17.5t1 25.5t-0.5 26t-0.5 18t-0.5 17.5t-0.5 25.5v26t-0.5 18t-0.5 17.5v25.5v25.5t0.5 17.5t0.5 17.5v26.5q0 16 -0.5 25.5t-1 17.5t-1 17.5t-0.5 26.5q0 11 8.5 17t19.5 6q8 0 12.5 -0.5t8.5 -0.5t8.5 -0.5t12.5 -0.5q11 0 18.5 -5t7.5 -16
q0 -17 -0.5 -27t-1 -18t-1 -18t-0.5 -26v-26.5t0.5 -17.5t0.5 -18v-27v-26.5t-0.5 -17.5t-0.5 -18v-26q0 -10 6 -16.5t14 -8.5t16.5 1t13.5 11l12.5 22l8.5 15l8.5 14.5l12.5 21.5t12 22l8 15.5l8 15.5t12 22q8 13 12.5 21t9 14.5t9 14l12.5 21.5l12.5 22t8 15t8 15l12.5 22
q3 6 10.5 10.5t14.5 4.5h14.5t10 0.5t10 0.5h14.5q14 0 20 -14t-1 -27q-7 -12 -11 -19.5t-7 -14t-7 -14t-11 -19.5l-11.5 -19.5t-8.5 -13.5l-8.5 -13t-11.5 -19t-10.5 -20t-5.5 -14.5t-5.5 -14.5t-10.5 -20t-12 -19t-10 -12t-10 -12t-12 -19q-6 -10 -4.5 -22t5.5 -23
l9.5 -22l6.5 -14.5l6.5 -14.5l9.5 -22l9 -21.5l6 -14.5t6 -15t9 -22t9 -22l5.5 -15l5.5 -15t9 -22t8.5 -22l4.5 -15l4.5 -15.5t8.5 -21.5z" />
    <glyph glyph-name="L" unicode="L" horiz-adv-x="398" 
d="M294 92q11 0 20.5 -6t9.5 -17q0 -8 -1 -12.5t-2.5 -8.5t-2.5 -8.5t-1 -12.5q0 -11 -6 -19t-17 -8h-26.5t-17.5 -0.5t-18 -0.5h-26h-26.5t-17.5 0.5t-18 0.5h-26q-17 0 -26.5 0.5t-17.5 0.5t-18 0.5t-26 0.5q-11 0 -18.5 7t-7.5 18q0 16 0.5 26t0.5 18t0.5 17.5t0.5 25.5
t-0.5 25.5t-1 17.5t-1 17.5t-0.5 26.5v87q0 16 0.5 25.5t0.5 17.5t0.5 17.5t0.5 25.5t0.5 26t0.5 18t0.5 17.5t0.5 25.5t-1 26t-2.5 18t-2.5 17.5t-1 25.5t1 25.5t2.5 17.5t2.5 17.5t1 26.5v25.5t0.5 17.5t0.5 17.5v26.5q0 11 5.5 19t16.5 8q8 0 12.5 -0.5t8.5 -0.5
t8.5 -0.5t12.5 -0.5q11 0 16.5 -7t5.5 -18v-83q0 -16 1 -25t2.5 -17t3 -17t1.5 -24t-0.5 -24t-0.5 -17t-0.5 -17t-0.5 -25q0 -15 -0.5 -24t-1 -17t-1 -17t-0.5 -25q0 -15 0.5 -24t0.5 -17t0.5 -17t0.5 -24v-25t-0.5 -17t-0.5 -17v-24q0 -16 0.5 -25t1 -17t1 -17t0.5 -24
q0 -20 12 -32.5t32 -12.5q14 0 22 0.5t15 0.5t15 0.5t22 0.5t22 -1t15 -2.5t15.5 -2.5t22.5 -1z" />
    <glyph glyph-name="M" unicode="M" horiz-adv-x="586" 
d="M498 288q0 -17 1 -26.5t1.5 -17.5t1.5 -17.5t1 -25.5q0 -17 -1 -26.5t-2.5 -17.5t-2.5 -17.5t-1 -25.5t0.5 -25.5t1 -17.5t1 -18t0.5 -26q0 -11 -7 -20.5t-18 -9.5q-8 0 -12.5 0.5t-8.5 1t-8.5 1t-12.5 0.5q-11 0 -19 8t-8 19v25.5t0.5 17.5t0.5 17.5v26.5q0 16 0.5 25.5
t1.5 17.5t1.5 17.5t0.5 25.5v87q0 16 -1 25.5t-1.5 17.5t-1.5 17.5t-1 25.5q0 10 -11 12.5t-14 -6.5l-8 -22l-5.5 -14.5l-5.5 -14.5l-8 -22t-7.5 -22l-4.5 -14.5t-4 -15t-7 -21.5l-8 -22l-5.5 -14.5l-5.5 -14.5l-8 -22q-3 -8 -9.5 -14t-14.5 -6q-10 0 -16 0.5t-11 1.5
t-11.5 1.5t-16.5 0.5q-14 0 -21 17q-5 13 -9 21t-8 14t-8 13.5t-9 21.5q-5 13 -7 21.5t-3.5 15.5t-3.5 15.5t-7 22.5l-26 72q-3 9 -12.5 7t-9.5 -12v-25.5t0.5 -17.5t0.5 -17.5v-25.5t-0.5 -25.5t-0.5 -17.5t-0.5 -18t-0.5 -26t-1 -25.5t-2 -17.5t-2 -17.5t-1 -25.5v-26.5
t0.5 -17.5t0.5 -17.5v-25.5q0 -11 -5.5 -17.5t-16.5 -6.5q-8 0 -12.5 -1t-8.5 -2t-8.5 -2t-12.5 -1q-11 0 -20 9.5t-9 20.5q0 16 1 26t1.5 18t1.5 17.5t1 25.5t-1 25.5t-2 17.5t-2 17.5t-1 26.5v25.5t0.5 17.5t0.5 17.5v26.5v86q0 16 1 26t2.5 18t2.5 17.5t1 25.5v87
q0 16 -1 25.5t-1.5 17.5t-1.5 17.5t-1 26.5q0 16 0.5 25.5t1.5 17.5t1.5 17.5t0.5 26.5q0 11 6 18.5t17 7.5q6 0 10 -1t7 -1.5t7 -1.5t11 -1q8 0 15.5 -2t9.5 -10l8 -22.5t5 -15.5t5 -15.5l8 -22.5t9 -22l7 -14.5l6.5 -14.5t8.5 -22t7.5 -22.5t4 -16t4 -16t7.5 -22.5t9 -22
l7.5 -14.5l8 -14.5t9.5 -22l8 -22l5.5 -15l5.5 -15l8 -22q7 -17 23 -18t22 16l8 22.5t6 15t6 15l8 22.5t7.5 22.5l4.5 15.5l4.5 15.5t7.5 22.5t9 22l7.5 14.5t7 14.5t8.5 22l8 22.5l5.5 15.5t5 15.5t7.5 22.5l8 22t5.5 15.5l5 15.5t7.5 22q3 8 10.5 14t15.5 6q14 0 18 -0.5
t18 -0.5q11 0 18.5 -8.5t7.5 -19.5q0 -17 -0.5 -26.5t-1 -17.5t-1 -17.5t-0.5 -25.5q0 -17 1 -26.5t2 -17.5t2 -17.5t1 -25.5t-1 -25.5t-2.5 -17.5t-2.5 -18t-1 -26t1 -25.5t2.5 -17.5t3 -18t1.5 -26t-1 -25.5t-2 -17.5t-2 -17.5t-1 -25.5z" />
    <glyph glyph-name="N" unicode="N" horiz-adv-x="485" 
d="M394 288q0 -17 0.5 -26.5t0.5 -17.5t0.5 -17.5t0.5 -25.5q0 -17 0.5 -26.5t1.5 -17.5t1.5 -17.5t0.5 -25.5t-0.5 -25.5t-0.5 -17.5t-0.5 -18t-0.5 -26q0 -11 -8.5 -19.5t-19.5 -8.5q-13 0 -17 0.5t-18 0.5q-8 0 -12 5.5t-7 12.5q-6 13 -10 20.5t-7 14.5t-7 14.5t-10 20.5
l-32 70q-6 13 -10 20.5t-8 13.5t-8 13.5t-10 20.5t-10 20.5t-7 14t-7 14t-10 21.5q-6 13 -9 21l-5.5 14.5l-5.5 14.5t-9 21t-10 20.5l-7.5 14l-7.5 14t-10 20.5q-4 8 -12.5 7t-8.5 -10v-81q0 -15 1 -24t2 -16.5t2 -16.5t1 -24v-24t-0.5 -17t-0.5 -17v-24v-24t-0.5 -16.5
t-0.5 -16.5v-24t-0.5 -24t-0.5 -16.5t-0.5 -16.5t-0.5 -24q0 -11 -7 -17t-18 -6h-12.5t-8.5 0.5t-8.5 0.5h-12.5q-11 0 -17.5 5.5t-6.5 16.5q0 16 -0.5 26t-0.5 18t-0.5 17.5t-0.5 25.5t0.5 25.5t1.5 17.5t1.5 17.5t0.5 26.5q0 16 -1.5 25.5t-3 17.5t-2.5 17.5t-1 26.5v25.5
t0.5 17.5t0.5 17.5v25.5t1 26t2 18t2 17.5t1 25.5t-0.5 26t-1 18t-1 17.5t-0.5 25.5t-0.5 25.5t-0.5 17.5t-0.5 17.5t-0.5 26.5v87q0 11 8.5 19t19.5 8q13 0 17 1t17 1q8 0 15 -5.5t10 -12.5q6 -13 10 -20.5l7.5 -14l7.5 -14t10 -20.5t9 -21t5 -15t5 -15t9 -21t10 -20.5
l7.5 -14l7.5 -14t10 -20.5t8.5 -21t4 -15.5t4 -15.5t8.5 -21t10.5 -20.5t9 -13.5l9.5 -13t11 -20l9.5 -21t6 -14.5t6 -14.5l9.5 -21q4 -8 10.5 -6.5t6.5 10.5q0 15 0.5 24t0.5 16.5t0.5 16.5t0.5 24t1 24t1.5 16.5t1.5 16.5t1 24t-1.5 24t-3 16.5t-3 16.5t-1.5 24t0.5 24
t1.5 17t1.5 17t0.5 24t1 24t1.5 16.5t1.5 16.5t1 24q0 11 5 17.5t16 6.5q8 0 12.5 0.5t8.5 0.5t8.5 0.5t12.5 0.5q11 0 16.5 -7.5t5.5 -18.5q0 -17 0.5 -26.5t1.5 -17.5t1.5 -17.5t0.5 -25.5q0 -17 0.5 -26.5t1 -17.5t1 -17.5t0.5 -25.5v-25.5t0.5 -17.5t0.5 -18v-26
t-0.5 -25.5t-0.5 -17.5t-0.5 -18t-0.5 -26t-0.5 -25.5t-1.5 -17.5t-1.5 -17.5t-0.5 -25.5z" />
    <glyph glyph-name="O" unicode="O" horiz-adv-x="508" 
d="M413 239q0 -17 -1 -27t-2 -18t-2 -18t-1 -27q0 -22 -3 -42t-14 -37q-10 -18 -26.5 -30t-34.5 -23q-17 -10 -35.5 -18.5t-39.5 -8.5q-18 0 -28.5 0.5t-19.5 1t-19.5 1t-28.5 0.5q-21 0 -40 6.5t-36 17.5q-17 10 -32.5 23t-26.5 30q-20 35 -20 79q0 17 -0.5 27t-1 18t-1 18
t-0.5 27v27t0.5 18t0.5 18v27v91q0 17 1 27t1.5 18t1.5 18t1 27t-0.5 27t-1 18.5t-1 18.5t-0.5 27q0 21 7 39.5t17 35.5q11 18 23 33.5t30 26.5q17 11 37 15t41 4q18 0 28.5 1t19.5 1.5t19.5 1.5t28.5 1q21 0 41 -7t37 -17q17 -11 29.5 -26.5t23.5 -33.5q10 -17 18 -35.5
t8 -39.5q0 -17 -1 -27t-1.5 -18.5t-1.5 -18.5t-1 -27t0.5 -27t1 -18t1 -18t0.5 -27t0.5 -27t1.5 -18.5t1.5 -18.5t0.5 -27v-90zM317 149q0 17 0.5 27t1.5 18t1.5 18t0.5 27t-1 27t-1.5 18t-1.5 18t-1 27t0.5 27t0.5 18.5t0.5 18.5t0.5 27t-1 27t-1.5 18t-1.5 18t-1 27
t0.5 27t1 18.5t1 18.5t0.5 27q0 26 -18 46t-44 20q-18 0 -28.5 -1t-19.5 -2t-19.5 -2t-28.5 -1q-26 0 -44.5 -17t-18.5 -43q0 -17 -0.5 -27t-1 -18.5t-1 -18.5t-0.5 -27t0.5 -27t1.5 -18t1.5 -18t0.5 -27v-91q0 -17 0.5 -27t0.5 -18t0.5 -18t0.5 -27v-90q0 -26 17 -43.5
t43 -17.5q18 0 28.5 -1t19.5 -2t19.5 -2t28.5 -1q26 0 44.5 20.5t18.5 46.5z" />
    <glyph glyph-name="P" unicode="P" horiz-adv-x="476" 
d="M373 670q10 -17 15.5 -37t5.5 -42q0 -13 -1 -20.5t-1.5 -14.5t-1.5 -15t-1 -21v-70q0 -42 -20 -77q-11 -18 -23 -35t-30 -27q-17 -11 -38 -15.5t-42 -4.5h-27t-18.5 -0.5t-18.5 -0.5h-27q-20 0 -35.5 -12t-15.5 -32q0 -14 1 -21.5t2.5 -14.5t2.5 -15t1 -22v-21.5
t0.5 -14.5t0.5 -15v-22t-0.5 -21.5t-0.5 -14.5t-0.5 -15t-0.5 -22q0 -11 -8.5 -19.5t-19.5 -8.5q-8 0 -12.5 1t-8.5 2.5t-8.5 2.5t-12.5 1q-11 0 -19 5t-8 16v87q0 16 -0.5 25.5t-1 17.5t-1 17.5t-0.5 26.5q0 16 0.5 25.5t0.5 17.5t0.5 17.5t0.5 26.5q0 16 1 25.5t2 17.5
t2 17.5t1 25.5t-1 26t-2 18t-2 17.5t-1 25.5t1 26t2 18t2 17.5t1 25.5t-1 25.5t-1.5 17.5t-1.5 17.5t-1 26.5v87q0 11 8 20.5t19 9.5q19 0 30.5 -1.5t21.5 -3t21 -2.5t30 -1h30t21 -0.5t21 -0.5h31q21 0 42 -1.5t38 -11.5q17 -11 31.5 -26.5t25.5 -33.5zM236 384
q13 0 25 5.5t21 14.5t14.5 21t5.5 25t-1 20.5t-2.5 14.5l-3 14.5t-1.5 20.5q-1 13 -0.5 21t1 15l1 14.5t0.5 20.5q0 26 -17 46.5t-43 20.5q-17 0 -27 -1t-18.5 -2t-18.5 -2t-27 -1q-20 0 -35 -12.5t-15 -32.5q0 -16 1 -25.5t1.5 -17.5t1.5 -18t1 -26v-25.5t-0.5 -17.5
t-0.5 -17.5v-25.5q0 -20 13 -31.5t33 -11.5q17 0 27 -1t18.5 -2.5t18.5 -2.5t27 -1z" />
    <glyph glyph-name="Q" unicode="Q" horiz-adv-x="508" 
d="M554 -117q9 -3 13 -11t2 -17q-4 -12 -21.5 -14.5t-39 0.5t-41 8.5t-27.5 9.5q-15 7 -29 16.5t-28 20.5l-14 10t-13 11q-7 6 -12.5 13t-11.5 13q-6 7 -14 11.5t-15 11.5q-7 6 -13 12.5t-15 11.5q-14 6 -31 4.5t-31 -1.5q-14 1 -27 1h-27q-45 0 -79 19q-17 11 -29.5 26.5
t-23.5 33.5q-10 17 -18.5 35.5t-8.5 40.5q0 17 0.5 27t0.5 18t0.5 18t0.5 27t0.5 27t1.5 18t1.5 18t0.5 27v27t-0.5 18.5t-0.5 18.5v27t-1 27t-1.5 18t-1.5 18t-1 27v27t0.5 18.5t0.5 18.5v27q0 21 6 41t16 37q11 17 26 30t33 24q17 10 36 16.5t41 6.5h95q21 0 41.5 -4
t37.5 -14q18 -11 30 -27t23 -34q10 -17 17 -36t7 -40q0 -17 -0.5 -27t-1.5 -18.5t-1.5 -18.5t-0.5 -27t1 -27t1.5 -18t1.5 -18t1 -27t-0.5 -27t-0.5 -18.5t-0.5 -18.5t-0.5 -27v-27t0.5 -18t0.5 -18v-27v-27t0.5 -18t0.5 -18v-27q0 -21 -6 -39.5t-15 -35.5q-7 -13 -4 -27.5
t11 -28.5t19 -26.5t20 -20.5q11 -11 20 -25t21 -25q10 -8 21.5 -11.5t20.5 -8.5q7 -4 15.5 -9.5t19.5 -8.5zM191 88q7 3 4.5 11t-4.5 13l-8 16.5t-12 13.5l-10.5 7.5t-13.5 8t-13.5 5.5t-11.5 1q-11 -3 -15 -15t0 -22q6 -14 14.5 -24.5t25.5 -14.5q8 -2 17 -2h17q7 0 10 2z
M320 257q0 20 1 41.5t1 44.5q-1 22 -3.5 43.5t-2.5 42.5q-1 23 2 44.5t3 41.5q0 19 -1.5 28.5t-2.5 17t-2.5 15.5t-1.5 24q0 26 -16.5 46.5t-42.5 20.5q-18 0 -28.5 -1.5t-19.5 -3t-19 -2.5t-28 -1q-26 0 -44 -16t-18 -42q0 -16 -0.5 -25t-1.5 -17t-1.5 -17t-0.5 -24
t0.5 -24t0.5 -17t0.5 -17t0.5 -24v-24t0.5 -17t0.5 -17v-24t0.5 -24t1 -17t1 -17t0.5 -24q0 -28 19 -45q7 -6 17 -9t21 -4.5l22 -3t20 -4.5q25 -10 51 -26q9 -6 18 -15.5t19 -14.5q11 -5 21 2.5t11 18.5q1 17 1.5 39t0.5 47z" />
    <glyph glyph-name="R" unicode="R" horiz-adv-x="531" 
d="M441 95q9 -1 15.5 -8t6.5 -16q0 -8 -0.5 -12.5t-1 -8.5t-1 -8.5t-0.5 -12.5q0 -12 -7.5 -22t-18.5 -8q-17 2 -35 9t-37 17q-32 19 -53 53q-21 29 -31 69q-5 24 -7.5 47.5t1.5 48.5q2 15 3 30t-10 28q-10 10 -37 10q-16 0 -25 1t-17 2t-17 2t-25 1q-20 0 -36 -16t-16 -36
v-23.5t0.5 -16t0.5 -16v-23.5t1 -24t2.5 -16.5t2.5 -16t1 -23.5t-0.5 -23.5t-0.5 -16t-0.5 -16t-0.5 -23.5q0 -11 -8 -20t-19 -9q-8 0 -12.5 1t-8.5 2.5t-8.5 2.5t-12.5 1q-22 0 -22 22v87v25.5t-0.5 17.5t-0.5 17.5v26.5q0 16 -0.5 25.5t-0.5 17.5t-0.5 17.5t-0.5 26.5
q0 16 -0.5 25.5t-1.5 17.5t-1.5 17.5t-0.5 25.5t1 26t1.5 18t1.5 17.5t1 25.5t-0.5 26t-1.5 18t-1.5 17.5t-0.5 25.5t1 25.5t1.5 17.5t1.5 17.5t1 26.5v25.5t-0.5 17.5t-0.5 17.5v26.5q0 11 6.5 18.5t17.5 7.5h30t21 -0.5t21 -0.5h31q19 0 30 0.5t21 0.5t21 0.5t31 0.5
q42 0 78 -22q18 -10 33.5 -24t26.5 -32q10 -17 14 -37.5t4 -42.5v-36.5t-0.5 -25t-0.5 -25v-36.5q0 -29 -8 -55.5t-25 -46.5q-5 -5 -7 -11t2 -12q14 -27 14 -58t-2 -63q-1 -21 0.5 -41.5t9.5 -40.5q11 -23 29.5 -32.5t37.5 -12.5zM294 468q0 23 0.5 36.5t1 25t1 25t0.5 36.5
q0 26 -18 45.5t-44 19.5q-17 0 -27 -1t-18.5 -2t-18.5 -2t-27 -1q-20 0 -33 -11.5t-13 -31.5v-77q0 -15 0.5 -23.5t0.5 -15.5t0.5 -15.5t0.5 -22.5q0 -20 12 -33.5t32 -13.5h27t18.5 -0.5t18.5 -0.5h27q26 0 42.5 18.5t16.5 44.5z" />
    <glyph glyph-name="S" unicode="S" horiz-adv-x="461" 
d="M353 338q20 -34 20 -78v-33t-0.5 -22.5t-0.5 -22.5v-33q0 -22 -3.5 -42.5t-13.5 -37.5q-11 -18 -27.5 -29.5t-34.5 -22.5q-17 -10 -36 -18.5t-40 -8.5q-11 0 -17.5 0.5t-11.5 0.5t-11.5 0.5t-17.5 0.5q-19 0 -35.5 5t-32.5 13q-32 14 -55 44q-11 14 -19.5 30t-12.5 33
q-2 12 6.5 22.5t20.5 10.5h13t9 -0.5t9 -0.5h13t16.5 -4.5t10.5 -12.5q6 -20 21 -32.5t36 -12.5q11 0 17.5 -0.5t11.5 -1t11.5 -1t17.5 -0.5q26 0 45 19.5t19 45.5v33t-0.5 22.5t-0.5 22.5v33q0 26 -18.5 46.5t-44.5 20.5q-11 0 -17.5 -1.5t-11.5 -3t-11.5 -3t-17.5 -1.5
q-21 0 -41 7.5t-37 17.5q-18 11 -33.5 24.5t-26.5 31.5q-10 17 -15.5 37.5t-5.5 41.5q0 23 0.5 36.5t0.5 25t0.5 25t0.5 36.5q0 21 4 42t14 38q11 18 26.5 32.5t33.5 24.5q17 11 37.5 15t41.5 4q11 0 17.5 -0.5t11.5 -0.5t11.5 -0.5t17.5 -0.5q39 0 68 -16q34 -16 56 -43
q21 -28 27 -65q3 -12 -4 -22t-19 -10q-8 0 -13 0.5t-9 1t-9 1t-13 0.5t-15.5 4t-9.5 12q-6 20 -22 31t-37 11q-11 0 -17.5 1t-11.5 1.5t-11.5 1.5t-17.5 1q-26 0 -43 -19t-17 -45q0 -23 -0.5 -36.5t-0.5 -25t-0.5 -25t-0.5 -36.5q0 -26 18 -44.5t44 -18.5h17.5t11.5 0.5
t11.5 0.5h17.5q21 0 42 -4t38 -14q17 -11 31.5 -26.5t24.5 -33.5z" />
    <glyph glyph-name="T" unicode="T" horiz-adv-x="500" 
d="M398 752q11 0 18 -9.5t7 -20.5q0 -8 -0.5 -12.5t-1.5 -8.5t-1.5 -8.5t-0.5 -12.5q0 -11 -5 -19t-16 -8q-17 0 -27 -0.5t-19 -0.5t-19 -0.5t-27 -0.5q-20 0 -35.5 -12t-15.5 -32v-83v-83q0 -15 1 -24t2 -17t2 -17t1 -25v-24t-0.5 -17t-0.5 -17v-25q0 -15 -0.5 -24
t-0.5 -17t-0.5 -17t-0.5 -24q0 -16 -0.5 -25t-0.5 -17t-0.5 -17t-0.5 -24t0.5 -24t0.5 -17t0.5 -17t0.5 -25q0 -11 -7 -19t-18 -8q-8 0 -12.5 1t-8.5 1.5t-8.5 1.5t-12.5 1q-11 0 -18.5 5.5t-7.5 16.5v83v24t-0.5 17t-0.5 17v25v24t0.5 17t0.5 17v24v83q0 16 -0.5 25
t-1.5 17t-1.5 17t-0.5 24t1 24t2.5 17t3 17t1.5 25q0 15 -1.5 24t-3 17t-2.5 17t-1 25q0 20 -11.5 34.5t-31.5 14.5q-17 0 -27 -0.5t-19 -1.5t-19 -1.5t-27 -0.5q-11 0 -18.5 8.5t-7.5 19.5q0 8 1 12.5t1.5 8.5t1.5 8.5t1 12.5q0 11 5 18t16 7q18 0 28 -0.5t19 -1.5t19 -1.5
t27 -0.5h93q17 0 27 1t19 2t19 2t28 1q17 0 27 0.5t19 1t19 1t28 0.5z" />
    <glyph glyph-name="U" unicode="U" horiz-adv-x="461" 
d="M368 389q0 -16 1 -25t1.5 -17t1.5 -17t1 -25q0 -15 -1 -24t-2 -17t-2 -17t-1 -25v-25t0.5 -17t0.5 -17v-24q0 -22 -2.5 -42t-13.5 -37q-10 -18 -25 -33t-32 -25q-17 -11 -37.5 -14t-42.5 -3h-54q-22 0 -41 5.5t-36 15.5q-18 11 -33 24t-25 31q-11 17 -15 36.5t-4 41.5
q0 15 -1 24t-2.5 17t-2.5 17t-1 25v83q0 16 1.5 25t3 17t3 17t1.5 25q0 15 -0.5 24t-1.5 17t-1.5 17t-0.5 25t-1 25t-1.5 17t-1.5 17t-1 24q0 16 1 25t2.5 17t3 17t1.5 24q0 16 -1 25t-1.5 17t-1.5 17t-1 25q0 11 8 20t19 9h12.5t8.5 -0.5t8.5 -0.5h12.5q11 0 18.5 -8.5
t7.5 -19.5q0 -16 -0.5 -25t-0.5 -17t-0.5 -17t-0.5 -25q0 -15 0.5 -24t1 -17t1 -17t0.5 -25t-0.5 -25t-0.5 -17t-0.5 -17t-0.5 -24q0 -16 0.5 -25t1.5 -17t1.5 -17t0.5 -24q0 -16 -1 -25t-2.5 -17t-2.5 -17t-1 -25v-83q0 -16 1 -25t2.5 -17t3 -17t1.5 -24q0 -26 16.5 -42
t42.5 -16h16t11 -0.5t11 -0.5h16q26 0 46.5 16.5t20.5 42.5q0 15 -1 24t-2.5 17t-2.5 17t-1 25t1 25t2 17t2 17t1 24q0 16 -1.5 25t-3 17t-2.5 17t-1 25q0 15 0.5 24t0.5 17t0.5 17t0.5 25v83q0 16 1 25t1.5 17t1.5 17t1 24v25t-0.5 17t-0.5 17v25q0 21 25 21h42
q22 0 22 -21q0 -16 0.5 -25t1.5 -17t1.5 -17t0.5 -25v-24t-0.5 -17t-0.5 -17v-25t1 -25t1.5 -17t1.5 -17t1 -24q0 -16 -1.5 -25t-3 -17t-2.5 -17t-1 -24z" />
    <glyph glyph-name="V" unicode="V" horiz-adv-x="484" 
d="M375 744q12 0 19.5 -8t4.5 -20q-3 -16 -5.5 -25.5l-4.5 -17.5l-4.5 -17.5l-6.5 -25.5q-3 -16 -5 -25.5t-3 -18t-3 -18t-5 -25.5q-3 -17 -5.5 -26t-4.5 -17.5t-4.5 -18l-6.5 -25.5q-3 -16 -5 -25.5t-3.5 -17.5l-3.5 -18l-5 -26t-5.5 -25.5t-5 -17.5t-5 -17.5t-5.5 -25.5
q-4 -16 -6 -25.5t-4 -17.5t-4 -18l-5 -26q-4 -16 -6 -25.5t-4 -17.5t-4 -17.5t-5 -25.5q-4 -17 -5 -26.5t-1.5 -18t-1.5 -18.5t-4 -26q-2 -9 -10 -14.5t-18 -5.5q-9 0 -14.5 0.5t-10 1t-9.5 1t-14 0.5q-18 0 -21 19q-4 16 -6 25.5t-3.5 17.5t-3.5 17.5t-6 26.5l-18 86
q-4 16 -6 26t-4 18l-4.5 17.5t-5.5 25.5t-5.5 25.5l-4.5 17.5l-4.5 17.5t-5.5 25.5q-4 16 -7 25.5l-5.5 17.5l-5.5 17.5t-6 25.5q-4 16 -5.5 26t-2.5 18t-2.5 17.5t-5.5 26.5q-3 16 -5.5 25.5t-5 17.5t-5 17t-5.5 26q-4 16 -6 25.5t-3.5 17.5t-3 17.5t-5.5 26.5
q-2 12 6.5 22t21.5 10h43q9 0 17 -6t10 -14q3 -16 4.5 -25.5t2 -18t2 -18t4.5 -25.5l6.5 -25.5t5 -17l5.5 -17t6 -25.5l18 -86q4 -16 6.5 -25t4.5 -17l4.5 -17.5t5.5 -25.5t5 -25.5t3.5 -17.5t3.5 -17.5t5 -25.5q2 -11 13.5 -11.5t13.5 10.5q3 16 5 25.5t3 18t3 17.5t5 25
t5.5 25.5t4 17.5t4 17.5t5.5 25.5t5 25.5t3.5 17.5t3.5 17.5t5 25.5q4 16 5.5 25.5t3 17.5t3 17.5t5.5 25.5q3 16 6 25.5t5 17t5 17t6 25.5q2 9 8.5 17t15.5 8q8 0 12.5 -1.5t8.5 -3t9 -2.5t13 -1z" />
    <glyph glyph-name="W" unicode="W" horiz-adv-x="633" 
d="M537 745q12 0 19.5 -7.5t5.5 -18.5q-2 -16 -3 -25.5t-2 -17.5t-2 -18t-3 -26t-2.5 -25.5t-0.5 -18t-0.5 -18t-2.5 -25.5t-3.5 -25.5t-3.5 -17.5t-3.5 -17.5t-3.5 -25.5q-2 -17 -3 -26.5t-2.5 -17.5t-3 -17.5t-3.5 -25.5t-2.5 -25.5t-1 -18t-1 -18t-2.5 -25.5t-2.5 -25.5
t-1 -18t-1.5 -18t-2 -25.5q-2 -17 -2.5 -26.5t-1 -17.5t-1 -17.5t-2.5 -25.5q-2 -17 -3.5 -26l-3 -17.5t-3.5 -18t-3 -25.5q-2 -10 -9 -16t-17 -6q-13 0 -17 1.5t-17 1.5q-18 0 -24 14q-5 14 -7.5 22.5t-5 15.5l-5.5 15t-7 22q-5 14 -7.5 22.5t-5.5 15t-6 15l-8 22.5
t-7 22.5t-4.5 15.5t-5 15.5l-6.5 22.5q-5 14 -7 22.5t-3.5 15.5t-3.5 15.5t-7 22.5q-3 9 -9.5 13t-14 4t-14 -5t-9.5 -14q-5 -14 -8.5 -21.5l-7 -14.5t-7 -15t-7.5 -22q-5 -14 -6.5 -22.5t-3 -16t-3.5 -16t-6 -22.5q-5 -14 -8.5 -22t-7 -15l-7.5 -14.5t-9 -21.5t-6.5 -22.5
t-3 -16t-3.5 -16t-6 -22.5q-2 -8 -9.5 -13.5t-16.5 -5.5h-34q-10 0 -16 7.5t-8 17.5q-2 16 -3 25.5t-2.5 17.5t-3 17.5t-3.5 25.5t-3 25.5t-2 17.5t-2 17.5t-3 26.5q-2 16 -2.5 25.5t-1 17.5t-1.5 17.5t-2 26.5q-2 16 -3 25.5t-2 17.5t-2 17.5t-3 26.5q-2 16 -3 25.5
t-2 17.5t-2 17.5t-3 26.5q-2 16 -2.5 25.5t-1.5 17.5t-2 17.5t-3 25.5t-3.5 26t-2.5 18t-2.5 17.5t-3.5 25.5t-2.5 25.5t-0.5 18v18t-2 25.5q-2 11 4.5 20.5t17.5 9.5q8 0 12.5 -0.5t8.5 -1.5t9 -1.5t13 -0.5q21 0 24 -21q1 -15 2 -24t1.5 -16.5t1 -16t2.5 -23.5
q1 -15 3 -24t4 -16.5t3.5 -16t3.5 -23.5t2.5 -24t0.5 -16.5t0.5 -16.5t2.5 -24q1 -15 2 -24t2 -16.5t2 -16.5t3 -24q1 -15 3 -23.5t3.5 -16t3 -16.5t3.5 -24q1 -9 10.5 -10.5t12.5 6.5q4 14 6.5 22t4 15.5t3.5 15.5t7 22q4 13 7 21t6 14.5t5.5 14.5t7.5 22q4 13 7 21t5 15
l4.5 15t7.5 22q3 8 7.5 14t12.5 6q10 0 16.5 -1t11.5 -2t11 -2t16 -1q8 0 16 -2t11 -10q4 -14 7 -22l5.5 -14.5t5 -14.5t7.5 -22q4 -14 6.5 -22t4 -15t4 -15t6.5 -22t7 -21.5t5.5 -14.5t5 -15t7.5 -21q2 -9 11 -8.5t10 9.5q2 15 2 24v16.5v16.5t2 24q1 15 2.5 23.5t2.5 16
t2 16.5t3 24q1 15 3 24t3.5 16.5t3.5 16t4 23.5q1 15 2 24t2 16.5t2 16.5t3 24q1 15 2 23.5t1.5 16t1.5 16.5t3 24q2 20 24 20h12.5t8.5 0.5t8.5 0.5h12.5z" />
    <glyph glyph-name="X" unicode="X" horiz-adv-x="477" 
d="M405 39q6 -13 -3.5 -26t-23.5 -13h-46q-8 0 -13.5 5t-8.5 13q-6 13 -9 21.5l-5.5 15l-5.5 14.5t-9 22t-11 21.5t-9.5 13.5t-9 13.5t-10.5 21.5l-9.5 21l-6.5 14.5l-6.5 14.5l-9.5 22q-3 7 -7.5 7.5t-7.5 -6.5q-6 -14 -9 -22l-5.5 -15t-6 -15l-9.5 -22t-10 -21.5t-8 -13.5
t-8 -14l-10 -21q-6 -14 -9 -22t-5 -15.5t-5 -15.5t-9 -22q-3 -7 -11 -12t-16 -5h-46q-14 0 -21.5 13.5t-1.5 26.5q6 15 10.5 23t8 15.5t8 16t10.5 23.5l9.5 23.5t6.5 16.5t6.5 16.5l9.5 23.5l9.5 24l6.5 16.5t7 16t10 23.5q7 15 10.5 23.5l6.5 16t7 16.5t10 24q4 10 6 19.5
t-3 19.5q-6 15 -10 23.5t-7 16t-7 16l-11 23.5q-6 15 -10.5 23t-8 15.5t-8 16t-10.5 23.5l-9.5 23.5t-5.5 16.5t-5.5 17l-9.5 24q-7 15 -11.5 23.5l-8.5 15.5l-8.5 15t-10.5 23q-6 13 2.5 25.5t22.5 12.5q17 0 23 -2t23 -2q8 0 16 -1.5t11 -8.5q6 -14 8.5 -22.5t5 -15.5
t5 -15.5t8.5 -21.5q6 -14 10.5 -21.5t8 -14t8 -14t10.5 -21.5t8.5 -22t4 -15.5t4 -16t8.5 -21.5q3 -7 10 -5.5t10 8.5q6 14 10 22l7 14.5t7 14t10 21.5q6 13 10.5 20.5l8.5 14l8.5 14t10.5 21.5q6 13 9 21.5l5.5 15l5.5 14.5t9 22t22 14q17 0 23 1.5t23 1.5q14 0 22.5 -12.5
t2.5 -25.5q-6 -15 -10 -23.5t-7 -16l-6.5 -16l-9.5 -23.5q-7 -15 -11.5 -23.5t-9 -15t-9.5 -15t-11 -23.5t-10 -24t-7 -16.5l-6.5 -16l-9.5 -23.5q-7 -15 -10.5 -24t-6 -16.5t-6 -16l-9.5 -23.5q-5 -10 -7.5 -20.5t1.5 -20.5q7 -15 11.5 -23.5t9 -15t9.5 -15t11 -23.5
q7 -15 10 -24t5 -16.5t5 -16.5t10 -24q6 -15 11 -23.5t9.5 -15t9 -15t11.5 -23.5q6 -15 10 -23.5l7.5 -16l7.5 -16t10 -23.5z" />
    <glyph glyph-name="Y" unicode="Y" horiz-adv-x="477" 
d="M377 744q14 0 20 -8.5t1 -21.5q-6 -15 -8.5 -24.5l-4.5 -17.5l-4.5 -17.5t-8.5 -24.5l-9.5 -25l-6.5 -16.5l-6.5 -16.5l-9.5 -25q-6 -15 -8.5 -24.5t-4 -17.5t-4 -17.5t-8.5 -25.5q-6 -15 -10 -24t-8 -16t-8 -16t-10 -24q-6 -16 -9 -25t-5 -17t-5 -17.5t-9 -24.5
q-3 -8 -5.5 -16t-2.5 -16v-80q0 -15 0.5 -23.5t1.5 -16t1.5 -16t0.5 -23.5t0.5 -24t1 -16.5t1 -16t0.5 -23.5q0 -11 -9 -17t-20 -6h-12.5t-8.5 -0.5t-8.5 -0.5h-12.5q-11 0 -18.5 6.5t-7.5 17.5v23.5t0.5 16t0.5 16.5v24v23.5t0.5 16t0.5 16v23.5t-1 23.5t-1.5 16t-1.5 16.5
t-1 24q0 8 -2 15t-5 15q-6 16 -9 25t-6 17t-6 17l-8 24q-6 16 -9 25l-5.5 17l-5.5 17t-9 25q-6 15 -9 24t-6 17t-6 17t-9 25q-6 15 -8.5 24.5l-4.5 17.5l-4.5 17.5t-8.5 24.5q-6 16 -8.5 25t-5 17t-5 17.5t-8.5 24.5q-5 13 1 21.5t19 8.5q9 0 14 1t9 1.5t9 1.5t13 1
q17 0 24 -19q6 -17 10 -26.5t7 -18t7 -18t10 -26.5l32 -90q6 -17 9 -26.5l5.5 -18l5.5 -18.5t9 -27q3 -8 11 -7t11 9q6 17 10 26.5t8 17.5t8 17.5t10 26.5t9 27t5 18.5t5 18.5t9 27t10.5 26.5t9 17t9 17t10.5 26.5q3 8 8.5 15t13.5 7t13 -1t9 -2.5t9 -2.5t13 -1z" />
    <glyph glyph-name="Z" unicode="Z" horiz-adv-x="454" 
d="M368 69q0 -8 0.5 -12.5t0.5 -8.5t0.5 -8.5t0.5 -12.5q0 -11 -6 -18.5t-17 -7.5q-15 0 -23.5 0.5t-15.5 1t-15.5 1t-22.5 0.5q-15 0 -23.5 -0.5t-15.5 -1.5t-15.5 -1.5t-23.5 -0.5t-23.5 0.5t-15.5 0.5t-15.5 0.5t-23.5 0.5h-23.5t-15.5 -0.5t-15.5 -0.5h-22.5t-23 11.5
t-4 24.5l9.5 25l6.5 16.5t6 16.5t9 25l9.5 25l6.5 17l6.5 17l9.5 24q6 16 9 25l5.5 17l5.5 17t9 25l9.5 25t6 17l5.5 17t9 25q6 15 9 24t6 17l6.5 17l9.5 25t9.5 24.5t7 16l7.5 16.5t10 25l9.5 25t7 16.5t7 16.5l9.5 24q5 13 -4 25.5t-23 12.5q-17 0 -26.5 -1t-17.5 -1.5
t-18 -1.5t-26 -1q-17 0 -26.5 1t-17.5 2t-18 2t-26 1q-11 0 -19 6t-8 17v42q0 11 8 16t19 5q15 0 23.5 0.5t15.5 1t15.5 1t23.5 0.5q14 0 22.5 1t15.5 2t15.5 2t23.5 1t23.5 -1t15.5 -2.5t15.5 -2.5t23.5 -1h77q14 0 22 -9.5t3 -22.5q-6 -16 -10 -25l-7.5 -16.5l-7.5 -16.5
t-10 -24q-6 -16 -8 -25.5t-4 -17.5t-4 -17.5t-8 -25.5l-9.5 -24l-6.5 -17t-6 -17t-9 -25t-10 -25t-7 -16.5l-6.5 -16.5l-9.5 -25l-9.5 -24t-7 -16.5t-7 -16.5l-9.5 -25l-9.5 -25l-6.5 -16.5t-7 -16.5t-10 -25q-6 -15 -8.5 -24.5l-4.5 -17.5l-4.5 -17.5t-8.5 -24.5
q-5 -13 2.5 -24t21.5 -11q16 0 26 0.5t18 0.5t17.5 0.5t26.5 0.5h88q11 0 16 -8.5t5 -19.5z" />
    <glyph glyph-name="one" unicode="1" horiz-adv-x="274" 
d="M165 192q0 -16 -1 -25.5t-1.5 -17.5t-1.5 -18t-1 -26t0.5 -25.5t1 -17.5t1 -18t0.5 -26q0 -11 -7 -17.5t-18 -6.5q-8 0 -12.5 -0.5t-8.5 -1t-8.5 -1t-12.5 -0.5q-11 0 -18 8t-7 19q0 16 0.5 25t1 17t1 17t0.5 25t-0.5 25t-1.5 17t-1.5 17t-0.5 25t0.5 25t1.5 17t1.5 17
t0.5 25t-0.5 25t-1 17t-1 17t-0.5 25t-1 25t-1.5 17t-1.5 17t-1 25t0.5 25t1 17t1 17t0.5 25q0 11 1.5 26t1.5 30.5t-2 29t-9 22.5q-6 7 -16.5 9.5t-20 5.5t-17 8.5t-7.5 17.5v42q0 11 9.5 19.5t20.5 8.5q20 0 32 -0.5t22 -0.5t22 -0.5t32 -0.5q11 0 18 -7.5t7 -18.5v-25.5
t0.5 -17.5t0.5 -18v-26t-0.5 -25.5t-0.5 -17.5t-0.5 -18t-0.5 -26t0.5 -25.5t0.5 -17.5t0.5 -17.5t0.5 -25.5q0 -17 -0.5 -26.5t-1.5 -17.5t-1.5 -17.5t-0.5 -25.5v-26.5t0.5 -17.5t0.5 -17.5v-25.5q0 -17 0.5 -26.5t1.5 -17.5t1.5 -17.5t0.5 -25.5z" />
    <glyph glyph-name="two" unicode="2" horiz-adv-x="461" 
d="M348 86q11 0 17.5 -7t6.5 -18q0 -8 0.5 -12.5t0.5 -8.5t0.5 -9t0.5 -13q0 -11 -7.5 -17t-18.5 -6h-23.5t-16 0.5t-16 0.5h-23.5t-24 -1t-16.5 -2.5t-16 -2.5t-23.5 -1t-24 1t-16.5 2.5t-16 2.5t-23.5 1t-23.5 -1t-16 -2.5t-16 -2.5t-23.5 -1q-11 0 -20.5 9.5t-9.5 20.5
q0 14 0.5 22.5t1.5 15.5t1.5 15.5t0.5 23.5t0.5 23.5t1 15.5t1 15.5t0.5 23.5q0 14 -1 22.5t-2 15.5t-2 15.5t-1 23.5q0 22 7 41.5t17 36.5q11 18 26.5 30.5t32.5 22.5q17 11 36 17t40 6q11 0 17.5 0.5t11.5 1t11.5 1t17.5 0.5q26 0 46.5 18t20.5 44q0 23 -1.5 36.5t-3 24.5
t-3 24.5t-1.5 36.5q0 26 -16 42.5t-42 16.5q-11 0 -17.5 1t-11.5 2.5t-11.5 3t-17.5 1.5q-21 0 -38 -14.5t-23 -34.5q-5 -19 -23 -19q-8 0 -13 1t-9 1.5t-9 1.5t-13 1q-12 0 -20 7.5t-6 19.5q4 18 12 33.5t19 29.5t25 25t30 19t32.5 12t35.5 4q11 0 17.5 0.5t11.5 0.5
t11.5 0.5t17.5 0.5q21 0 40.5 -6t36.5 -16q18 -10 31.5 -25t24.5 -33q10 -17 16.5 -36t6.5 -40q0 -23 0.5 -36.5t1.5 -24.5t1.5 -24.5t0.5 -36.5q0 -22 -8.5 -41t-19.5 -36q-10 -17 -23 -32.5t-31 -26.5q-17 -10 -37 -14t-41 -4q-11 0 -17.5 -1t-11.5 -2t-11.5 -2t-17.5 -1
q-26 0 -45 -16.5t-19 -42.5q0 -22 1 -35t1.5 -24t1.5 -24t1 -35q0 -20 12 -32.5t31 -12.5t30 -1t21 -1.5t21 -1.5t30 -1t30 0.5l21 1l21 1t30 0.5z" />
    <glyph glyph-name="three" unicode="3" 
d="M371 480q0 -26 -11.5 -48.5t-26.5 -42.5q-5 -7 -4 -17t6 -17q15 -20 25 -43.5t10 -49.5q0 -23 -0.5 -36.5t-1 -24.5t-1 -24.5t-0.5 -36.5q0 -21 -3.5 -42t-13.5 -38q-11 -17 -26 -31t-33 -25q-17 -10 -37 -17.5t-42 -7.5q-11 0 -17.5 1.5t-11.5 3t-11.5 3t-16.5 1.5
q-39 0 -68 14q-17 8 -31.5 18t-25.5 24q-22 28 -30 65q-2 12 6 21.5t21 9.5q8 0 12.5 -0.5t8.5 -1.5t9 -1.5t13 -0.5q19 0 23 -14q5 -20 22.5 -30.5t39.5 -10.5q10 0 16.5 -0.5t11.5 -1t11.5 -1t17.5 -0.5q26 0 45 18t19 44v36.5t-0.5 24.5t-0.5 24.5v36.5q0 26 -18.5 42.5
t-44.5 16.5q-14 0 -22.5 0.5t-15.5 1.5t-15.5 1.5t-23.5 0.5q-11 0 -20 7t-9 18q0 8 1 12.5t2.5 8.5t2.5 8.5t1 12.5q0 22 22 22q15 0 23.5 1t15.5 2.5t15.5 3t22.5 1.5q26 0 43 16t17 42q0 21 0.5 33t1.5 22.5t1.5 23t0.5 33.5q0 26 -19 43.5t-45 17.5q-11 0 -17.5 0.5
t-11.5 0.5t-11.5 0.5t-16.5 0.5q-22 0 -36.5 -13.5t-19.5 -33.5q-3 -8 -12 -14t-17 -6t-13 0.5t-9 1.5t-8.5 1.5t-12.5 0.5q-13 0 -18.5 9t-2.5 20q3 18 8 35.5t16 31.5t24.5 26t29.5 20t34 11.5t37 3.5q10 0 16.5 -1t11.5 -1.5t11.5 -1.5t17.5 -1q22 0 41.5 -4t36.5 -15
q36 -21 57 -56q10 -17 16 -36.5t6 -40.5t0.5 -33.5t1 -23t0.5 -22.5v-33z" />
    <glyph glyph-name="four" unicode="4" horiz-adv-x="487" 
d="M370 366q0 -17 1 -26.5t2.5 -17.5t2.5 -17.5t1 -25.5q0 -17 -1 -26.5t-2.5 -17.5t-2.5 -17.5t-1 -25.5v-25.5t0.5 -17.5t0.5 -18v-26t0.5 -25.5t1.5 -17.5t1.5 -18t0.5 -26q0 -11 -8 -18t-19 -7h-12.5t-8.5 -0.5t-9 -0.5h-13q-11 0 -16 7.5t-5 18.5v76v23.5t-0.5 15.5
t-0.5 15.5v22.5q0 20 -15 32.5t-35 12.5q-18 0 -29 0.5t-20 0.5t-20 0.5t-30 0.5h-29t-20 0.5t-20 0.5h-29q-8 0 -15.5 2t-10.5 9q-5 9 -7 14t-3.5 10t-4 10t-6.5 14q-6 12 3 26q10 13 15 21t8.5 15.5t8.5 15.5l14 22l15.5 20.5t11 14t11 14l15.5 20.5l14.5 20.5l10.5 14.5
l10.5 14.5t14.5 21.5q9 13 15 20.5t10.5 14.5t10.5 14.5t15 20.5q10 13 16.5 20l12 13l12 13.5t15.5 20.5t14 21.5t8.5 15.5t8.5 15.5t14 21.5q8 11 23 11q12 0 16 -3t16 -3q11 0 18.5 -5t7.5 -16v-25.5t-0.5 -17.5t-0.5 -18v-26t0.5 -25.5t1.5 -17.5t1.5 -17.5t0.5 -25.5
v-87q0 -17 -1 -26.5t-2.5 -17.5t-2.5 -17.5t-1 -25.5zM280 344v20.5t0.5 13.5t0.5 13.5v19.5q0 13 -1 20.5t-2 13.5t-2 13.5t-1 19.5q0 16 -12 20.5t-21 -9.5l-52 -72l-15.5 -21.5l-10.5 -14.5l-11 -15l-15 -21q-8 -11 -3 -24.5t19 -13.5q17 0 27 1t19 2t19 2t28 1
q14 0 23.5 8.5t9.5 22.5z" />
    <glyph glyph-name="five" unicode="5" horiz-adv-x="469" 
d="M378 205q0 -12 -0.5 -19.5t-1.5 -13.5t-1.5 -13t-0.5 -19q0 -21 -7 -40t-17 -36q-21 -36 -56 -55q-35 -21 -76 -21q-11 0 -17.5 -0.5t-11.5 -0.5t-11.5 -0.5t-17.5 -0.5q-18 0 -36 1.5t-34 9.5t-29 21t-24 27t-18 30t-11 34q-2 12 5 22t20 10h43q8 0 17 -5t11 -13
q6 -20 20.5 -35t35.5 -15q11 0 17.5 1t11.5 1.5t11.5 1.5t17.5 1q26 0 46 18t20 44v19t0.5 13t0.5 13.5v19.5t-1 19t-2 13t-2 13.5t-1 19.5q0 26 -17.5 42.5t-43.5 16.5q-18 0 -28 1t-19 2t-19 2t-28 1t-28 -0.5t-19 -1t-19 -1t-28 -0.5q-11 0 -19.5 7.5t-8.5 18.5v27
t0.5 18t0.5 17.5v26.5q0 16 -0.5 26t-1 18t-1 17.5t-0.5 26.5t0.5 27t0.5 18t0.5 17.5t0.5 26.5q0 16 0.5 26t1.5 18t1.5 18t0.5 27q0 11 6.5 20.5t17.5 9.5q15 0 23.5 -1t16 -2t16 -2t23.5 -1h79q15 0 23.5 1t15.5 2t15.5 2t23.5 1t23.5 -1t16 -1.5t16 -1.5t23.5 -1
q11 0 19.5 -7t8.5 -18q0 -8 -0.5 -12.5t-1 -8.5t-1 -8.5t-0.5 -12.5q0 -11 -7 -20.5t-18 -9.5q-19 0 -30 1t-20 2.5t-20 3t-30 1.5t-30 -1t-20 -1.5t-20 -1.5t-30 -1q-20 0 -34 -13t-14 -33v-125q0 -20 14 -34t34 -14h21t15 -0.5t15 -0.5h22q22 0 42 -3t37 -14
q18 -10 31 -26t24 -34q10 -17 18 -36.5t8 -40.5v-65z" />
    <glyph glyph-name="six" unicode="6" horiz-adv-x="477" 
d="M391 140q0 -21 -7.5 -40t-17.5 -36q-11 -17 -23.5 -32.5t-30.5 -25.5q-17 -11 -36.5 -18t-40.5 -7q-14 0 -22.5 0.5t-15.5 1t-15.5 1t-23.5 0.5q-21 0 -42 3.5t-38 13.5q-18 11 -29.5 28t-22.5 35q-10 17 -16.5 36t-6.5 40q0 17 -0.5 27t-1 18t-1 18t-0.5 27t1 27t2 18.5
t2 18.5t1 27t-0.5 27t-1 18t-1 18t-0.5 27t0.5 27t1 18t1 18t0.5 27t-1 27t-2 18.5t-2 18.5t-1 27q0 21 6.5 41t16.5 37q11 18 26.5 30.5t32.5 23.5q17 10 36 18.5t40 8.5q15 0 23.5 -1t15.5 -2.5t15.5 -2.5t22.5 -1q18 0 36 -1t34 -9t28 -21.5t23 -27.5q22 -28 29 -63
q2 -12 -4 -22.5t-19 -10.5q-8 0 -12.5 1t-8.5 1.5t-9 1.5t-13 1q-19 0 -23 16q-6 20 -23 32.5t-38 12.5q-14 0 -22.5 -1t-15.5 -1.5t-15.5 -1.5t-23.5 -1q-26 0 -44.5 -16t-18.5 -42v-31.5t-0.5 -21.5t-0.5 -21.5v-31.5q0 -27 15 -40.5t37 -19t46.5 -5.5h42.5q21 0 40 -4
t36 -14q18 -11 35 -23t28 -30q10 -17 13 -38t3 -42v-19.5t0.5 -13.5t0.5 -13v-19v-65zM235 74q13 0 25 5.5t21.5 14.5t15 21t5.5 25q0 12 -0.5 29t-0.5 35.5t-0.5 36t-0.5 29.5q0 26 -19.5 45t-45.5 19h-22.5t-15.5 -0.5t-15.5 -0.5h-23.5q-26 0 -42 -18.5t-16 -44.5
q0 -12 -1 -19.5t-1.5 -13.5t-1.5 -13t-1 -19v-19.5t-0.5 -13.5t-0.5 -13v-19q0 -26 19 -45t45 -19q15 0 23.5 -0.5t15.5 -0.5t15.5 -0.5t22.5 -0.5z" />
    <glyph glyph-name="seven" unicode="7" horiz-adv-x="437" 
d="M347 743q14 0 20.5 -12t2.5 -25l-6.5 -22.5t-5 -15.5t-5 -15.5t-6.5 -23.5q-4 -14 -5.5 -23t-2 -16.5t-1.5 -16t-5 -23.5q-4 -14 -7 -22.5t-6 -15.5t-6 -15t-7 -23q-4 -14 -6 -22.5t-3.5 -16t-3 -16t-5.5 -23.5q-4 -14 -7 -22.5t-5 -15.5t-5 -15.5t-7 -22.5
q-4 -15 -6.5 -23.5l-4.5 -15.5l-4.5 -15.5l-6.5 -22.5q-4 -15 -6.5 -23.5l-4.5 -15.5t-5 -15.5t-7 -22.5q-4 -15 -6 -23.5t-4 -15.5l-4.5 -15.5l-6.5 -22.5q-4 -15 -6 -23.5t-3 -16t-3 -16t-6 -22.5q-2 -8 -10.5 -15.5t-17.5 -7.5q-8 0 -13 1t-9 2t-9 2t-13 1
q-13 0 -22.5 10t-6.5 23q4 16 7 25t6 16.5t5.5 16.5t7.5 25q4 16 6.5 25t4.5 17t4 17t7 25q4 16 7 25l5.5 17t5 17t7.5 25q4 16 6.5 25t4 17t4 17t6.5 25t7.5 25l6.5 16.5t6 16.5l8 25q4 16 7 25t6 16.5t5.5 16.5t7.5 25q4 16 6.5 25t4.5 17t4 17t7 25q4 13 -4 21t-21 8
q-19 0 -30 1.5t-20.5 3t-20.5 3t-30 1.5t-30 -0.5t-20 -1.5t-20 -1.5t-30 -0.5q-11 0 -17 7t-6 18v12.5t-0.5 8.5t-0.5 8.5v12.5q0 11 6.5 20t17.5 9q15 0 24 -0.5t16.5 -0.5t16.5 -0.5t24 -0.5t24 0.5t16.5 0.5t16.5 0.5t24 0.5t23.5 -0.5t16 -1.5t16.5 -1.5t24 -0.5t24 1
t16.5 1.5t16.5 1.5t24 1z" />
    <glyph glyph-name="eight" unicode="8" horiz-adv-x="500" 
d="M362 361q17 -21 31 -45.5t14 -53.5v-122q0 -21 -6 -42t-17 -38q-20 -37 -58 -59q-17 -10 -37.5 -14t-42.5 -4q-16 0 -25.5 -0.5t-17.5 -1t-17.5 -1t-25.5 -0.5q-21 0 -41 7t-37 17q-18 11 -30.5 26.5t-22.5 33.5q-21 34 -21 76q0 23 -1.5 36.5t-3 24.5t-2.5 24.5t-1 36.5
q0 29 11 56t29 47q9 12 2 24q-14 19 -21 42.5t-7 49.5v33t-0.5 22.5t-0.5 22.5v33t7.5 40t17.5 36q21 35 56 55q17 10 35.5 19t40.5 9q12 0 19.5 -0.5t13.5 -1.5t13.5 -1.5t20.5 -0.5q43 0 78 -20q17 -11 32.5 -25t26.5 -31q10 -17 16 -37.5t6 -41.5t-0.5 -33t-1 -22.5
t-1 -22.5t-0.5 -33q0 -53 -28 -92q-5 -6 -6.5 -14.5t3.5 -13.5zM170 653q-26 0 -46.5 -17.5t-20.5 -43.5q0 -21 1 -33t2 -22.5t2.5 -22.5t2.5 -33q0 -26 16.5 -45t42.5 -19h19.5t13.5 0.5t13.5 0.5h20.5q26 0 43.5 18.5t17.5 44.5q0 21 -0.5 33t-0.5 22.5t-0.5 22.5t-0.5 33
q0 26 -16.5 44t-42.5 18h-20.5t-13.5 -0.5t-13.5 -0.5h-19.5zM246 79q26 0 46.5 17.5t20.5 43.5q0 23 -1 36.5t-2 24.5t-2.5 24.5t-2.5 36.5q0 26 -16.5 44.5t-42.5 18.5h-86q-26 0 -43 -18.5t-17 -44.5v-36.5t0.5 -24.5t0.5 -24.5v-36.5q0 -26 16.5 -44.5t42.5 -18.5
q16 0 25.5 0.5t17.5 0.5t17.5 0.5t25.5 0.5z" />
    <glyph glyph-name="nine" unicode="9" horiz-adv-x="492" 
d="M395 321q0 -17 -1 -27t-2.5 -18.5t-2.5 -18.5t-1 -27t0.5 -27t0.5 -18t0.5 -18t0.5 -27q0 -41 -22 -77q-10 -18 -24 -33t-31 -25q-17 -11 -37 -15.5t-41 -4.5q-14 0 -21.5 0.5l-14.5 1t-15 1t-21 0.5q-40 0 -71 14q-17 8 -32.5 18t-27.5 25q-11 14 -16.5 31.5t-8.5 34.5
q-2 11 4.5 20.5t18.5 9.5q8 0 13 -0.5t9 -0.5t9 -0.5t13 -0.5t16 -4t10 -12q2 -7 3.5 -14.5t6.5 -13.5q9 -10 22.5 -14.5t27.5 -4.5t22 0.5t15 1.5t15.5 1.5t22.5 0.5q26 0 44.5 17t18.5 43q0 16 0.5 26t1 18t1 17.5t0.5 25.5q0 25 -16 38.5t-38.5 18.5t-47 5.5t-41.5 0.5
q-21 0 -41.5 3.5t-37.5 13.5t-30.5 26t-23.5 33q-11 17 -17 36.5t-6 40.5v75q0 14 -0.5 22t-0.5 15t-0.5 15t-0.5 22q0 44 21 79q10 18 26 31.5t33 23.5q17 11 37 18.5t41 7.5q14 0 22.5 -0.5t15.5 -1.5t15.5 -1.5t23.5 -0.5q21 0 40.5 -6t36.5 -16q17 -11 31.5 -25
t24.5 -32q22 -36 22 -77q0 -17 -0.5 -27t-0.5 -18.5t-0.5 -18.5t-0.5 -27v-27t0.5 -18t0.5 -18v-27t1 -27t2 -18t2 -18t1 -27zM300 477q0 21 -0.5 33.5t-1 23.5t-1.5 23.5t-1 34.5q0 26 -17.5 45.5t-43.5 19.5q-15 0 -23.5 -0.5t-15.5 -0.5t-15.5 -0.5t-22.5 -0.5
q-26 0 -44.5 -18.5t-18.5 -44.5q0 -14 0.5 -22t1 -15t1 -15t0.5 -22v-75q0 -26 17 -44.5t43 -18.5q14 0 22.5 1t15.5 1.5t15.5 1.5t23.5 1q26 0 44 16t18 42q0 13 1.5 17t1.5 17z" />
    <glyph glyph-name="zero" unicode="0" horiz-adv-x="531" 
d="M437 321q0 -17 0.5 -27t1 -18.5t1 -18.5t0.5 -27t-0.5 -27t-1.5 -18t-1.5 -18t-0.5 -27q0 -21 -6 -40t-16 -36q-11 -18 -23 -34.5t-29 -26.5q-17 -11 -37.5 -14.5t-42.5 -3.5h-36.5t-25 -0.5t-25 -0.5h-36.5q-21 0 -42 3.5t-38 13.5q-18 11 -29.5 28t-22.5 35
q-10 17 -17.5 36t-7.5 40v90q0 17 0.5 27t1 18.5t1 18.5t0.5 27v90q0 17 -1 27t-1.5 18t-1.5 18t-1 27t0.5 27t0.5 18.5t0.5 18.5t0.5 27q0 21 6.5 40.5t16.5 36.5q20 34 58 56q17 10 36 16.5t40 6.5h36.5t25 0.5t25 0.5h36.5q22 0 41.5 -6.5t36.5 -17.5q17 -10 33.5 -23
t27.5 -30q10 -17 14 -38t4 -42q0 -17 0.5 -27t1 -18.5t1 -18.5t0.5 -27t-1 -27t-1.5 -18t-1.5 -18t-1 -27v-90zM139 290q6 13 8.5 21l4.5 15l4.5 15t8.5 22l9.5 20.5l6.5 14t7 14t10 20.5l9.5 20.5l6.5 14.5t7 14.5t10 20.5l9.5 20.5l6.5 14l6.5 14l9.5 20.5q7 15 4.5 30.5
t-11 28t-22.5 20t-30 6.5q-9 0 -14 -0.5t-9 -1t-8.5 -1t-13.5 -0.5q-26 0 -46 -17.5t-20 -43.5q0 -18 1 -29t1.5 -20t1.5 -20t1 -29v-28.5t-0.5 -19.5t-0.5 -20v-29t-0.5 -29t-0.5 -20t-0.5 -20t-0.5 -29q0 -8 5.5 -13.5t13 -7t15 1t10.5 10.5zM282 79q26 0 46.5 17.5
t20.5 43.5q0 18 -1 29t-1.5 20t-1.5 19.5t-1 28.5v98q0 18 0.5 28.5t0.5 19.5t0.5 20t0.5 29q0 9 -5.5 14t-12.5 6.5t-14.5 -1t-10.5 -10.5q-6 -13 -8.5 -21l-4.5 -15l-4.5 -15t-8.5 -21q-6 -14 -10 -21.5t-7 -14l-6.5 -14l-9.5 -20.5t-10 -20.5t-7 -14l-6.5 -14.5l-9.5 -21
l-9.5 -20.5t-7 -14t-7 -14.5l-9.5 -21q-6 -15 -4 -30.5t11 -27.5t22.5 -19.5t30.5 -6.5q19 1 32 2.5t12 1.5z" />
    <glyph glyph-name="C" unicode="C" 
d="M365 150q12 0 19.5 -10t4.5 -22q-6 -38 -27 -66t-56 -44q-16 -8 -33 -11.5t-36 -3.5q-14 0 -22.5 -1t-15.5 -1.5t-15.5 -1.5t-23.5 -1q-21 0 -41.5 6t-37.5 16q-18 11 -29.5 28t-22.5 35q-20 35 -20 76q0 17 -0.5 27t-1.5 18t-1.5 18t-0.5 27t-0.5 27t-1 18t-1 18
t-0.5 27t-0.5 27t-0.5 18.5t-0.5 18.5t-0.5 27v90v91q0 21 9 40t20 36q10 17 23.5 31.5t31.5 25.5q17 10 36 18.5t40 8.5q15 0 23.5 -0.5t15.5 -0.5t15.5 -0.5t22.5 -0.5q19 0 35.5 -6t32.5 -14t31.5 -18t26.5 -24q22 -29 30 -65q2 -12 -7 -22.5t-21 -10.5q-8 0 -13 -0.5
t-9 -0.5t-9 -0.5t-13 -0.5t-17 6t-11 14q-6 20 -20.5 32.5t-35.5 12.5h-77q-26 0 -45 -17.5t-19 -43.5q0 -17 -0.5 -27t-0.5 -18.5t-0.5 -18.5t-0.5 -27t0.5 -27t0.5 -18t0.5 -18t0.5 -27t-0.5 -27t-0.5 -18.5t-0.5 -18.5t-0.5 -27t0.5 -27t1.5 -18t1.5 -18t0.5 -27t0.5 -27
t0.5 -18t0.5 -18t0.5 -27q0 -26 17 -44.5t43 -18.5q15 0 23.5 -0.5t15.5 -1.5t15.5 -1.5t22.5 -0.5q21 0 38.5 14t23.5 34q2 8 8 14.5t14 6.5h13t9 -0.5t9 -0.5h13z" />
    <glyph glyph-name="period" unicode="." horiz-adv-x="218" 
d="M141 51q0 -12 -7.5 -19.5t-19.5 -7.5q-15 0 -24 -0.5t-17 -0.5t-17 -0.5t-24 -0.5q-13 0 -20 8.5t-7 20.5q0 14 -1 22.5t-1.5 15.5t-1.5 15t-1 22q0 12 9.5 21.5t22.5 9.5h82q12 0 19.5 -9.5t7.5 -21.5v-75z" />
    <glyph glyph-name="comma" unicode="," horiz-adv-x="289" 
d="M206 113q2 -10 -3 -16q-12 -14 -18.5 -22.5t-11.5 -16t-11.5 -16t-18.5 -22.5l-17.5 -22.5t-12.5 -15.5l-12.5 -15l-18.5 -22q-6 -7 -16 -9.5t-18 2.5l-11 8l-7.5 5.5l-7.5 5.5l-11 8q-8 5 -10.5 15t1.5 18q9 16 14.5 25l10.5 16.5l10.5 16.5t14.5 25t13 26t8 18t8 18
t13 26q4 7 17 11q7 1 18 -4t22.5 -12.5t22.5 -15.5t17 -12q8 -5 10.5 -9.5t4.5 -13.5z" />
    <glyph glyph-name="colon" unicode=":" horiz-adv-x="218" 
d="M111 156q12 0 19 -9t7 -21q0 -14 0.5 -22t0.5 -15t0.5 -15.5t0.5 -22.5q0 -12 -8 -19t-20 -7q-16 0 -25 -0.5t-17 -1.5t-17 -1.5t-24 -0.5q-12 0 -19.5 9t-7.5 21v22.5t0.5 15.5t0.5 15v22q0 12 7 20t19 8q15 0 24 0.5t17 0.5t17 0.5t25 0.5zM111 534q12 0 21 -10t9 -23
v-22t-0.5 -15t-0.5 -15v-22q0 -12 -8.5 -21t-20.5 -9h-25t-17 -0.5t-17 -0.5h-24q-12 0 -19.5 9.5t-7.5 21.5v22t-0.5 15t-0.5 15v22q0 13 8 20t20 7q15 0 24 1t17 2t17 2t25 1z" />
    <glyph glyph-name="semicolon" unicode=";" horiz-adv-x="290" 
d="M173 129q9 -6 11 -15q1 -5 0 -10t-4 -9l-19 -22l-13 -15l-13 -15l-19 -22t-18.5 -22.5l-11.5 -15.5l-11.5 -15.5l-17.5 -22.5q-6 -8 -15.5 -8.5t-17.5 4.5q-7 4 -11 7l-7.5 5.5l-7.5 5.5l-11 8q-8 5 -9 12.5t3 15.5q9 16 13 26l7.5 18.5l7.5 18.5t13 26q12 25 26 49
q6 10 12.5 25t17.5 20q10 4 23 -1t26.5 -14t25.5 -19t20 -15zM74 396q-12 0 -19 9.5t-7 21.5q0 14 -0.5 22t-1.5 15t-1.5 15t-0.5 22q0 13 9 22t21 9q15 0 24 -0.5t17 -1t17 -1t25 -0.5q12 0 21 -7.5t9 -20.5v-74q0 -12 -9 -21t-21 -9h-25t-17 -0.5t-17 -0.5h-24z" />
    <glyph glyph-name="ellipsis" unicode="&#x2026;" horiz-adv-x="654" 
d="M141 51q0 -12 -7.5 -19.5t-19.5 -7.5q-15 0 -24 -0.5t-17 -0.5t-17 -0.5t-24 -0.5q-13 0 -20 8.5t-7 20.5q0 14 -1 22.5t-1.5 15.5t-1.5 15t-1 22q0 12 9.5 21.5t22.5 9.5h82q12 0 19.5 -9.5t7.5 -21.5v-75zM359 51q0 -12 -7.5 -19.5t-19.5 -7.5q-15 0 -24 -0.5t-17 -0.5
t-17 -0.5t-24 -0.5q-13 0 -20 8.5t-7 20.5q0 14 -1 22.5t-1.5 15.5t-1.5 15t-1 22q0 12 9.5 21.5t22.5 9.5h82q12 0 19.5 -9.5t7.5 -21.5v-75zM577 51q0 -12 -7.5 -19.5t-19.5 -7.5q-15 0 -24 -0.5t-17 -0.5t-17 -0.5t-24 -0.5q-13 0 -20 8.5t-7 20.5q0 14 -1 22.5
t-1.5 15.5t-1.5 15t-1 22q0 12 9.5 21.5t22.5 9.5h82q12 0 19.5 -9.5t7.5 -21.5v-75z" />
    <glyph glyph-name="exclam" unicode="!" horiz-adv-x="219" 
d="M6 630q-1 17 -1.5 27t-1 19t-1 19t-1.5 27q-1 11 7.5 20.5t19.5 9.5q16 0 26 -1t18 -1.5t17.5 -1.5t26.5 -1q11 0 19.5 -7t7.5 -18q-1 -17 -2.5 -27t-3 -18.5t-3 -18.5t-2.5 -27t-1.5 -27t-1 -19t-1 -19t-1.5 -27q-2 -17 -2 -27v-19t-0.5 -19t-1.5 -27t-2.5 -27
t-2.5 -18.5t-2.5 -18.5t-2.5 -27t-1.5 -27t-0.5 -19t-0.5 -19t-1.5 -27q-2 -21 -24 -21q-10 0 -13 -2.5t-13 -2.5q-11 0 -19 7.5t-9 18.5q-1 17 -1.5 27t-1 18.5t-1 18.5t-1.5 27t-2 27t-1.5 19t-1.5 19t-2 27q-2 17 -1.5 27t1 19t0.5 19t-1 27t-2.5 27t-3.5 18.5t-3.5 18.5
t-2.5 27zM140 126q0 -14 1 -22t1.5 -15t1.5 -15.5t1 -22.5q0 -12 -10 -21.5t-22 -9.5h-24t-17 0.5t-17 0.5h-24q-13 0 -22 9t-9 21q0 14 0.5 22.5t1 15.5t1 15t0.5 22q0 12 7.5 20.5t20.5 8.5q15 0 24 -0.5t17 -0.5t17 -0.5t24 -0.5q12 0 19.5 -7.5t7.5 -19.5z" />
    <glyph glyph-name="exclamdown" unicode="&#xa1;" horiz-adv-x="219" 
d="M137 141q1 -17 1.5 -27t0.5 -19v-19t2 -27q1 -11 -5.5 -18.5t-17.5 -7.5h-26.5t-17.5 -0.5t-18 -0.5h-26q-11 0 -18 8t-6 19q1 17 2 27t1.5 19t1.5 19t2 27t1.5 27t1 19t1 19t1.5 27t1 27v18.5t0.5 18.5t1.5 27l6 92l6 92q1 10 9 15t19 5q10 0 13 2t13 2t17.5 -7t8.5 -17
q1 -17 1.5 -27t1 -19t1 -19t1.5 -27t1 -27v-19t0.5 -19t1.5 -27t2 -27t2 -18.5t2 -18.5t2 -27t2.5 -27t2 -19t1.5 -19t2 -27zM32 616q-12 0 -20 9t-8 21q0 14 -0.5 22t-1.5 15t-1.5 15t-0.5 22q0 12 10 21t22 9h25t17 0.5t17 0.5h24q12 0 20.5 -9.5t8.5 -21.5q0 -14 0.5 -22
t0.5 -15t0.5 -15t0.5 -22q0 -12 -9.5 -20t-21.5 -8q-15 0 -24 -0.5t-17 -0.5t-17 -0.5t-25 -0.5z" />
    <glyph glyph-name="grave" unicode="`" horiz-adv-x="262" 
d="M190 581q5 -8 3 -16t-10 -13q-7 -5 -11 -7.5l-8 -5l-8 -5t-11 -7.5q-8 -5 -16 -4t-13 8l-19 22l-13.5 15l-13.5 14.5t-18 21.5q-12 14 -18 22.5l-11.5 16l-11.5 16.5t-18 23q-3 4 -5.5 8t-1.5 9t2.5 10.5t6.5 7.5q13 9 21 14l14.5 9l14.5 8.5t21 13.5q5 4 13 4
q2 0 3.5 0.5t2.5 -0.5q5 -1 9 -4.5t6 -8.5l13 -25.5l9 -17.5l9 -17.5l14 -25.5l14 -25.5l9 -17.5l9 -17.5z" />
    <glyph glyph-name="quotedbl" unicode="&#x22;" horiz-adv-x="387" 
d="M106 766q14 0 21.5 -9.5t5.5 -23.5t-3.5 -21.5t-2 -14.5t-1.5 -15t-3 -21q-2 -14 -3.5 -21.5t-3 -14t-3 -14.5t-3.5 -21q-2 -11 -9 -20.5t-18 -9.5t-14.5 1t-14.5 1t-21 8t-12 19q-2 13 -3 21t-2 15t-2.5 14.5t-3.5 21.5q-2 13 -3 21t-2 15l-2 14.5l-3 21.5t7.5 26
t23.5 12t22 -1t15 -1.5t15.5 -1.5t22.5 -1zM280 771q14 0 23.5 -12t7.5 -26t-3.5 -21.5l-3 -14.5t-2.5 -15t-3 -21l-3 -21.5l-2 -14.5t-2 -15t-3 -21q-2 -11 -11.5 -19t-20.5 -8t-14.5 1t-14.5 1q-25 0 -30 25q-2 13 -3.5 21t-3 15l-3 14.5t-3.5 21.5q-2 13 -3 21t-1.5 15
t-2 14.5t-3.5 21.5t7 23t23 9t22.5 1t15.5 2t15 2t22 1z" />
    <glyph glyph-name="quotesingle" unicode="'" horiz-adv-x="215" 
d="M107 765q14 0 24.5 -9.5t8.5 -23.5t-4 -21.5t-4 -14t-4 -14.5t-4 -21l-12 -72q-2 -11 -9.5 -19.5t-18.5 -8.5h-29q-11 0 -19.5 8.5t-10.5 19.5q-2 13 -3.5 21t-3 15l-3 14.5t-3.5 21.5l-12 72q-2 14 8 24.5t24 10.5t22.5 -0.5t15.5 -1t15 -1t22 -0.5z" />
    <glyph glyph-name="quotedblright" unicode="&#x201d;" horiz-adv-x="399" 
d="M73 775q24 0 39 -9t22.5 -24t8.5 -34t-4 -39q-2 -8 -11 -32.5t-21.5 -48.5t-27.5 -39t-29 -5q-5 4 -9.5 11.5t-6.5 13.5q-2 11 6 16t15 10q8 8 15 16.5t12 18.5q-32 2 -57 20t-25 53q0 29 22 50.5t51 21.5zM315 706q3 -23 -4.5 -47t-17.5 -46q-3 -7 -12 -21.5t-19.5 -27
t-22.5 -17.5t-21 7q-3 4 -5 8.5t-4 9.5q0 1 -0.5 2.5t-0.5 3.5q1 2 2 2.5t2 1.5q14 11 22 23t16 28q-2 -1 -3 -2t-3 -1q-29 0 -49 22t-20 51t20 49t49 20q31 0 51 -21q19 -22 20 -45z" />
    <glyph glyph-name="quotedblleft" unicode="&#x201c;" horiz-adv-x="399" 
d="M243 682q29 0 50 -20.5t21 -49.5t-21 -49.5t-50 -20.5q-34 0 -49 17t-17.5 42t4 52.5t15.5 47.5q3 5 10.5 19.5t17 28.5t20 22.5t19.5 1.5q2 -2 3.5 -4.5t3.5 -4.5q2 -4 4 -7.5t4 -7.5q4 -8 4 -12q0 -6 -10 -12t-14 -11q-11 -13 -21 -32h6zM72 683q29 0 49.5 -21
t20.5 -50q0 -25 -13.5 -42.5t-33 -25t-41.5 -3t-38 24.5q-11 14 -14 31.5t-1 36t8.5 36t13.5 32.5q3 6 10 19t16 26t19 21.5t19 4.5q6 -3 9 -9q7 -10 13 -20t-7 -18q-26 -15 -40 -42q2 0 5 -0.5t5 -0.5z" />
    <glyph glyph-name="quoteleft" unicode="&#x2018;" horiz-adv-x="227" 
d="M73 680q29 0 50 -19.5t21 -48.5t-21 -50.5t-50 -21.5q-28 0 -49.5 19t-23.5 47q-2 29 10.5 57.5t26.5 54.5q3 4 9.5 15.5t14.5 21.5t17 15t16 -3q4 -3 5.5 -7.5t3.5 -9.5q2 -3 4.5 -5.5t4.5 -6.5q2 -8 -7 -13.5t-14 -10.5q-7 -7 -12 -15.5t-9 -17.5q2 0 1.5 -0.5
t1.5 -0.5z" />
    <glyph glyph-name="quoteright" unicode="&#x2019;" horiz-adv-x="219" 
d="M139 705q1 -23 -5.5 -48t-14.5 -43q-10 -21 -24 -39.5t-34 -30.5q-5 -3 -6 -2q-5 0 -9 8q-5 7 -8 14q-4 5 -5 11q-1 8 7 13t13 10q8 8 13 17l10 18q-2 0 -2.5 -0.5t-2.5 -0.5q-29 0 -50 21t-21 50t21 50t50 21q38 0 52.5 -20t15.5 -49z" />
    <glyph glyph-name="braceleft" unicode="{" horiz-adv-x="356" 
d="M246 69q11 0 16.5 -7t5.5 -18v-12.5t0.5 -8.5t0.5 -8.5v-12.5q0 -24 -23 -24q-15 0 -24 -0.5t-17 -0.5t-17 -0.5t-24 -0.5t-24 -0.5t-17 -0.5t-17 -0.5t-24 -0.5q-11 0 -18 8.5t-7 19.5q0 14 -0.5 22t-1 15t-1 15t-0.5 22v22t-0.5 15t-0.5 15.5v22.5t0.5 22t1.5 15
t1.5 15t0.5 22v75q0 5 -1 11t-5 9q-8 8 -13 11.5l-9.5 6.5t-9.5 7t-12 12q-8 8 -7.5 19t8.5 19q8 7 12.5 11.5t8.5 8l8.5 7.5t12.5 12q7 9 7 19q0 14 0.5 22.5t0.5 15.5t0.5 15t0.5 22t-0.5 22t-1.5 15t-1.5 15t-0.5 22t0.5 22.5t1 15.5t1 15t0.5 22t-0.5 22t-1.5 15
t-1.5 15.5t-0.5 22.5q0 11 8.5 19t19.5 8q15 0 24 -0.5t17 -0.5t17 -0.5t24 -0.5t24 0.5t17 1t17 1t24 0.5q11 0 19 -8.5t8 -19.5q0 -8 -0.5 -13t-1.5 -9t-1.5 -8.5t-0.5 -12.5q0 -11 -6 -19.5t-17 -8.5q-9 0 -14.5 0.5t-10 1.5t-9.5 1.5t-14 0.5q-20 0 -33.5 -14.5
t-13.5 -34.5v-29t-0.5 -20t-0.5 -20v-29v-30t-0.5 -20t-0.5 -20v-29q0 -5 -0.5 -10t-4.5 -9q-5 -5 -8.5 -7.5l-6.5 -4.5t-6 -4.5t-8 -7.5q-8 -8 -7 -18.5t9 -18.5q10 -10 11.5 -14.5t11.5 -14.5q4 -4 8 -7.5t4 -8.5q0 -18 -0.5 -29t-1.5 -20t-1.5 -20t-0.5 -30
q0 -18 0.5 -29t1 -20t1 -20t0.5 -29q0 -20 13.5 -34t33.5 -14h48v0z" />
    <glyph glyph-name="braceright" unicode="}" horiz-adv-x="356" 
d="M263 392q8 -8 9.5 -17t-6.5 -17t-12.5 -12t-8 -8t-8.5 -8.5t-12 -11.5t-7 -18q0 -14 0.5 -22.5t0.5 -15.5t0.5 -15t0.5 -22t-0.5 -22t-0.5 -15t-0.5 -15t-0.5 -22t-0.5 -22.5t-0.5 -15.5t-0.5 -15t-0.5 -22t0.5 -22t0.5 -15t0.5 -15t0.5 -22q0 -11 -7.5 -18t-18.5 -7
q-15 0 -24 0.5t-17 0.5t-17 0.5t-24 0.5h-82q-11 0 -19.5 6t-8.5 17v42q0 11 8.5 17.5t19.5 6.5h48q20 0 35.5 14.5t15.5 34.5q0 18 -0.5 29t-0.5 20t-0.5 20t-0.5 29q0 19 -0.5 30t-1.5 20t-1.5 20t-0.5 29q0 5 3 10t7 9q10 10 12 14t12 14q8 8 10 17.5t-6 17.5
q-5 5 -8.5 7.5l-6.5 4.5t-6 4.5t-8 7.5q-7 6 -7 19q0 18 0.5 29t1 20t1 20t0.5 30q0 18 -0.5 29t-0.5 20t-0.5 20t-0.5 29q0 20 -14 35t-34 15q-9 0 -14.5 -0.5t-10 -0.5t-9.5 -0.5t-14 -0.5q-11 0 -18 7.5t-7 18.5q0 7 -0.5 11.5t-0.5 8.5t-0.5 8.5t-0.5 12.5q0 11 8 20
t19 9h82q15 0 24 -0.5t17 -1t17 -1t24 -0.5q11 0 17 -7.5t6 -18.5v-22t0.5 -15t0.5 -15v-22t0.5 -22t0.5 -15t0.5 -15.5t0.5 -22.5t-0.5 -22t-1 -15t-1 -15t-0.5 -22t1 -22t1.5 -15t1.5 -15.5t1 -22.5v-10t4 -9q7 -8 11.5 -12.5t8 -8.5l7.5 -8.5t12 -12.5z" />
    <glyph glyph-name="bracketleft" unicode="[" horiz-adv-x="286" 
d="M192 67q11 0 18 -6t7 -17v-12.5t-0.5 -8.5t-0.5 -8.5v-12.5q0 -11 -6.5 -18.5t-17.5 -7.5q-15 0 -24 -0.5t-17 -0.5t-17 -0.5t-24 -0.5h-24t-17 0.5t-17 0.5h-24q-11 0 -17.5 8t-6.5 19v83v83v25t0.5 17t0.5 17v25q0 15 -1 24t-1.5 17t-1.5 17t-1 25t0.5 25t0.5 17
t0.5 17t0.5 24v25t0.5 17t0.5 17v25v24t0.5 17t0.5 17v25t-0.5 25t-1.5 17t-1.5 17t-0.5 24v84q0 11 8.5 18t19.5 7q15 0 24 0.5t17 1t17 1t24 0.5t24 -0.5t17 -1.5t17 -1.5t24 -0.5q11 0 17 -6.5t6 -17.5q0 -8 0.5 -13t0.5 -9t0.5 -8.5t0.5 -12.5q0 -11 -7 -18.5t-18 -7.5
q-9 0 -14.5 0.5t-10 1.5t-10 1.5t-14.5 0.5q-20 0 -33.5 -15.5t-13.5 -35.5v-25.5t-0.5 -17.5t-0.5 -18v-26v-25.5t0.5 -17.5t0.5 -17.5v-25.5v-25.5t-0.5 -17.5t-0.5 -17.5v-25.5v-26.5t-0.5 -17.5t-0.5 -17.5v-25.5t0.5 -25.5t1.5 -17.5t1.5 -17.5t0.5 -25.5v-87
q0 -20 12.5 -33.5t32.5 -13.5q9 0 14.5 -0.5t10 -1t10 -1t14.5 -0.5z" />
    <glyph glyph-name="bracketright" unicode="]" horiz-adv-x="305" 
d="M220 85v-25t0.5 -17t0.5 -17v-24q0 -11 -9 -20t-20 -9q-15 0 -24 0.5t-16.5 1.5t-16.5 1.5t-24 0.5h-24t-17 -0.5t-17 -0.5h-24q-11 0 -19.5 7.5t-8.5 18.5v12.5t-0.5 8.5t-0.5 8.5v12.5q0 11 9 19.5t20 8.5h48q20 0 35 12.5t15 32.5q0 16 -1 25.5t-2 17.5t-2 17.5
t-1 26.5v86q0 16 0.5 25.5t1 17.5t1 17.5t0.5 26.5q0 16 0.5 25.5t1.5 17.5t1.5 17.5t0.5 25.5t-0.5 25.5t-1 17.5t-1 17.5t-0.5 25.5t0.5 26t0.5 18t0.5 17.5t0.5 25.5q0 20 -15 35.5t-35 15.5q-9 0 -14.5 -0.5t-10 -1t-9.5 -1t-14 -0.5q-11 0 -18.5 7.5t-7.5 18.5v11.5
t0.5 8.5t0.5 8.5v12.5q0 11 7 20t18 9h82q15 0 24 -1t16.5 -2t16.5 -2t24 -1q23 0 23 -23q0 -15 1 -24t1.5 -17t1.5 -17t1 -25t-0.5 -25t-0.5 -17t-0.5 -17t-0.5 -24q0 -16 0.5 -25t1 -17t1 -17t0.5 -25q0 -15 -0.5 -24t-1 -17t-1 -17t-0.5 -25v-25t0.5 -17t0.5 -17v-24
q0 -16 -0.5 -25t-0.5 -17t-0.5 -17t-0.5 -24v-84q0 -15 0.5 -24t1 -17t1 -17t0.5 -25z" />
    <glyph glyph-name="parenleft" unicode="(" horiz-adv-x="305" 
d="M203 55q10 -2 16 -10t6 -18q0 -8 -0.5 -12.5t-1 -8.5t-1 -8.5t-0.5 -12.5q0 -12 -8 -21t-19 -7q-43 5 -77 24q-17 9 -31.5 23t-27.5 29q-14 15 -25 31.5t-18 35.5q-8 18 -9.5 38t-1.5 40v23.5t0.5 16t0.5 16.5v24t-0.5 23.5t-0.5 16t-0.5 16t-0.5 23.5v23.5t0.5 16
t0.5 16v23.5v79q0 15 -1 23.5t-1.5 16t-1.5 16.5t-1 24q0 20 6.5 39l13.5 38q8 19 16.5 36t21.5 32q14 15 30 26t34 21q17 9 35 17t38 11q12 2 22 -6.5t10 -20.5q0 -8 -0.5 -12.5t-1.5 -8.5t-1.5 -8.5t-0.5 -12.5q0 -10 -5 -18t-15 -10q-45 -7 -74 -43q-30 -35 -30 -80
q0 -15 -0.5 -24t-0.5 -16.5t-0.5 -16t-0.5 -23.5v-23.5t0.5 -16t0.5 -16v-23.5v-23.5t0.5 -16t0.5 -16v-23.5t-0.5 -23.5t-1.5 -16t-1.5 -16t-0.5 -23.5t0.5 -24t1.5 -16.5t1.5 -16t0.5 -23.5q0 -45 30 -80q29 -36 74 -43z" />
    <glyph glyph-name="parenright" unicode=")" horiz-adv-x="312" 
d="M221 337q0 -15 1 -23.5t1.5 -16t1.5 -16t1 -23.5t-1 -24t-2.5 -16.5t-2.5 -16t-1 -23.5q0 -20 -1 -40t-8 -38q-8 -19 -17.5 -37t-22.5 -33q-14 -15 -31 -25l-35 -20q-17 -9 -35.5 -17t-38.5 -11q-11 -2 -20.5 7t-9.5 21q0 8 0.5 12.5t1.5 8.5t1.5 8.5t0.5 12.5
q0 10 4 18.5t14 10.5q23 4 42.5 13.5t33.5 26.5t23 38t9 44q0 15 -1 23.5t-1.5 16t-1.5 16.5t-1 24t0.5 23.5t1.5 16t1.5 16t0.5 23.5v23.5t-0.5 16t-0.5 16v23.5v23.5t-0.5 16t-0.5 16v23.5v23.5t0.5 16t0.5 16.5v24q0 23 -8.5 43.5t-22.5 37.5t-32.5 30t-41.5 17
q-22 3 -22 23q0 8 0.5 12.5t0.5 8.5t0.5 8.5t0.5 12.5q0 12 7.5 19.5t19.5 5.5q20 -3 38.5 -9.5t35.5 -15.5q18 -10 34.5 -20.5t30.5 -25.5q13 -15 23.5 -32t18.5 -36q7 -19 8.5 -39t1.5 -40v-80v-23.5t-0.5 -16t-0.5 -16v-23.5v-23.5t0.5 -16t0.5 -16v-23.5z" />
    <glyph glyph-name="slash" unicode="/" horiz-adv-x="325" 
d="M233 786q12 0 18.5 -9t3.5 -21q-3 -15 -5 -24t-4 -17t-4 -17t-5 -25t-4.5 -25t-2.5 -17t-2.5 -17t-4.5 -25t-5.5 -25l-4.5 -16.5l-4.5 -16.5t-5.5 -25t-4.5 -25t-2.5 -17t-2.5 -17.5t-4.5 -24.5q-3 -16 -5.5 -25l-4.5 -16.5l-4.5 -16.5t-5.5 -25t-5 -25t-4 -17t-4 -17
t-5 -24q-3 -16 -5.5 -25t-4.5 -17t-4.5 -17t-5.5 -24q-3 -16 -4.5 -25t-3 -17t-3 -17t-4.5 -25t-6 -25t-5 -16.5t-5 -16.5t-6 -25q-2 -9 -7.5 -15.5t-14.5 -6.5h-13t-9 -0.5t-8.5 -0.5h-12.5q-13 0 -22 11t-7 23q3 16 5.5 25t4.5 17t4.5 17t5.5 24q3 16 5 25t3.5 17t3.5 17
t5 25q3 15 5.5 24t4.5 17t4.5 17t5.5 25l5 24.5t3 17t3 17l5 24.5q3 16 5.5 25t5 16.5t5 16.5t5.5 25t5 25t3.5 17t3.5 17t5 25q3 15 4.5 24.5t3 17.5t3 17t4.5 25q3 15 6 24t5 16.5t5 16.5t6 25t4.5 25t3 17t3 17t4.5 25q2 9 10 15t17 6q8 0 12.5 -0.5t8.5 -0.5t9 -0.5
t13 -0.5z" />
    <glyph glyph-name="fraction" unicode="&#x2044;" horiz-adv-x="325" 
d="M233 786q12 0 18.5 -9t3.5 -21q-3 -15 -5 -24t-4 -17t-4 -17t-5 -25t-4.5 -25t-2.5 -17t-2.5 -17t-4.5 -25t-5.5 -25l-4.5 -16.5l-4.5 -16.5t-5.5 -25t-4.5 -25t-2.5 -17t-2.5 -17.5t-4.5 -24.5q-3 -16 -5.5 -25l-4.5 -16.5l-4.5 -16.5t-5.5 -25t-5 -25t-4 -17t-4 -17
t-5 -24q-3 -16 -5.5 -25t-4.5 -17t-4.5 -17t-5.5 -24q-3 -16 -4.5 -25t-3 -17t-3 -17t-4.5 -25t-6 -25t-5 -16.5t-5 -16.5t-6 -25q-2 -9 -7.5 -15.5t-14.5 -6.5h-13t-9 -0.5t-8.5 -0.5h-12.5q-13 0 -22 11t-7 23q3 16 5.5 25t4.5 17t4.5 17t5.5 24q3 16 5 25t3.5 17t3.5 17
t5 25q3 15 5.5 24t4.5 17t4.5 17t5.5 25l5 24.5t3 17t3 17l5 24.5q3 16 5.5 25t5 16.5t5 16.5t5.5 25t5 25t3.5 17t3.5 17t5 25q3 15 4.5 24.5t3 17.5t3 17t4.5 25q3 15 6 24t5 16.5t5 16.5t6 25t4.5 25t3 17t3 17t4.5 25q2 9 10 15t17 6q8 0 12.5 -0.5t8.5 -0.5t9 -0.5
t13 -0.5z" />
    <glyph glyph-name="backslash" unicode="\" horiz-adv-x="336" 
d="M251 16q2 -12 -4 -19.5t-19 -7.5h-12.5t-8.5 -0.5t-9 -0.5h-13q-9 0 -16.5 4.5t-9.5 12.5q-3 16 -4.5 25l-3 17.5l-3 17.5t-4.5 25q-3 15 -5 24t-4 17t-4.5 17t-5.5 25q-3 15 -5.5 24t-4 17t-4 17t-5.5 25q-3 15 -5 24t-3.5 17t-3.5 17t-5 25t-5 25t-3.5 17t-3.5 17
t-5 25q-3 15 -5.5 24t-5 17t-5 17t-5.5 25q-3 15 -4.5 24.5t-3 17t-3 17t-4.5 24.5q-3 16 -5.5 25t-4.5 17t-4.5 17t-5.5 24q-3 16 -4.5 25t-3 17t-3 17.5t-4.5 24.5q-3 12 4 20.5t19 8.5h43q9 0 16 -4.5t9 -13.5q3 -16 5.5 -25t4.5 -17t4.5 -17t5.5 -24q3 -16 4.5 -25
t2 -17.5t2 -17.5t4.5 -25q3 -15 6 -24t6 -16.5t6 -16.5t6 -25t5 -25t3.5 -17t3.5 -17t5 -24q3 -16 5 -25t3 -17t2.5 -17.5t4.5 -24.5q3 -16 5.5 -25t4 -17t4 -17t5.5 -24q3 -16 5 -25t3.5 -17t3.5 -17t5 -25t5.5 -25t5 -16.5t5 -16.5t5.5 -25q3 -15 4.5 -24.5t2 -17.5t2 -17
t4.5 -25z" />
    <glyph glyph-name="dagger" unicode="&#x2020;" horiz-adv-x="336" 
d="M258 568q0 -8 1 -12.5t1.5 -8.5t1.5 -8.5t1 -12.5q0 -11 -9 -19.5t-20 -8.5q-12 0 -16 1t-17 1q-11 0 -19 -7t-8 -18q0 -17 0.5 -27t1 -18.5t1 -18.5t0.5 -27v-90q0 -17 -0.5 -27t-1 -18.5t-1 -18.5t-0.5 -27t0.5 -27t0.5 -18.5t0.5 -18.5t0.5 -27t0.5 -27t1 -18t1 -18
t0.5 -27t-1 -27t-1.5 -18.5t-1.5 -18.5t-1 -27q0 -11 -6.5 -18.5t-17.5 -7.5h-12.5t-8.5 -0.5t-8.5 -0.5h-12.5q-11 0 -19 8t-8 19q0 17 -0.5 27t-0.5 18.5t-0.5 18.5t-0.5 27v27t0.5 18t0.5 18v27t1 27t1.5 18.5t1.5 18.5t1 27v91q0 17 -1 27t-2 18t-2 18t-1 27t1 27
t2.5 18.5t2.5 18.5t1 27q0 11 -9 18t-20 7q-13 0 -17 -1t-16 -1q-11 0 -17 8.5t-6 19.5v12.5t-0.5 8.5t-0.5 8.5v12.5q0 11 6.5 19t17.5 8h33q11 0 17.5 6.5t6.5 17.5q0 19 0.5 30t1.5 20.5t1.5 20.5t0.5 30t-1 30t-2 20.5t-2 20.5t-1 30q0 11 9 18t20 7q8 0 12.5 0.5t8.5 1
t8.5 1t12.5 0.5q11 0 19 -8.5t8 -19.5q0 -19 0.5 -30t0.5 -20.5t0.5 -20.5t0.5 -30v-101q0 -11 5.5 -18t16.5 -7q13 0 17 -2t16 -2q11 0 17.5 -5.5t6.5 -16.5z" />
    <glyph glyph-name="daggerdbl" unicode="&#x2021;" horiz-adv-x="425" 
d="M239 260q11 0 16.5 -8t5.5 -19q0 -8 0.5 -12.5t1.5 -8.5t1.5 -8.5t0.5 -12.5q0 -11 -7.5 -19.5t-18.5 -8.5q-13 0 -17 2.5t-16 2.5q-11 0 -19 -8.5t-8 -19.5q0 -20 0.5 -31l1 -21t1 -21.5t0.5 -30.5v-31.5t0.5 -21.5t0.5 -21.5v-30.5q0 -11 -8.5 -19.5t-19.5 -8.5
q-8 0 -13 0.5t-9 1t-8.5 1t-12.5 0.5q-11 0 -19 7t-8 18q0 19 0.5 30.5t0.5 21.5t0.5 21.5t0.5 31.5q0 19 0.5 30.5t0.5 21.5t0.5 21t0.5 31q0 11 -8.5 17.5t-19.5 6.5q-12 0 -16 1t-17 1q-11 0 -18.5 7t-7.5 18v42q0 11 7.5 17.5t18.5 6.5q13 0 17 1t16 1q11 0 19 7.5
t8 18.5q0 18 -0.5 28t-1 19t-1 19.5t-0.5 28.5v28t0.5 19t0.5 19.5v28.5q0 11 -7 19t-18 8q-12 0 -16 -2t-17 -2q-11 0 -19.5 8.5t-8.5 19.5q0 8 0.5 12.5t1 8.5t1 8.5t0.5 12.5q0 11 7 17t18 6q13 0 17 0.5t16 0.5q11 0 17.5 8t6.5 19q0 19 0.5 30t0.5 20.5t0.5 20.5
t0.5 30v30t0.5 20.5t0.5 20.5v30q0 11 6.5 19t17.5 8h43q11 0 19 -8t8 -19q0 -19 -0.5 -30t-0.5 -20.5t-0.5 -20.5t-0.5 -30t0.5 -30t1 -20.5t1 -20.5t0.5 -30q0 -11 6 -17.5t17 -6.5q12 0 16 0.5t17 0.5q11 0 17.5 -8.5t6.5 -19.5q0 -8 0.5 -12.5t1 -8.5t1 -8.5t0.5 -12.5
q0 -11 -8 -20t-19 -9q-13 0 -17 1.5t-16 1.5q-11 0 -17 -7t-6 -18q0 -18 -1 -28.5t-1.5 -19.5t-1.5 -19t-1 -28v-28.5t0.5 -19.5t0.5 -19v-28q0 -11 8 -17t19 -6q12 0 16 -1t17 -1z" />
    <glyph glyph-name="brokenbar" unicode="&#xa6;" horiz-adv-x="180" 
d="M95 211q0 -18 0.5 -28t1.5 -19t1.5 -19t0.5 -27q0 -18 -0.5 -28t-1.5 -19t-1.5 -19t-0.5 -28q0 -17 0.5 -27t0.5 -19t0.5 -19t0.5 -28q0 -11 -7.5 -17.5t-18.5 -6.5h-12.5t-8.5 0.5t-8.5 0.5h-12.5q-11 0 -20 6t-9 17q0 18 0.5 28t1.5 19t1.5 19t0.5 27q0 18 -0.5 28
t-1 19t-1 19t-0.5 28q0 17 0.5 27t1.5 19t1.5 19t0.5 28q0 17 -1 27t-1.5 19t-1.5 19t-1 28q0 11 9 18.5t20 7.5h12.5t8.5 -0.5t8.5 -0.5h12.5q11 0 18 -7t7 -18v-28t-0.5 -19t-0.5 -19v-27zM29 429q-11 0 -18.5 8t-7.5 19v27t-0.5 18.5t-0.5 18.5v27t0.5 27t0.5 18.5
t0.5 18.5t0.5 27v27t0.5 19t0.5 19v27v27t0.5 18.5t0.5 18.5v27q0 11 6 18.5t17 7.5q8 0 12.5 0.5t8.5 1t8.5 1t12.5 0.5q11 0 19.5 -9t8.5 -20q0 -17 -1 -27t-1.5 -18.5t-1.5 -18.5t-1 -27t0.5 -27t1 -19t1 -19t0.5 -27t-0.5 -27t-1 -18.5t-1 -18.5t-0.5 -27t1 -27t2 -18.5
t2 -18.5t1 -27q0 -11 -9 -18.5t-20 -7.5h-12.5t-8.5 -0.5t-8.5 -0.5h-12.5z" />
    <glyph glyph-name="bar" unicode="|" horiz-adv-x="184" 
d="M95 579q0 -15 0.5 -24t1 -16.5t1 -16.5t0.5 -24v-24t-0.5 -16.5t-0.5 -16.5v-24v-24t0.5 -16.5t0.5 -16.5v-24v-24t-0.5 -16.5t-0.5 -16.5v-24t-0.5 -24t-1 -16.5t-1 -16.5t-0.5 -24t0.5 -24t1.5 -16.5t1.5 -16.5t0.5 -24t-1 -24t-1.5 -16.5t-1.5 -16.5t-1 -24t0.5 -24
t0.5 -16.5t0.5 -16.5t0.5 -24q0 -11 -6.5 -20t-17.5 -9q-8 0 -12.5 1t-8.5 1.5t-8.5 1.5t-12.5 1q-11 0 -17 6.5t-6 17.5q0 15 -0.5 24t-0.5 16.5t-0.5 16.5t-0.5 24t-0.5 24t-1.5 16.5t-1.5 16.5t-0.5 24t0.5 24t1.5 16.5t1.5 16.5t0.5 24v81q0 15 -0.5 24t-1 16.5t-1 16.5
t-0.5 24t1 24t2 16.5t2 16.5t1 24t-1 24t-1.5 16.5t-1.5 16.5t-1 24v81q0 15 0.5 24t0.5 16.5t0.5 16.5t0.5 24t-0.5 24t-1 16.5t-1 16.5t-0.5 24t1 23.5t1.5 16t1.5 16.5t1 24q0 11 6 20t17 9q8 0 12.5 -0.5t8.5 -1t8.5 -1t12.5 -0.5q11 0 19 -7.5t8 -18.5q0 -15 -0.5 -24
t-0.5 -16.5t-0.5 -16.5t-0.5 -24v-80v-24t-0.5 -16.5t-0.5 -16.5v-24z" />
    <glyph glyph-name="percent" unicode="%" horiz-adv-x="961" 
d="M548 509q-6 -14 -9 -22.5t-5 -16t-5.5 -16l-9.5 -22.5t-10 -22.5t-7.5 -15t-7.5 -15t-10 -22.5t-10 -22.5l-7 -15l-7 -15t-10 -22.5t-10 -22l-7.5 -15l-7.5 -15t-10 -22l-9.5 -22.5t-6 -16t-6 -16l-9.5 -22.5l-9.5 -22.5l-6.5 -15.5l-6.5 -15.5l-9.5 -22.5t-10 -22
t-8 -15l-8.5 -15t-10.5 -22q-4 -10 -13 -15.5t-19 -0.5q-14 7 -18.5 10.5t-18.5 10.5q-10 4 -14 13t0 19q6 14 10 22t7 15t7 15.5t10 22.5l9.5 22.5l6.5 15.5l6.5 15.5l9.5 22.5t10 22.5t7.5 15t7.5 15t10 22.5t10 22.5t7.5 15l7.5 14.5t10 22l9.5 22.5l6.5 15.5t7 15.5
t10 22.5l9.5 22.5l6.5 15.5t6 15.5t9 22.5l9.5 22.5l6.5 15.5l6.5 15.5l9.5 22.5l9.5 22.5l6.5 16l6 15.5t9 22t10 22.5t8 15t8 15t10 22.5l9.5 22.5l6.5 15.5t7 15t10 22q5 10 14 13.5t19 -0.5q14 -7 20 -7t20 -7q10 -4 13.5 -15t-1.5 -21l-9.5 -22.5t-6 -16l-5.5 -16
t-9 -22.5t-10.5 -22t-9 -14.5t-9 -14.5t-10.5 -22l-9.5 -22.5l-6.5 -15.5l-6.5 -15.5zM338 369q-11 -18 -24 -32.5t-31 -25.5q-35 -20 -77 -20h-14.5t-10 0.5t-9.5 0.5h-14q-21 0 -41 4t-37 14q-18 11 -33 24.5t-26 31.5q-10 17 -14.5 37.5t-4.5 41.5v22t-0.5 15t-0.5 15v22
v22.5t-0.5 15.5t-0.5 15v22v22t0.5 15t0.5 15v22q0 21 6 40.5t17 36.5q10 18 25 31.5t32 24.5q17 10 36.5 17t40.5 7h48q43 0 78 -21q18 -10 33.5 -24.5t26.5 -31.5q10 -17 15.5 -38t5.5 -42q0 -14 -0.5 -22t-1 -15t-1 -15t-0.5 -22t0.5 -22.5t0.5 -15.5t0.5 -15t0.5 -22
v-22t-0.5 -15t-0.5 -15v-22q0 -21 -7.5 -40t-17.5 -36zM267 594q0 14 0.5 22t0.5 15t0.5 15t0.5 22q0 26 -18.5 45.5t-44.5 19.5q-9 0 -14.5 -0.5t-10 -1.5t-9.5 -1.5t-14 -0.5q-26 0 -44 -17.5t-18 -43.5v-22t0.5 -15t0.5 -15v-22t0.5 -22.5t0.5 -15.5t0.5 -15t0.5 -22v-22
t-0.5 -15t-0.5 -15v-22q0 -26 17 -44t43 -18q9 0 14 0.5t9.5 0.5t10 0.5t14.5 0.5q26 0 43 17t17 43v22v15v15v22t0.5 22.5t0.5 15.5v15v22zM878 233q0 -14 0.5 -22t1 -15t1 -15t0.5 -22t-1 -22t-1.5 -15t-1.5 -15t-1 -22q0 -22 -3 -42t-13 -37q-11 -18 -26.5 -31.5
t-32.5 -24.5q-34 -19 -78 -19h-14.5t-10 0.5t-9.5 0.5h-14q-21 0 -41 3.5t-37 13.5q-18 11 -33.5 24.5t-26.5 31.5q-10 17 -13 37.5t-3 42.5q0 14 -0.5 22t-0.5 15t-0.5 15t-0.5 22t-0.5 22t-0.5 15t-0.5 15t-0.5 22t0.5 22.5t1.5 15.5t1.5 15t0.5 22q0 21 5.5 40.5
t15.5 36.5q11 17 24.5 31.5t31.5 25.5q35 20 77 20h14t9.5 -0.5t10 -0.5h14.5q21 0 41 -4t37 -14q38 -22 58 -57q11 -17 14 -37t3 -41q0 -14 0.5 -22t0.5 -15t0.5 -15.5t0.5 -22.5zM723 21q26 0 46 19t20 45v22t-0.5 15t-1 15t-0.5 22v22v15t0.5 15t0.5 22t-0.5 22.5
t-1 15.5t-1 15t-0.5 22q0 26 -18 42.5t-44 16.5q-9 0 -14.5 1t-10 1.5t-9.5 1.5t-14 1q-26 0 -43.5 -19t-17.5 -45q0 -14 0.5 -22t0.5 -15t0.5 -15.5t0.5 -22.5t-0.5 -22t-1.5 -15t-1.5 -15t-0.5 -22v-22t-0.5 -15t-0.5 -15v-22q0 -26 19 -44.5t45 -18.5h14t9.5 -0.5
t10 -0.5h14.5z" />
    <glyph glyph-name="dollar" unicode="$" horiz-adv-x="418" 
d="M339 247q0 -21 0.5 -33t1.5 -22.5t1.5 -22.5t0.5 -33q0 -27 -8 -52t-23 -45q-20 -24 -48 -39q-12 -7 -23.5 -10t-20.5 -15q-6 -8 -11.5 -18.5t-18.5 -10.5q-10 0 -20.5 -0.5t-20.5 1.5q-11 2 -15.5 9.5t-11.5 15.5q-8 8 -19.5 12.5t-20.5 9.5q-23 14 -42 35
q-14 16 -24.5 35t-15.5 40q-2 12 6.5 23t20.5 11h43q8 0 17 -5.5t11 -13.5q1 -3 1 -7t0.5 -8t3 -6t8.5 0q6 1 8.5 14t3 29t0 31t-0.5 21q0 15 0.5 24t1.5 17t1.5 17t0.5 25q0 15 -9 30t-23 21q-42 18 -67 55q-12 19 -18.5 39.5t-6.5 44.5v36.5t-0.5 24.5t-0.5 24.5v36.5
q0 26 6 51t21 45q11 14 25 25t30 17q14 5 21.5 10.5t15.5 18.5l11 18.5t18 10.5q7 0 11.5 -1.5t8.5 -3t8.5 -3t12.5 -1.5q9 0 14.5 -4.5t10 -11t9.5 -13t11 -10.5q16 -11 34 -18.5t32 -22.5t23 -34.5t14 -41.5q2 -12 -6 -23t-20 -11h-13t-9 -0.5t-8.5 -0.5h-12.5t-16.5 6.5
t-10.5 14.5q-2 4 -1 8.5t-1 7.5q-3 6 -7 6t-7.5 -3t-6 -8t-2.5 -9v-82q0 -17 0.5 -26.5t0.5 -17.5t0.5 -18t0.5 -26q0 -34 29 -46q21 -9 38 -24t30 -34q12 -19 17.5 -41t5.5 -45zM120 527q0 16 1 25.5t1.5 17.5t1.5 17.5t1 25.5q0 9 -9 11.5t-14 -5.5q-4 -7 -7 -15t-3 -16
q0 -23 0.5 -36.5t1 -24.5t1 -24.5t0.5 -36.5q0 -19 8 -31q5 -8 10.5 -6t5.5 11v25.5t0.5 17.5t0.5 17.5v26.5zM244 136q0 21 -0.5 33t-0.5 22.5t0.5 22.5t1.5 33q0 9 -2.5 16t-7.5 14q-5 8 -10.5 6t-5.5 -10q0 -15 -1 -24t-1.5 -17t-1.5 -17t-1 -24t0.5 -24t1.5 -16.5
t1.5 -16.5t0.5 -24q0 -9 7.5 -11.5t12.5 5.5q4 7 5 15t1 17z" />
    <glyph glyph-name="cent" unicode="&#xa2;" horiz-adv-x="418" 
d="M327 135q12 0 19.5 -9t4.5 -21q-5 -22 -15.5 -40.5t-25.5 -34.5q-10 -11 -21.5 -20t-25.5 -16q-11 -6 -24.5 -12t-17.5 -19q-2 -8 -6 -15t-14 -7h-12.5t-8.5 0.5t-8.5 0.5h-12.5q-11 0 -18.5 7.5t-9.5 17.5q-2 11 -7.5 16.5t-12.5 8.5t-15 5t-17 6q-13 6 -25 14.5
t-20 19.5q-16 20 -24.5 46t-8.5 53v27t-0.5 18t-0.5 18v27t1 27t2.5 18.5t3 18.5t1.5 27t-0.5 27t-1 18t-1 18t-0.5 27t0.5 27t1 18t1 18t0.5 27t-0.5 27t-0.5 18.5t-0.5 18.5t-0.5 27q0 54 32 95q9 12 20.5 21t25.5 17q9 4 20.5 6.5t18.5 8.5q6 5 8.5 13t5 15t7 12t15.5 5
q8 0 12.5 -0.5t8.5 -0.5t8.5 -0.5t12.5 -0.5q5 0 13 -3.5t11 -8.5q5 -8 5 -15t11 -12q20 -8 38 -19t32 -27q15 -16 27 -34.5t17 -40.5q2 -12 -7 -21t-21 -9q-8 0 -12.5 -0.5t-8.5 -1t-9 -1t-13 -0.5t-13 6.5t-8 14.5q-2 6 -5.5 12t-7.5 11q-5 6 -12.5 2t-7.5 -12
q0 -16 -0.5 -25.5t-0.5 -17.5t-0.5 -17.5t-0.5 -25.5t0.5 -25.5t1 -17.5t1 -17.5t0.5 -25.5t-0.5 -25.5t-1.5 -17.5t-1.5 -17.5t-0.5 -25.5t0.5 -25.5t0.5 -17.5t0.5 -17.5t0.5 -25.5v-25.5t0.5 -17.5t0.5 -17.5v-25.5q0 -17 -0.5 -26.5t-1.5 -17.5t-1.5 -17.5t-0.5 -25.5
q0 -8 8 -11t13 4q5 5 7 10.5l4 11.5q3 8 10.5 14.5t15.5 6.5t13 -0.5t9 -1.5t8.5 -1.5t12.5 -0.5zM134 362q0 16 -0.5 25.5t-1 17.5t-1 17.5t-0.5 25.5t1 25.5t2 17.5t2 17.5t1 25.5v25.5t-0.5 17.5t-0.5 17.5v25.5q0 8 -8 10t-13 -4q-16 -18 -16 -38q0 -17 0.5 -27t1 -18.5
t1 -18.5t0.5 -27t-0.5 -27t-1 -18t-1 -18t-0.5 -27v-27t0.5 -18.5t0.5 -18.5v-27v-27t0.5 -18t0.5 -18v-27t-0.5 -27t-1.5 -18t-1.5 -18t-0.5 -27q0 -22 15 -40q5 -7 11.5 -4t6.5 11q0 16 0.5 25.5t1.5 17.5t1.5 17.5t0.5 26.5q0 16 -0.5 25.5t-1 17.5t-1 17.5t-0.5 25.5
t0.5 25.5t1 17.5t1 17.5t0.5 25.5z" />
    <glyph glyph-name="yen" unicode="&#xa5;" horiz-adv-x="477" 
d="M380 736q14 0 20.5 -11t1.5 -24q-5 -14 -7.5 -23t-4 -16.5t-3.5 -16.5t-7 -23q-5 -15 -9 -23t-8 -14.5t-7.5 -14.5t-8.5 -23q-5 -14 -7.5 -22.5t-5 -16t-5 -16t-7.5 -23.5q-5 -14 -8.5 -22.5l-6.5 -15.5l-6.5 -15t-8.5 -23q0 -22 11 -27t31 -10q9 -2 16 -6q6 -4 8 -11.5
t2 -16t-1 -17.5t-1 -15q0 -11 -6.5 -19.5t-17.5 -8.5q-12 0 -23.5 0.5t-22.5 1.5q-1 0 -9 -0.5t-16.5 -1.5t-14.5 -3.5t-1 -6.5q6 -5 17 -7.5t24 -3.5t25.5 -1h20.5q11 0 20 -5.5t9 -16.5q0 -8 -1.5 -12.5t-3 -8.5t-2.5 -8.5t-1 -12.5q0 -22 -21 -22q-14 0 -19 -0.5
t-19 -0.5q-20 0 -32.5 -15t-12.5 -34q0 -17 -1 -27t-2 -18t-2 -18t-1 -27q0 -11 -5.5 -19.5t-16.5 -8.5q-8 0 -12.5 0.5t-8.5 1t-8.5 1t-12.5 0.5q-11 0 -16 7t-5 18q0 17 -1.5 27t-3 18t-3 18t-1.5 27q0 19 -11 33t-31 14q-14 0 -19 -2t-19 -2q-11 0 -17.5 9t-6.5 20
q0 8 0.5 12.5t0.5 8.5t0.5 8.5t0.5 12.5q0 11 5.5 17.5t16.5 6.5q14 0 22 1t15 2t15 2t22 1q5 0 7 0.5t2 5.5h3q0 5 -3.5 7.5t-8.5 2.5q-14 0 -22 0.5t-15 1.5t-15 1.5t-22 0.5q-11 0 -19.5 5.5t-8.5 16.5q0 8 0.5 13t0.5 9t0.5 8.5t0.5 12.5q0 12 9 17t20 7q7 1 15 3
t14.5 6t9.5 10.5t-1 16.5q-5 14 -8.5 22.5t-7 15t-7.5 15t-9 22.5q-5 15 -7.5 23.5t-5 15.5l-5.5 15.5l-8 23.5l-8 22.5l-5.5 16t-5 16t-7.5 22.5l-8 22.5l-5.5 16t-5 16t-7.5 22.5q-5 13 2 24t21 11q16 0 22 -1.5t23 -1.5q15 0 21 -15q6 -16 9 -25.5t6 -17l6.5 -17
l9.5 -25.5t9 -25t6 -16.5l6.5 -17l9.5 -25.5t9 -25t5 -17t5 -17.5t9 -25.5q5 -12 20 -11.5t20 12.5l9.5 25t7 16.5t7 17l9.5 25.5t9 25t5 17.5t5 17.5t9 25t9 25l5.5 17l5.5 17t9 25t24 16q16 0 22 1.5t23 1.5z" />
    <glyph glyph-name="Euro" unicode="&#x20ac;" horiz-adv-x="512" 
d="M412 133q12 0 20.5 -8.5t6.5 -20.5q-4 -17 -13.5 -32.5t-20.5 -29.5t-23 -27.5t-28 -21.5t-33.5 -11t-36.5 -3q-15 0 -20 -0.5t-19 -0.5q-22 0 -42 6t-37 16q-17 11 -30 26t-24 33q-10 17 -15.5 36t-5.5 41v59q0 11 -8.5 20t-19.5 9q-13 0 -17 0.5t-16 0.5
q-11 0 -20.5 5.5t-9.5 16.5q0 8 0.5 12.5t1 8.5t1 8.5t0.5 12.5q0 11 8 16t19 5q12 0 16 1.5t17 1.5q11 0 17 8.5t6 19.5q0 9 1 14t1.5 9.5t1.5 10t1 14.5q0 11 -8.5 17.5t-19.5 6.5q-13 0 -17 3t-16 3q-22 0 -22 22q0 8 -0.5 12.5t-0.5 8.5t-0.5 8.5t-0.5 12.5q0 11 6.5 19
t17.5 8q12 0 16 1.5t17 1.5q22 0 22 22v53q0 21 7 41t17 37q11 18 26.5 30t33.5 23q17 10 35.5 15.5t40.5 5.5q14 0 19 0.5t20 0.5q40 0 68 -14q17 -8 31.5 -18.5t25.5 -24.5t15.5 -31.5t7.5 -34.5q3 -12 -2.5 -22t-17.5 -10q-8 0 -13 0.5t-9 1.5t-9 1.5t-13 0.5
q-15 0 -20 17q-6 19 -24.5 29.5t-39.5 10.5q-15 0 -20 1.5t-19 1.5q-26 0 -46 -18t-20 -44q0 -10 1 -16t2.5 -11t2.5 -10.5t1 -15.5q0 -11 5.5 -20.5t16.5 -9.5h28t19 0.5t19 0.5h28q11 0 20.5 -6t9.5 -17q0 -8 -1 -12.5t-2.5 -8.5t-2.5 -8.5t-1 -12.5q0 -11 -6 -18.5
t-17 -7.5h-28t-19 0.5t-19 0.5h-28q-11 0 -19.5 -8t-8.5 -19q0 -9 -0.5 -14.5t-0.5 -10t-0.5 -9.5t-0.5 -14q0 -11 9.5 -17.5t20.5 -6.5q18 0 28 -0.5t19 -1t19 -1t28 -0.5q11 0 17 -7t6 -18q0 -8 1 -12.5t2 -8.5t2 -8.5t1 -12.5q0 -11 -9 -18t-20 -7q-18 0 -28 -0.5
t-19 -0.5t-19 -0.5t-28 -0.5q-11 0 -18.5 -7t-7.5 -18t0.5 -17.5t0.5 -12t0.5 -12t0.5 -17.5q0 -26 17.5 -43.5t43.5 -17.5q14 0 19 -1t20 -1q21 0 37 12.5t22 32.5q2 8 9.5 12t15.5 4h13t9 -0.5t9 -0.5h13z" />
    <glyph glyph-name="sterling" unicode="&#xa3;" horiz-adv-x="473" 
d="M389 74q10 0 16 -7q6 -5 7 -14t1 -17t-0.5 -14.5t-0.5 -14.5t-2 -12q-3 -5 -8.5 -7t-11.5 -3q-33 -5 -65 -6t-64.5 0t-64.5 2.5t-65 1.5q-16 0 -25.5 -1t-17.5 -2t-17.5 -2t-25.5 -1q-11 0 -18.5 8.5t-7.5 19.5q0 9 -0.5 14t-1.5 9.5t-1.5 10t-0.5 14.5q0 7 4 11.5t9 7.5
t11 5.5t10 6.5q5 5 7.5 11.5t4.5 14.5q4 24 1.5 48t-3.5 48q0 8 2 20t3 24t-1 22.5t-9 15.5q-4 2 -8 3t-9 2q-6 1 -17 2t-21.5 3.5t-18.5 7.5t-8 15v12.5t0.5 8.5t0.5 8.5v12.5q0 11 8.5 20t19.5 9q14 0 18 -1t18 -1q11 0 20 7t9 18v86v25.5t0.5 17.5t0.5 17.5v26.5
q0 21 2.5 41t12.5 37q22 38 58 59q17 10 37 13.5t42 3.5q14 0 19 1t20 1q19 0 36.5 -2.5t33.5 -10.5q17 -8 29.5 -21.5t23.5 -27.5t19.5 -29.5t12.5 -33.5q2 -12 -6.5 -23.5t-20.5 -11.5h-13t-9 -0.5t-9 -0.5h-13t-15 7t-10 15q-5 20 -21.5 33t-37.5 13q-15 0 -20 -1.5
t-19 -1.5q-26 0 -45.5 -17t-19.5 -43v-87q0 -16 1 -25.5t1.5 -17.5t1.5 -17.5t1 -25.5q0 -11 6 -17.5t17 -6.5q14 0 18 1t18 1q11 0 20 -9.5t9 -20.5q0 -8 -1 -12.5t-2 -8.5t-2 -8.5t-1 -12.5q0 -11 -6 -19.5t-17 -8.5q-14 0 -18 0.5t-18 0.5q-11 0 -17.5 -7t-6.5 -18
q0 -15 -2 -30t0 -30q1 -16 0.5 -31t-1.5 -30q0 -19 5 -37t20 -29q9 -6 19.5 -8t21.5 -3q38 -2 75 -2t74 5q5 0 9.5 0.5t9.5 -0.5z" />
    <glyph glyph-name="florin" unicode="&#x192;" horiz-adv-x="500" 
d="M437 619q2 -12 -5.5 -21.5t-20.5 -9.5h-12.5t-8.5 -0.5t-9 -0.5h-13t-16 5t-10 13q-6 20 -21.5 30.5t-36.5 10.5q-15 0 -20 3.5t-20 3.5q-26 0 -45 -19.5t-19 -45.5q0 -17 1 -26.5t1.5 -17.5t1.5 -17.5t1 -25.5t-1 -25.5t-2.5 -17.5t-2.5 -17.5t-1 -25.5q0 -11 9.5 -17
t20.5 -6q14 0 18 -0.5t17 -0.5q11 0 17 -8.5t6 -19.5q0 -8 1 -12.5t2 -8.5t2 -8.5t1 -12.5q0 -11 -9 -17.5t-20 -6.5q-6 0 -10 -0.5t-7 -1.5t-7 -1.5t-11 -0.5q-11 0 -19.5 -6.5t-8.5 -17.5q0 -16 0.5 -25.5t0.5 -17.5t0.5 -17.5t0.5 -25.5t-0.5 -25.5t-0.5 -17.5t-0.5 -18
t-0.5 -26t1 -25.5t1.5 -17.5t1.5 -17.5t1 -25.5q0 -22 -4.5 -41t-11.5 -36q-8 -20 -21 -33t-30 -24q-28 -18 -73 -18q-21 0 -33 -1t-22 -2.5t-22 -2.5t-33 -1q-11 0 -16.5 8.5t-5.5 19.5q0 8 -0.5 12.5t-1.5 8.5t-1.5 9t-0.5 13q0 11 7.5 17.5t18.5 6.5q21 0 33 0.5t22 0.5
t22 0.5t33 0.5q5 0 12 1t13.5 6.5t11 18t4.5 36.5q0 16 1 25.5t2.5 17.5t2.5 17.5t1 25.5t-0.5 26t-0.5 18t-0.5 17.5t-0.5 25.5t0.5 25.5t0.5 17.5t0.5 17.5t0.5 25.5q0 11 -10 17.5t-21 6.5q-13 0 -17 -1t-18 -1q-11 0 -18 9.5t-7 20.5v12.5t0.5 8.5t0.5 8.5v12.5
q0 11 6.5 16.5t17.5 5.5q7 0 11 0.5t7 1t7 1t10 0.5q11 0 18 8t7 19v25.5t-0.5 17.5t-0.5 17.5v25.5v87q0 21 7.5 40t17.5 36q20 34 57 56q17 10 36 17.5t40 7.5q15 0 20 -1t20 -1q18 0 35.5 -4t32.5 -12q17 -8 31.5 -18.5t25.5 -24.5t17.5 -31t10.5 -34z" />
    <glyph glyph-name="copyright" unicode="&#xa9;" horiz-adv-x="817" 
d="M727 272q0 -17 1 -26.5t2.5 -17.5t2.5 -18t1 -27q0 -23 -6 -45t-13 -43q-15 -42 -42 -78q-13 -18 -29 -33t-34 -29q-36 -26 -79 -39l-42.5 -14.5t-44.5 -7.5q-14 0 -22.5 0.5t-15.5 1.5t-15.5 1.5t-23.5 0.5t-23.5 -0.5t-15.5 -0.5t-15.5 -0.5t-23.5 -0.5q-45 0 -89 14
q-21 7 -40 19t-37 25q-18 14 -34.5 28.5t-30.5 33.5q-27 36 -40 79q-8 21 -10.5 43t-2.5 45q0 17 -1 27t-1.5 18t-1.5 17.5t-1 26.5t1 27t2.5 18t2.5 18t1 27q0 16 -0.5 26t-1.5 18t-1.5 18t-0.5 27t0.5 27t0.5 18t0.5 17.5t0.5 26.5q0 23 4 45t11 43t16.5 41t23.5 38
q13 18 27 35.5t33 31.5q18 13 38.5 21.5t42.5 15.5q21 7 43 11.5t45 4.5h23.5t15.5 -0.5t15.5 -0.5h23.5t23.5 0.5t15.5 0.5t15.5 0.5t22.5 0.5q23 0 45 -6.5t42 -13.5l43.5 -14t39.5 -21q18 -13 33 -29.5t29 -35.5q13 -18 23.5 -37.5t18.5 -41.5q7 -21 9 -43.5t2 -45.5
v-26.5t-0.5 -17.5t-0.5 -18v-27t0.5 -27t0.5 -18t0.5 -18t0.5 -26q0 -17 -0.5 -27t-1 -18t-1 -18t-0.5 -27zM638 362v26t-0.5 18t-0.5 18v27t0.5 27t0.5 18t0.5 17.5t0.5 26.5q0 20 -7 37.5l-14 34.5l-15.5 34.5t-21.5 30.5q-26 27 -62 43q-17 7 -36 11.5t-39 4.5h-22.5
t-15.5 0.5t-15.5 0.5h-23.5t-23.5 -1.5t-15.5 -3t-15.5 -2.5t-23.5 -1q-20 0 -38 -2t-35 -9q-18 -8 -33 -19t-28 -24q-27 -27 -42 -62q-7 -17 -13 -35t-6 -38q0 -17 0.5 -26.5t1 -17.5t1 -18t0.5 -27v-89v-27t-0.5 -18t-0.5 -18v-27t1 -26.5t1.5 -17.5t1.5 -18t1 -27v-39
t7 -36q8 -17 20 -31.5t26 -28.5t29 -25t32 -19q37 -16 74 -16h23.5t15.5 0.5t15.5 0.5h23.5t23.5 1t15.5 1.5t15.5 1.5t22.5 1q20 0 38.5 1.5t35.5 9.5q18 7 33 18t29 25q13 14 23.5 29t18.5 33q13 32 13 73q0 17 0.5 27t1 18t1 17.5t0.5 26.5v27v18v18v27zM330 494
q0 -17 -0.5 -27t-0.5 -18t-0.5 -18t-0.5 -26q0 -17 -0.5 -26.5t-1.5 -17.5t-1.5 -18t-0.5 -27t1 -26.5t2.5 -17.5t2.5 -18t1 -26q0 -8 3 -15t10 -7h18t17 2q11 2 12.5 5.5t9.5 8.5q6 4 12 4.5t13 0.5q8 0 13 0.5t9 0.5t9 0.5t13 0.5q14 0 21 -11t3 -23q-5 -17 -14 -33
t-23 -26q-14 -11 -31.5 -15t-36.5 -4h-13t-9 0.5t-9 0.5h-14q-23 0 -44 7.5t-36 22.5q-32 32 -32 80q0 16 0.5 26t1.5 18t1.5 18t0.5 27v88q0 16 -1 26t-1.5 18t-1.5 18t-1 27q0 23 10.5 42t26.5 34q31 31 76 31h45q26 0 47.5 -11.5t41.5 -28.5q11 -11 19 -27.5t-4 -31.5
q-5 -7 -13.5 -9.5t-17.5 -3.5q-11 0 -22.5 1t-21.5 6q-8 5 -13 9t-16 4q-8 0 -13 -0.5t-9 -1t-9 -1t-14 -0.5q-14 0 -14 -12z" />
    <glyph glyph-name="registered" unicode="&#xae;" horiz-adv-x="809" 
d="M723 451q0 -17 1 -27t2.5 -18t2.5 -18t1 -26q0 -17 -0.5 -27t-1 -18t-1 -18t-0.5 -27v-26.5t-0.5 -17.5t-0.5 -18v-27q0 -23 -2.5 -45t-9.5 -43q-15 -43 -42 -79q-13 -18 -29 -33.5t-34 -29.5q-18 -13 -37 -24t-41 -19q-21 -7 -43.5 -8.5t-45.5 -1.5q-15 0 -23.5 -0.5
t-15.5 -1t-15.5 -1t-22.5 -0.5q-15 0 -23.5 -0.5t-15.5 -1.5t-15.5 -1.5t-23.5 -0.5q-23 0 -45 5.5t-43 12.5q-44 15 -80 42q-18 13 -35 27.5t-30 33.5q-14 18 -22 39t-15 42q-13 40 -13 88q0 17 -0.5 27t-1.5 18t-1.5 17.5t-0.5 26.5t1 27t1.5 18t1.5 18t1 27q0 16 -1 26
t-1.5 18t-1.5 18t-1 27t0.5 27t0.5 18t0.5 17.5t0.5 26.5q0 23 1.5 46t8.5 43q7 22 19 41.5t25 37.5q27 36 63 63q18 14 38.5 23t41.5 16t43 12t45 5q15 0 23.5 -0.5t15.5 -0.5t15.5 -0.5t23.5 -0.5h22.5t15.5 -0.5t15.5 -0.5h23.5q48 0 88 -13q44 -14 80 -39
q19 -14 35.5 -29t30.5 -33q25 -36 41 -81q7 -20 9.5 -43t2.5 -46q0 -17 -1 -26.5t-2 -17.5t-2 -18t-1 -27zM633 272q0 17 1 27t2 18t2 18t1 27q0 16 -1 26t-2.5 18t-2.5 18t-1 27t0.5 27t1 18t1 17.5t0.5 26.5q0 20 -3 39t-10 36q-8 17 -19 32t-25 29q-28 28 -62 43
q-17 7 -35.5 11t-38.5 4q-15 0 -23.5 -0.5t-15.5 -1t-15.5 -1t-22.5 -0.5q-15 0 -23.5 0.5t-15.5 1.5t-15.5 1.5t-23.5 0.5q-20 0 -38 -5t-35 -13q-18 -8 -32 -19t-28 -25t-25.5 -28t-19.5 -31q-7 -17 -11 -35.5t-4 -38.5q0 -17 0.5 -26.5t1.5 -17.5t1.5 -18t0.5 -27t-1 -27
t-1.5 -18t-1.5 -18t-1 -26v-27t-0.5 -18t-0.5 -18v-27t0.5 -26.5t1.5 -17.5t1.5 -18t0.5 -27q0 -20 1 -39t9 -36q7 -17 19.5 -31.5t26.5 -28.5q29 -29 61 -43q17 -7 35.5 -9t38.5 -2q15 0 23.5 -0.5t15.5 -1t15.5 -1t23.5 -0.5h77q20 0 38.5 2.5t35.5 10.5q18 8 33 19t28 25
q14 14 25 29t18 32q16 37 16 74q0 17 -0.5 27t-1 18t-1 17.5t-0.5 26.5zM514 215q15 -7 15 -20q0 -8 -0.5 -13t-1.5 -9t-1.5 -9t-0.5 -13q0 -28 -26 -23q-19 5 -41 14.5t-36 35.5q-9 17 -11 40t-2 53q0 26 -5.5 30.5t-18.5 4.5h-12.5t-8.5 0.5t-8.5 0.5h-11.5t-13 -6t-6 -13
q0 -13 1 -20.5l2 -14.5l2 -14.5t1 -20.5v-20.5t-0.5 -14.5t-0.5 -14.5v-20.5q0 -11 -9 -19.5t-20 -8.5q-8 0 -12.5 1t-8.5 2.5t-8.5 2.5t-12.5 1q-11 0 -18.5 5t-7.5 16q0 16 0.5 25t0.5 17t0.5 17.5t0.5 25.5t0.5 25.5t0.5 17.5t0.5 17t0.5 25t-1 25.5t-2.5 17.5t-2.5 17
t-1 25t1 25.5t1.5 17.5t1.5 17t1 25v86q0 11 6.5 18t17.5 7q12 0 19 0.5t13 0.5t13.5 0.5t19.5 0.5h19t13 -0.5t13.5 -0.5h19.5q23 0 43 -9.5t35 -24.5t24.5 -35t9.5 -43q0 -14 -0.5 -21.5t-0.5 -14.5t-0.5 -15t-0.5 -21q0 -29 -16 -55q-2 -4 -0.5 -8t3.5 -8q10 -20 10 -40
v-34q0 -27 5.5 -40t12.5 -16zM409 416q4 17 0 38.5t-4 33.5q0 8 -4.5 13t-11.5 5q-17 0 -23 -1t-22 -1q-7 0 -12 -4t-5 -11q0 -14 -0.5 -22t-0.5 -15t-0.5 -15t-0.5 -22q0 -7 4.5 -10t11 -4t13 -1.5t10.5 -1.5q6 -2 12.5 -3t13.5 0q16 3 19 21z" />
    <glyph glyph-name="trademark" unicode="&#x2122;" horiz-adv-x="1047" 
d="M962 288q0 -17 1 -26.5t1.5 -17.5t1.5 -17.5t1 -25.5q0 -17 -1.5 -26.5t-3 -17.5t-2.5 -17.5t-1 -25.5q0 -17 0.5 -26.5t1 -17.5t1 -18t0.5 -27q0 -11 -8 -19.5t-20 -8.5q-13 0 -18 1t-19 2q-12 0 -20 8t-8 19v25.5t0.5 17.5t0.5 17.5v26.5q0 16 0.5 25.5t1 17.5t1 17.5
t0.5 25.5v25.5t0.5 17.5t0.5 17.5v26.5q0 16 -1 25.5t-1.5 17.5t-1.5 17.5t-1 26.5q0 11 -11 13t-15 -9q-5 -14 -8 -21.5l-5.5 -14l-5.5 -14.5l-8 -22t-7 -22t-4 -14.5t-4 -15t-7 -21.5q-5 -14 -8.5 -22l-6.5 -15.5t-6 -16l-9 -24.5q-5 -15 -21 -15q-11 0 -17 0.5t-11 1.5
t-11 1.5t-16 0.5q-16 0 -21 15t-9.5 22.5t-8 14t-8 14t-9.5 21.5q-5 13 -7 21.5t-3 15.5t-3 15.5t-7 22.5l-26 72q-4 9 -13.5 7.5t-9.5 -11.5q0 -17 0.5 -26.5t0.5 -17.5t0.5 -17.5t0.5 -25.5t-0.5 -25.5t-1 -17.5t-1 -18t-0.5 -26t-1 -25.5t-1.5 -17.5t-1.5 -17.5t-1 -25.5
v-26.5t0.5 -17.5t0.5 -17.5v-25.5q0 -10 -7 -17t-17 -7q-8 0 -12 -1l-8 -2t-8.5 -2t-12.5 -1q-11 0 -19.5 8.5t-8.5 20.5q0 17 1 26.5t1.5 18t1.5 17.5t1 26q0 16 -1 25.5t-2.5 17.5t-2.5 17.5t-1 26.5v25.5t0.5 17.5t0.5 17.5v26.5v86q0 16 1 26t2.5 18t2.5 17.5t1 25.5v87
v25t-1 25q-1 23 -17.5 38.5t-39.5 15.5q-39 -1 -78.5 -1h-60.5q-20 0 -35.5 -12t-15.5 -32v-83v-83q0 -15 1 -24t2 -17t2 -17t1 -25v-24t-0.5 -17t-0.5 -17v-25q0 -15 -0.5 -24t-0.5 -17t-0.5 -17t-0.5 -24q0 -16 -0.5 -25t-0.5 -17t-0.5 -17t-0.5 -24q0 -16 0.5 -25
t0.5 -16.5t0.5 -17t0.5 -25.5q0 -11 -8 -18.5t-19 -7.5q-8 0 -12 1t-8 1.5t-9 1.5t-13 1q-10 -1 -17 6t-7 16v83v24t-0.5 17t-0.5 17v25v24t0.5 17t0.5 17v24v83q0 16 -0.5 25t-1.5 17t-1.5 17t-0.5 24t1 24t2.5 17t3 17t1.5 25t-1.5 25t-3 17t-2.5 17t-1 26
q1 20 -12.5 33.5t-33.5 13.5q-16 0 -25.5 -1t-18 -1.5t-18.5 -1t-26 -0.5q-11 0 -19 7.5t-8 18.5q0 9 1 13.5t1.5 8.5t1.5 9t1 13q0 11 7 18t17 7q16 0 26 -0.5t18.5 -1.5t18.5 -1.5t27 -0.5h93q17 0 27 1t19 2t19 2t28 1q17 0 47 -1l63 -2t63 -0.5t47 2.5t35 1t26 -18
q6 -14 9 -22t5 -15.5t4 -16t7 -22.5t9 -22l7 -14.5l7 -14.5t9 -22t7 -22.5t3.5 -16t4 -16t7.5 -22.5t9.5 -22l8 -14.5l8 -14.5t9.5 -22l8 -22l5.5 -15l5.5 -15l8 -22q6 -16 22.5 -16t22.5 16l8 21l5.5 15l5.5 15l8 22t7.5 22.5t5 15.5t5 15.5t7.5 22.5t8.5 22t7 14.5
l7.5 14.5t9 22l8 22.5t5 15.5t5 15.5l8 22.5l8 22.5t5 15.5t5 15.5t9 23.5q2 8 9.5 13t15.5 5q13 0 17 -0.5t18 -0.5q11 0 19 -8t8 -19q0 -17 -0.5 -26.5t-1.5 -18t-1.5 -18t-0.5 -25.5q0 -17 1 -26.5t2.5 -17.5t2.5 -17.5t1 -25.5t-1.5 -25.5t-3 -17.5t-2.5 -18t-1 -26
t1 -25.5t2.5 -17.5t3 -18t1.5 -26t-1 -25.5t-1.5 -17.5t-1.5 -17.5t-1 -25.5z" />
    <glyph glyph-name="ampersand" unicode="&#x26;" horiz-adv-x="602" 
d="M542 2q0 -8 0.5 -12.5t0.5 -8.5t0.5 -8.5t0.5 -12.5q0 -11 -10.5 -19t-21.5 -6q-25 2 -49 11.5t-45 27.5q-6 5 -15 5.5t-16 -5.5q-23 -19 -51.5 -30.5t-60.5 -11.5q-18 0 -28.5 -0.5t-19.5 -1t-19.5 -1t-28.5 -0.5q-24 0 -45.5 9t-41.5 20q-20 12 -37.5 27.5t-28.5 35.5
t-18 42.5t-7 46.5q0 14 0.5 22t0.5 15t0.5 14.5t0.5 21.5q0 13 0.5 21t0.5 15t0.5 15t0.5 22q0 67 39 112q7 8 6.5 18.5t-6.5 17.5q-20 23 -31.5 52t-11.5 61v20.5t-0.5 13.5t-0.5 13.5v19.5t0.5 19.5t1 13.5t1 13.5t0.5 19.5q0 25 7 46.5t18 41.5q12 20 28.5 35.5
t36.5 27.5q20 11 41 17.5t45 6.5h28.5t19.5 0.5t19.5 0.5h28.5q21 0 42 -3t39 -12q19 -10 32.5 -25.5t25.5 -32.5t21 -34.5t13 -38.5q2 -12 -5 -18.5t-19 -6.5q-8 0 -12.5 -1.5t-8.5 -3t-9 -3t-13 -1.5q-9 0 -14.5 8.5t-7.5 16.5q-7 28 -31 46t-53 18h-28.5t-19.5 0.5
t-19.5 0.5h-28.5q-17 0 -32 -7.5t-27 -19.5q-24 -24 -24 -59v-19.5t-0.5 -13.5t-0.5 -13.5v-19.5t-0.5 -19.5t-1 -13.5t-1 -13.5t-0.5 -20.5q0 -17 9.5 -31.5t20.5 -25.5t25.5 -20t31.5 -9q16 0 25 0.5t17 0.5t17 0.5t25 0.5t25 -0.5t17 -1.5t17 -1.5t25 -0.5t25 1t17 2
t17 2t25 1q15 0 24 0.5t17 0.5t17 0.5t25 0.5q11 0 19 -9.5t8 -20.5q0 -8 -0.5 -12t-1.5 -8t-1.5 -8.5t-0.5 -12.5q0 -24 -23 -24q-5 0 -7 -1t-8 -1q-20 0 -33 -13.5t-13 -33.5q0 -14 -0.5 -22.5t-1 -15.5t-1 -15.5t-0.5 -23.5q0 -14 1 -22.5t2 -15.5t2 -15.5t1 -22.5
q0 -45 11 -70q7 -18 18.5 -27t32.5 -12q10 -2 17 -10.5t7 -18.5zM334 51q11 11 19.5 26.5t8.5 32.5v27t-0.5 18.5t-1 18.5t-0.5 27v27v19v19v27q0 20 -14 33t-34 13h-20.5t-13.5 0.5t-13.5 0.5h-19.5h-66q-17 0 -33.5 -5.5t-28.5 -16.5q-11 -11 -15 -28t-4 -34q0 -14 -1 -22
t-1.5 -15t-1.5 -15t-1 -21q0 -14 0.5 -21.5t0.5 -14.5t0.5 -15t0.5 -22q0 -17 5.5 -34t16.5 -28q12 -11 28.5 -16t33.5 -5q18 0 28.5 0.5t19.5 1t19.5 1t28.5 0.5q17 0 32.5 5t26.5 16z" />
    <glyph glyph-name="question" unicode="?" horiz-adv-x="446" 
d="M189 144q12 0 21.5 -10.5t9.5 -22.5q0 -14 -1 -22t-1.5 -15t-1.5 -15t-1 -22q0 -13 -7 -22t-19 -9q-15 0 -24 1t-17 2t-17 2t-25 1q-12 0 -19.5 6t-7.5 19q0 14 -1 22t-2.5 15t-2.5 15t-1 22q0 12 11 22t23 10h25t17 0.5t17 0.5h24zM364 591q3 -27 1.5 -54t-3.5 -52
q-4 -36 -12.5 -70.5t-35.5 -60.5q-12 -12 -25.5 -23t-29.5 -17q-8 -3 -19 -4l-21 -2q-27 -2 -30 -28q-2 -12 -1.5 -16t-1.5 -16q-2 -14 -12.5 -20t-23 -6t-23.5 7t-12 19q-2 20 -3.5 32t-3 22t-3 22t-3.5 32q-1 7 -1.5 9t-1.5 9q-2 11 7 19t20 8q14 0 19 3t19 3
q17 0 36 -4.5t36 3.5q14 7 21.5 22.5t9.5 29.5q2 13 1.5 25t-0.5 25q0 16 2 36.5t0.5 40t-9 35.5t-26.5 23q-47 19 -96 8q-8 -2 -15.5 -4.5t-14.5 -7.5t-10.5 -14.5t-7.5 -18.5t-9.5 -16t-16.5 -7q-8 0 -12.5 1t-8.5 2t-9 2t-13 1q-13 0 -18.5 8.5t-2.5 20.5q2 9 1 18.5
t3 17.5q8 15 20 26.5t25 22.5q15 13 30.5 21t33.5 12q18 5 36.5 7.5t37.5 2.5q20 -1 38.5 -4t36.5 -10q20 -8 38 -19t31 -28q15 -20 22.5 -44t9.5 -50z" />
    <glyph glyph-name="questiondown" unicode="&#xbf;" horiz-adv-x="426" 
d="M166 612q-12 0 -22.5 9t-10.5 21v74q0 12 10.5 22.5t22.5 10.5h83q12 0 22 -10.5t10 -22.5q0 -14 -1 -22t-1.5 -15t-1.5 -15t-1 -22q0 -12 -7.5 -21t-19.5 -9h-83zM333 169q13 0 22.5 -12t7.5 -25q-2 -8 -6 -16.5l-8 -16.5q-14 -31 -40 -54q-30 -26 -67 -35
q-18 -5 -37 -2.5t-38 2.5q-19 1 -38 3t-37 9q-20 8 -38.5 18t-31.5 27q-26 34 -31 79q-1 4 -0.5 7.5t0.5 7.5l-2 30t-1 30q0 18 3.5 36t5.5 36q2 32 13 61t36 52q14 12 30 20t35 10q9 1 17 2t15.5 3t13.5 7t9 15q4 9 5.5 20t3.5 21q1 11 11.5 17t22.5 6.5t22.5 -5
t12.5 -17.5q2 -17 1.5 -35t0.5 -35q1 -16 6 -32t4 -32q0 -6 -2.5 -12t-7.5 -9q-8 -4 -19 -2l-56 2t-53 -13q-8 -5 -15.5 -10.5t-11.5 -14.5q-5 -11 -6 -22t0 -22q0 -9 -1 -17.5t-1 -17.5q0 -13 1 -25.5t1 -25.5q-1 -15 3 -29t15 -26q7 -8 14.5 -14t17.5 -8q23 -5 41 -5
q17 0 35 1.5t32 11.5q6 5 9 11.5l6 13.5q2 0 6 9q2 8 9.5 12.5t16.5 4.5q8 0 13 1t9 1.5t8.5 1.5t12.5 1z" />
    <glyph glyph-name="paragraph" unicode="&#xb6;" horiz-adv-x="629" 
d="M537 143q0 -15 1 -24t2 -16.5t2 -16.5t1 -24v-24t0.5 -16.5t0.5 -16.5v-24q0 -11 -9 -17.5t-20 -6.5q-8 0 -12.5 -1t-8.5 -1.5t-8.5 -1.5t-12.5 -1q-11 0 -20.5 9t-9.5 20q0 16 1 26t2.5 18t2.5 17.5t1 25.5t-1 25.5t-2.5 17.5t-2.5 17.5t-1 26.5q0 16 1 25.5t2 17.5
t2 17.5t1 25.5t0.5 25.5t0.5 17.5t0.5 17.5t0.5 26.5q0 16 -0.5 25.5t-1 17.5t-1 17.5t-0.5 25.5t-0.5 25.5t-1 17.5t-1 17.5t-0.5 26.5q0 16 0.5 25.5t1 17.5t1 17.5t0.5 25.5t0.5 25.5t1 17.5t1 17.5t0.5 26.5q0 20 -15.5 32t-35.5 12h-40q-20 0 -34.5 -12t-14.5 -32
q0 -17 0.5 -26.5t1 -17.5t1 -17.5t0.5 -25.5t-1 -25.5t-1.5 -17.5t-1.5 -17.5t-1 -25.5q0 -17 1 -26.5t1.5 -17.5t1.5 -17.5t1 -25.5t-0.5 -25.5t-0.5 -17.5t-0.5 -17.5t-0.5 -25.5q0 -17 -0.5 -26.5t-1 -17.5t-1 -17.5t-0.5 -25.5v-86q0 -17 0.5 -26.5t1 -17.5t1 -17.5
t0.5 -25.5t0.5 -25.5t0.5 -17.5t0.5 -18t0.5 -26q0 -11 -8 -18t-19 -7q-8 0 -12.5 0.5t-8.5 0.5t-8.5 0.5t-12.5 0.5q-11 0 -18.5 6t-7.5 17v28t0.5 19t0.5 19v28t-0.5 28t-1 19t-1 19t-0.5 27q0 18 1.5 28t3 19t0.5 19t-5 27q-20 4 -37.5 9.5t-34.5 13.5q-18 9 -33 21
l-30 25q-14 14 -25.5 28.5t-21.5 31.5l-21.5 33t-15.5 36q-5 18 -9.5 37.5t-4.5 39.5q0 23 4.5 44.5t11.5 41.5q7 21 17.5 40.5t23.5 37.5q13 17 27.5 34t31.5 30q35 25 79 39q10 0 21 4.5t21 6.5q11 2 23 3t24 1q24 0 48.5 -1.5t47.5 -1.5h151q11 0 17.5 -8t6.5 -19
q0 -15 1 -24t2 -16.5t2 -16t1 -23.5t-1 -24t-1.5 -16.5t-1.5 -16.5t-1 -24t0.5 -24t0.5 -16.5t0.5 -16.5t0.5 -24v-24t-0.5 -16.5t-0.5 -16v-23.5t-0.5 -24t-1.5 -16.5t-1.5 -16.5t-0.5 -24t1 -24t1.5 -16.5t1.5 -16.5t1 -24t-0.5 -24t-0.5 -16.5t-0.5 -16t-0.5 -23.5
t-0.5 -24t-1 -16.5t-1 -16.5t-0.5 -24z" />
    <glyph glyph-name="AE" unicode="&#xc6;" horiz-adv-x="707" 
d="M619 83q11 0 16 -8t5 -19v-12.5t0.5 -8.5t0.5 -8.5v-12.5q0 -11 -5.5 -17.5t-16.5 -6.5q-17 0 -26.5 0.5t-17.5 0.5t-18 0.5t-26 0.5h-26.5t-17.5 -0.5t-18 -0.5h-26q-17 0 -26.5 -1t-17.5 -1.5t-18 -1.5t-26 -1q-11 0 -16.5 8.5t-5.5 19.5q0 13 -0.5 20.5t-1.5 14
t-1.5 14t-0.5 20.5t1 20.5t1.5 14.5t1.5 14.5t1 20.5q0 19 -16 33t-36 14q-17 0 -23 2t-23 2q-31 0 -55 -19.5t-35 -48.5q-5 -12 -7 -19l-4 -13.5l-4.5 -14l-6.5 -19.5q-5 -12 -8.5 -19l-6.5 -13l-6.5 -13t-7.5 -19q-3 -8 -9 -14t-14 -6t-13 1t-9 1.5t-9 1.5t-14 1
q-14 0 -22.5 10t-3.5 23l9.5 22.5t7 15.5t7 15t8.5 23q6 15 9 23.5l5.5 15.5l5.5 15.5l8 22.5q6 15 9 23.5t5 16t5 16l8 22.5l9 23l6 15.5l6.5 15.5t9.5 23q5 14 7.5 22.5t4.5 16l4.5 16.5t8.5 23q5 15 9.5 23l8.5 14.5l8.5 14.5t9.5 23l8 22.5t5 16t5 16l8 23.5
q6 14 9 22.5t6 15.5t6 15.5t9 23.5q5 14 7 23t3.5 16.5t4 16.5t7.5 23q3 8 11.5 12.5t16.5 4.5q16 0 25 -0.5t17 -1t17 -1t24 -0.5h25t17 0.5t17 0.5h24q16 0 25 -0.5t17 -1t17 -1t25 -0.5h83q23 0 23 -22q0 -8 0.5 -12.5t1.5 -8.5t1.5 -8.5t0.5 -12.5q0 -11 -8 -20.5
t-19 -9.5h-75q-14 0 -22 0.5t-15 1t-15.5 1t-22.5 0.5q-20 0 -33 -13t-13 -33q0 -14 -0.5 -22.5t-1.5 -15.5t-1.5 -15.5t-0.5 -23.5q0 -14 1 -22.5t2.5 -15.5t3 -15.5t1.5 -23.5q0 -20 11 -33t31 -13q10 0 15.5 0.5t10.5 1.5t10.5 1.5t15.5 0.5q11 0 19.5 -9.5t8.5 -20.5
q0 -8 0.5 -12.5t0.5 -8.5t0.5 -8.5t0.5 -12.5q0 -11 -9.5 -18t-20.5 -7q-10 0 -15.5 0.5t-10.5 0.5t-10.5 0.5t-15.5 0.5q-20 0 -31 -15t-11 -35v-124q0 -20 11 -34t31 -14q14 0 22.5 -0.5t15.5 -0.5t15 -0.5t22 -0.5t22 0.5t15 1.5t15.5 1.5t22.5 0.5zM331 340v29t-0.5 20
t-0.5 20v29t0.5 29t1 20t1 20t0.5 29q0 7 -5.5 11.5t-12 6t-13 -1t-9.5 -9.5q-7 -18 -10.5 -29t-7 -20l-7.5 -20l-11 -29q-7 -19 -10 -30t-6 -20.5t-6 -20.5t-10 -29q-6 -15 -1.5 -24.5t14 -15.5t22.5 -8t24 -2q18 1 32.5 13t14.5 32z" />
    <glyph glyph-name="OE" unicode="&#x152;" horiz-adv-x="707" 
d="M627 70q11 0 20 -5.5t9 -16.5q0 -8 -0.5 -13t-1.5 -9t-1.5 -8.5t-0.5 -12.5q0 -11 -7 -18t-18 -7h-27t-18.5 -0.5t-18.5 -0.5h-27t-30 1t-25 1.5t-25 1.5t-30 1h-27t-18.5 -0.5t-18.5 -0.5h-27h-27t-19 -0.5t-19 -0.5h-27t-27 -1t-18.5 -2t-18.5 -2t-27 -1
q-21 0 -41.5 6.5t-37.5 17.5q-35 20 -57 57q-10 17 -13 37t-3 42q0 17 -0.5 27t-1.5 18t-1.5 18t-0.5 27t0.5 27t1.5 18t1.5 18t0.5 27t-1 27t-2 18.5t-2 18.5t-1 27t-0.5 27t-0.5 18t-0.5 18t-0.5 27v27t0.5 18.5t0.5 18.5v27q0 21 5 42t15 38q11 17 28 29t35 23
q17 10 36 15.5t40 5.5q17 0 27 0.5t18.5 0.5t18.5 0.5t27 0.5h27t19 -0.5t19 -0.5h27h27t18.5 -0.5t18.5 -0.5h27t30 1t25 1.5t25 1.5t30 1t27 -1t18.5 -2.5t18.5 -2.5t27 -1q22 0 26.5 -13t0.5 -30q-2 -5 -2.5 -10t-1.5 -10q-2 -11 -7 -19.5t-16 -8.5q-16 0 -25 1t-17 1.5
t-17 1.5t-25 1h-102q-20 0 -32 -15t-12 -35q0 -15 -1 -24t-1.5 -16.5t-1.5 -16.5t-1 -24v-24t-0.5 -17t-0.5 -17v-24q0 -20 15 -34.5t35 -14.5q26 0 44 3.5t44 3.5q17 0 24 -16t6 -34.5t-9 -34.5t-21 -16q-26 0 -44 1.5t-44 1.5q-20 0 -34 -13.5t-14 -33.5q0 -12 -0.5 -19.5
t-1 -13.5t-1 -13.5t-0.5 -19.5v-20.5t-0.5 -13.5t-0.5 -13.5v-19.5q0 -20 16 -31.5t36 -11.5q16 0 28 -1t23 -1.5t23 -1.5t28 -1t25 -0.5t17 -0.5t17 -0.5t25 -0.5zM304 201q0 15 -0.5 23.5t-1.5 16t-1.5 16.5t-0.5 24t0.5 24t1.5 16.5t1.5 16.5t0.5 24t-1 23.5t-2 16
t-2 16.5t-1 24t-0.5 24t-0.5 16.5t-0.5 16.5t-0.5 24v23.5t0.5 16t0.5 16.5v24q0 20 -12 31.5t-32 11.5q-19 0 -30 1t-20.5 2.5t-20.5 3t-30 1.5q-26 0 -45.5 -20t-19.5 -46q0 -17 0.5 -27t0.5 -18.5t0.5 -18.5t0.5 -27v-27t-0.5 -18t-0.5 -18v-27v-27t-0.5 -18.5
t-0.5 -18.5v-27t1 -27t1.5 -18t1.5 -18t1 -27t-1 -27t-2.5 -18t-2.5 -18t-1 -27q0 -26 20.5 -42.5t46.5 -16.5q19 0 30 -1.5t20.5 -3t20.5 -2.5t30 -1q20 0 33 15.5t13 35.5q0 15 1 24t1.5 16.5t1.5 16.5t1 24z" />
    <glyph glyph-name="fi" unicode="&#xfb01;" horiz-adv-x="586" 
d="M501 188q0 -17 1 -26.5t1.5 -17.5t1.5 -17.5t1 -25.5t0.5 -25.5t0.5 -17.5t0.5 -18t0.5 -26q0 -11 -9 -16t-20 -5q-8 0 -12.5 -1.5t-8.5 -3t-8.5 -2.5t-12.5 -1q-11 0 -19 9t-8 20q0 16 -0.5 25t-1.5 17t-1.5 17t-0.5 24t1 24t2.5 17t2.5 17t1 25v24t-0.5 17t-0.5 17v25
q0 15 -1 24t-2 17t-2 17t-1 24v25t0.5 17t0.5 17v24q0 16 0.5 25t0.5 17t0.5 17t0.5 24v24t0.5 17t0.5 17v25q0 20 -13 35.5t-33 15.5q-14 0 -22 -1t-15 -1.5t-15 -1.5t-21 -1q-14 0 -22 -0.5t-15 -1t-15 -1t-22 -0.5h-21.5t-14.5 -0.5t-15 -0.5h-22q-20 0 -33.5 -11
t-13.5 -31q0 -17 -0.5 -27t-0.5 -18.5t-0.5 -18.5t-0.5 -27t-0.5 -27t-0.5 -18t-0.5 -18t-0.5 -27q0 -20 15.5 -32t35.5 -12t35.5 -2.5t34.5 -2.5q11 0 16.5 -6.5t5.5 -17.5q0 -8 1 -12.5t2.5 -8.5t2.5 -8.5t1 -12.5q0 -11 -9 -20t-20 -9q-19 0 -34.5 2t-35.5 2t-34 -14
t-14 -34q0 -13 -0.5 -20.5t-0.5 -14.5t-0.5 -15t-0.5 -21t0.5 -20.5t0.5 -14.5t0.5 -14.5t0.5 -20.5t0.5 -20.5t1.5 -14.5t1.5 -14.5t0.5 -20.5q0 -11 -9 -16.5t-20 -5.5q-8 0 -12.5 -1t-8.5 -1.5t-8.5 -1.5t-12.5 -1q-11 0 -19.5 8t-8.5 19q0 16 0.5 26t1 18t1 17.5
t0.5 25.5t0.5 25.5t0.5 17.5t0.5 17.5t0.5 26.5v25.5t-0.5 17.5t-0.5 17.5v26.5v25.5t-0.5 17.5t-0.5 17.5v26.5q0 16 0.5 25.5t1.5 17.5t1.5 17.5t0.5 25.5t-1.5 26t-3 18t-2.5 17.5t-1 25.5t1 26t2.5 18t2.5 17.5t1 25.5t-0.5 25.5t-1 17.5t-1 17.5t-0.5 26.5q0 11 7 17.5
t18 6.5q17 0 27 0.5t18 1.5t18 1.5t27 0.5t27 -0.5t18 -0.5t18 -0.5t27 -0.5t27 -0.5t18 -1.5t18 -1.5t27 -0.5t27 1t18 2.5t18 2.5t27 1t27 -1t18 -2.5t18 -2.5t27 -1q11 0 20.5 -5.5t9.5 -16.5v-26.5t-0.5 -17.5t-0.5 -17.5v-25.5t-1 -25.5t-2.5 -17.5t-2.5 -18t-1 -26
v-87q0 -16 0.5 -25.5t0.5 -17.5t0.5 -17.5t0.5 -25.5q0 -17 0.5 -26.5t1 -17.5t1 -17.5t0.5 -25.5q0 -17 -1 -26.5t-1.5 -17.5t-1.5 -17.5t-1 -25.5z" />
    <glyph glyph-name="fl" unicode="&#xfb02;" horiz-adv-x="762" 
d="M683 85q11 0 19.5 -9t8.5 -20q0 -8 -0.5 -12.5t-1.5 -8.5t-1.5 -8.5t-0.5 -12.5q0 -11 -6.5 -19t-17.5 -8q-17 0 -26.5 0.5t-17.5 0.5t-18 0.5t-26 0.5q-17 0 -26.5 -1t-17.5 -1.5t-18 -1.5t-26 -1q-17 0 -26.5 1.5t-17.5 3t-18 3t-26 1.5q-11 0 -17.5 5t-6.5 16
q0 16 -1 25t-2 17t-2 17t-1 24q0 16 1.5 25t3 17t3 17t1.5 24t-0.5 24t-1 17t-1 17t-0.5 25q0 15 -0.5 24t-1 17t-1 17t-0.5 25q0 15 0.5 24t0.5 17t0.5 17t0.5 24q0 16 -0.5 25t-0.5 17t-0.5 17t-0.5 24q0 16 1 25t2 17t2 17t1 24q0 20 -16 32.5t-36 12.5q-19 0 -30 0.5
t-20.5 0.5t-20.5 0.5t-30 0.5t-30 -0.5t-20.5 -1t-20.5 -1t-30 -0.5q-20 0 -31 -12t-11 -32q0 -17 -1 -27t-2 -18.5t-2 -18.5t-1 -27v-27t0.5 -18.5t0.5 -18.5v-27q0 -20 13.5 -34.5t33.5 -14.5t35 0.5t35 0.5q11 0 17 -6.5t6 -17.5q0 -8 0.5 -12.5t0.5 -8.5t0.5 -8.5
t0.5 -12.5q0 -11 -7 -17t-18 -6h-70q-20 0 -32.5 -15t-12.5 -35v-20.5t-0.5 -14.5t-0.5 -14.5v-20.5v-20.5t-0.5 -14.5t-0.5 -14.5v-20.5q0 -14 -0.5 -21.5t-0.5 -14.5t-0.5 -14.5t-0.5 -20.5q0 -11 -6 -18.5t-17 -7.5h-12.5t-8.5 0.5t-8.5 0.5h-12.5q-11 0 -20.5 7t-9.5 18
v26t0.5 18t0.5 17.5v25.5t0.5 25.5t1 17.5t1 17.5t0.5 26.5q0 16 0.5 25.5t1 17.5t1 17.5t0.5 26.5q0 16 -1 25.5t-2.5 17.5t-2.5 17.5t-1 26.5q0 16 0.5 25.5t1 17.5t1 17.5t0.5 25.5t0.5 26t1.5 18t1.5 17.5t0.5 25.5v26t-0.5 18t-0.5 17.5v25.5t-0.5 25.5t-1 17.5
t-1 17.5t-0.5 26.5q0 11 8 16t19 5q16 0 25.5 1t17.5 1.5t17.5 1.5t25.5 1t25.5 0.5t17.5 1t17.5 1t25.5 0.5t25.5 -1t17.5 -1.5t17.5 -1.5t26.5 -1q16 0 25.5 0.5t17.5 0.5t17.5 0.5t25.5 0.5h25.5t17.5 -0.5t17.5 -0.5h25.5q11 0 18.5 -7t7.5 -18v-83q0 -15 -0.5 -24
t-0.5 -17t-0.5 -17t-0.5 -25q0 -15 0.5 -24t0.5 -17t0.5 -17t0.5 -25q0 -15 -0.5 -24t-1 -17t-1 -17t-0.5 -25v-24t0.5 -17t0.5 -17v-24q0 -16 0.5 -25t1 -17t1 -17t0.5 -24q0 -16 -0.5 -25t-1 -17t-1 -17t-0.5 -24q0 -20 14.5 -35t34.5 -15q14 0 22 0.5t15 0.5t15 0.5
t22 0.5t22.5 0.5t15.5 1.5t15 1.5t22 0.5z" />
    <glyph glyph-name="Lslash" unicode="&#x141;" horiz-adv-x="398" 
d="M391 72q4 -5 4 -12v-13q-1 -8 -1.5 -15t-0.5 -15q-1 -5 -1.5 -10t-4.5 -9q-4 -5 -10 -5.5t-11 -1.5q-55 -2 -109.5 0.5t-109.5 -3.5q-9 -1 -19 -1.5t-19 2.5q-13 5 -18 14.5t-5 22.5q-1 26 -1.5 52t-1.5 52q0 10 1 22.5t1 25.5t-1.5 25.5t-6.5 21.5q-4 7 -9 8.5t-10.5 1
t-11.5 -1.5t-12 1q-8 3 -12.5 10t-7.5 14q-6 11 -10.5 23t0.5 23q7 16 24 21t31 15q11 8 17 19.5t8 24.5q2 14 1.5 26.5t-1.5 25.5q-3 48 -4 95t0 95q0 9 -0.5 21.5t-0.5 25.5t1 25t5 20q3 7 11 11t17 5.5t18.5 1.5t16.5 -1q5 -1 9 -2t8 -4q8 -5 9 -15t1 -19l-2 -124
l-2 -124q0 -9 1.5 -18t9.5 -12q6 -2 11 -0.5t10.5 4.5l10.5 6t11 5q8 2 16.5 -2t14.5 -11q6 -6 9.5 -14.5t6.5 -16.5q5 -11 4 -20q-2 -8 -7.5 -13t-11.5 -9l-27 -19l-27 -19l-13.5 -9.5t-10.5 -12.5q-3 -7 -4 -14t-1 -15q-1 -27 -1.5 -53.5t-1.5 -53.5v-10t1 -10
q1 -15 9 -27q11 -14 30 -16t37 -1q57 1 115 -3q8 -1 15.5 -3t12.5 -8z" />
    <glyph glyph-name="Eth" unicode="&#xd0;" horiz-adv-x="540" 
d="M457 316v-27t-0.5 -18t-0.5 -18v-27t0.5 -27t1.5 -18t1.5 -18t0.5 -27q0 -22 -3.5 -42.5t-13.5 -37.5q-11 -18 -26 -33.5t-33 -25.5q-17 -11 -38 -13t-42 -2q-14 0 -21.5 -0.5l-14.5 -1t-15 -1t-21 -0.5t-20.5 -0.5t-14.5 -0.5t-15 -0.5t-21 -0.5q-14 0 -21.5 0.5
t-14.5 1.5t-15 1.5t-21 0.5q-11 0 -18.5 6.5t-7.5 17.5v90q0 17 1 27t1.5 18t1.5 18t1 27t-0.5 27t-1.5 18t-1.5 18t-0.5 27q0 13 -9 20t-21 7q-8 0 -12.5 1t-8.5 2t-8.5 2t-12.5 1q-11 0 -19.5 6t-8.5 17v12.5t-0.5 8.5t-0.5 8.5v12.5q0 11 9 17t20 6q8 0 12.5 0.5t8.5 1.5
t8.5 1.5t12.5 0.5q12 0 21 8t9 21v96v28.5t-0.5 19.5t-0.5 20v29t-0.5 28.5t-0.5 19.5t-0.5 19.5t-0.5 28.5q0 11 8.5 17t19.5 6q13 0 21 1t15 1.5t14.5 1.5t21.5 1q13 0 21 -0.5t15 -1l14.5 -1t20.5 -0.5h72q21 0 41.5 -3.5t37.5 -14.5q18 -10 32 -26t24 -33q11 -17 15 -37
t4 -41q0 -17 0.5 -27t0.5 -18.5t0.5 -18.5t0.5 -27v-90q0 -17 -0.5 -27t-1 -18.5t-1 -18.5t-0.5 -27zM367 136q0 17 0.5 27t0.5 18t0.5 18t0.5 27t-1 27t-1.5 18t-1 18t-0.5 27v27t-0.5 18.5t-0.5 18.5v27t0.5 27t1.5 18t1.5 18t0.5 27t-0.5 27t-0.5 18.5t-0.5 18.5t-0.5 27
q0 26 -18 44t-44 18q-19 0 -30 0.5t-20 1.5t-20 1.5t-29 0.5q-20 0 -34 -15.5t-14 -35.5q0 -17 0.5 -26.5t1.5 -17.5t1.5 -17.5t0.5 -25.5q0 -17 -1 -26.5t-2 -17.5t-2 -17.5t-1 -25.5q0 -13 10 -20t22 -7h56q11 0 17 -9t6 -20q0 -8 0.5 -12.5t1.5 -8.5t1.5 -8.5t0.5 -12.5
q0 -11 -8 -18t-19 -7h-56q-12 0 -20.5 -9t-8.5 -22q0 -14 0.5 -22.5t0.5 -15.5t0.5 -15.5t0.5 -23.5t-1 -23.5t-1.5 -15.5t-1.5 -15.5t-1 -22.5q0 -20 15 -33t35 -13q18 0 29 -0.5t20 -1t20 -1t30 -0.5q26 0 44.5 19t18.5 45z" />
    <glyph glyph-name="Oslash" unicode="&#xd8;" horiz-adv-x="508" 
d="M408 427v-27t0.5 -18t0.5 -18v-27t0.5 -27t0.5 -18.5t0.5 -18.5t0.5 -27t-0.5 -27t-0.5 -18t-0.5 -18t-0.5 -27q0 -22 -6.5 -41t-17.5 -36q-19 -36 -56 -57q-23 -14 -45 -18t-48 -3q-21 1 -38.5 -5.5t-28.5 -25.5q-4 -6 -7 -12.5t-7.5 -12t-10 -8.5t-14.5 -1q-6 1 -15 2
t-18 3.5t-16 6t-9 10.5q-1 4 -1 12q0 17 1 36.5t-13 32.5q-14 11 -25 23t-19 28q-14 31 -14 66q0 17 0.5 27t0.5 18t0.5 18t0.5 27t-0.5 27t-0.5 18.5t-0.5 18.5t-0.5 27t0.5 27t1 18t1 18t0.5 27t-1 27t-2 18t-2 18t-1 27t0.5 27t0.5 18.5t0.5 18.5t0.5 27q0 21 6.5 40.5
t16.5 36.5q11 18 24 33t31 26q35 20 78 20q13 0 17 -1.5t17 -1.5q14 0 27 7t21 18q6 8 7 19.5t7 18.5q5 5 13 7t14 1q8 -2 12.5 -3.5t8 -2.5t8 -2.5t12.5 -3.5q19 -4 19.5 -17.5t-1.5 -28.5q-1 -8 -1 -15.5t3 -13.5q5 -11 12.5 -18.5l15.5 -15.5t12.5 -18t9.5 -20
q8 -16 13 -32t5 -33t0.5 -27t1 -18.5t1 -18.5t0.5 -27t-0.5 -27t-1 -18t-1 -18t-0.5 -27zM174 458q3 14 4 22.5t2 16t2.5 16t4.5 22.5t5 22.5l3.5 15l3.5 15t5 22.5q3 13 -0.5 25t-11.5 20.5t-19.5 13t-24.5 1.5q-21 -5 -36.5 -22.5t-16.5 -39.5q0 -18 -1 -27t-2.5 -16.5
t-2.5 -18t-1 -31.5q-1 -21 1.5 -44.5t2.5 -49.5q-1 -23 -2.5 -46.5t-1.5 -46.5q0 -25 -0.5 -48.5t-0.5 -45.5q0 -8 5.5 -12t11.5 -4.5t11.5 2.5t7.5 11q3 14 5 22.5t3.5 15.5t3.5 15.5t5 22.5t5.5 22.5l4.5 15t4 15t5 22.5t4.5 22.5t3 15.5t3 15.5t4.5 22.5zM323 308
q0 19 -2.5 37.5t-1.5 38.5q0 20 1.5 39t1.5 38q0 20 0.5 39.5t0.5 36.5q0 8 -5.5 12t-11.5 4.5t-12 -3t-7 -10.5q-3 -15 -5.5 -23.5t-4 -15.5t-3.5 -15.5t-5 -22.5q-3 -15 -5 -23l-4 -15.5t-4.5 -15.5t-5.5 -23t-4.5 -23.5t-3 -15.5t-3 -15.5t-4.5 -22.5q-3 -15 -4.5 -23.5
t-2.5 -16t-2 -16t-4 -23.5q-3 -14 -5 -22.5t-4 -15.5t-4 -15.5t-5 -23.5q-3 -12 0.5 -24t11 -20.5t18.5 -13t24 -2.5q23 4 39 22t16 41q0 14 1 21.5t1.5 13.5t1.5 15t1 26q1 17 2.5 36t2.5 40z" />
    <glyph glyph-name="germandbls" unicode="&#xdf;" horiz-adv-x="504" 
d="M421 347q15 -32 15 -69q0 -23 -0.5 -36.5t-0.5 -24.5t-0.5 -24.5t-0.5 -36.5q0 -42 -20 -77q-11 -17 -24 -32t-31 -25q-17 -11 -36.5 -18t-41.5 -7h-31.5t-21.5 0.5t-22 0.5h-32q-11 0 -17 8.5t-6 19.5v42q0 11 6 18.5t17 7.5h107q26 0 44.5 18t18.5 44q0 23 0.5 36.5
t0.5 24.5t0.5 24.5t0.5 36.5q0 26 -19.5 44.5t-45.5 18.5h-97q-11 0 -18.5 7t-7.5 18v42q0 11 7.5 19.5t18.5 8.5h41q26 0 46 17.5t20 43.5v111q0 26 -20 44.5t-46 18.5q-12 0 -19.5 -0.5t-13.5 -1t-13.5 -1t-20.5 -0.5q-26 0 -45 -17t-19 -43q0 -17 0.5 -26.5t0.5 -17.5
t0.5 -17.5t0.5 -25.5v-86q0 -17 -0.5 -26.5t-1 -17.5t-1 -17.5t-0.5 -25.5v-25.5t-0.5 -17.5t-0.5 -18v-26t1 -25.5t1.5 -17.5t1.5 -17.5t1 -25.5t-0.5 -25.5t-1 -17.5t-1 -18t-0.5 -26v-25.5t0.5 -17.5t0.5 -17.5v-25.5q0 -11 -7 -20t-18 -9h-12.5t-8.5 0.5t-8.5 0.5h-12.5
q-11 0 -19.5 8.5t-8.5 19.5v25.5t0.5 17.5t0.5 17.5v25.5t0.5 26t0.5 18t0.5 17.5t0.5 25.5t-0.5 25.5t-0.5 17.5t-0.5 17.5t-0.5 25.5t0.5 26t0.5 18t0.5 17.5t0.5 25.5v25.5t0.5 17.5t0.5 17.5v26.5v25.5t0.5 17.5t0.5 17.5v25.5t-0.5 25.5t-1 17.5t-1 17.5t-0.5 26.5
q0 21 4.5 41.5t15.5 37.5q10 17 26 30t33 24q17 10 36.5 16t40.5 6h20.5t13.5 -0.5t13.5 -0.5h19.5q45 0 78 -20q18 -10 31.5 -25t23.5 -32q11 -17 19 -36.5t8 -40.5t-1 -33t-2.5 -22.5t-2.5 -22.5t-1 -33q0 -17 -1 -34t-8 -31q-7 -19 6 -29q30 -23 46 -56z" />
    <glyph glyph-name="Thorn" unicode="&#xde;" horiz-adv-x="473" 
d="M399 462q0 -15 0.5 -24t1 -16.5t1 -16t0.5 -23.5v-24t-0.5 -16.5t-0.5 -16.5v-24q0 -21 -6.5 -40t-16.5 -36q-20 -34 -57 -56q-17 -10 -36 -17.5t-40 -7.5h-86v1q-26 0 -45 -17t-19 -43q0 -15 0.5 -24t1.5 -17t1.5 -17t0.5 -25q0 -11 -8.5 -17.5t-19.5 -6.5
q-8 0 -12.5 -1t-8.5 -1.5t-8.5 -1.5t-12.5 -1q-11 0 -17.5 9t-6.5 20q0 16 -1 25t-1.5 17t-1.5 17t-1 25t1 25t2 17t2 17.5t1 25.5t-0.5 25t-1.5 17t-1.5 17t-0.5 25t0.5 25t1.5 17t1.5 17t0.5 25v85q0 16 -0.5 25t-1.5 17t-1.5 17t-0.5 25t0.5 25.5t1.5 17.5t1.5 17t0.5 25
t-0.5 25t-1.5 17t-1.5 17t-0.5 25v25t0.5 17t0.5 17.5v25.5q0 11 7.5 16.5t18.5 5.5q8 0 12.5 0.5t8.5 1t8.5 1t12.5 0.5q11 0 17 -7t6 -18q0 -16 1 -25t1.5 -17t1.5 -17t1 -25q0 -26 17 -44.5t43 -18.5q16 0 25.5 1t17.5 2.5t17.5 2.5t25.5 1q21 0 41 -7t37 -17
q35 -20 57 -58q19 -34 19 -78zM310 382q0 15 -0.5 23.5t-1 16t-1.5 16.5t-1 24q0 26 -17.5 44.5t-43.5 18.5q-16 0 -25.5 0.5t-17.5 1t-17.5 1t-25.5 0.5q-26 0 -44.5 -20t-18.5 -46q0 -15 -0.5 -24t-0.5 -16.5t-0.5 -16t-0.5 -23.5t1 -24t1.5 -16.5t1.5 -16.5t1 -24
q0 -26 17 -45.5t43 -19.5h86q26 0 42.5 19.5t16.5 45.5q0 15 1 24t2 16.5t2 16.5t1 24z" />
    <glyph glyph-name="bullet" unicode="&#x2022;" horiz-adv-x="348" 
d="M271 414q1 -1 1 -4q1 -12 -9 -18.5t-22.5 -12.5t-23.5 -13t-12 -20q-2 -18 7 -35.5t14 -34.5q2 -8 -0.5 -14.5t-11.5 -8.5q-13 -3 -23 3.5t-18.5 16t-17 17.5t-19.5 8q-9 0 -16 -5.5t-13.5 -12.5l-13 -14t-13.5 -10q-5 -3 -12.5 -3t-13.5 2.5t-9.5 7.5t-0.5 13
q3 10 9 21.5t9.5 22t3 20.5t-10.5 18q-5 4 -15 10t-19.5 13t-16 15t-3.5 17q2 7 9.5 10.5t16.5 4.5t18 0.5t15 -0.5q12 0 18.5 1t10.5 4.5t7 9.5t8 17q5 10 9 19t7 19q3 13 15 13q7 0 12.5 -3t7.5 -8q5 -14 7 -28.5t7 -28.5q4 -16 19.5 -18t33 -1t32 1t17.5 -11z" />
    <glyph glyph-name="emdash" unicode="&#x2014;" horiz-adv-x="786" 
d="M682 421q11 0 20 -6t9 -17q0 -8 -0.5 -13t-1 -9t-1 -8.5t-0.5 -12.5q0 -11 -7.5 -17t-18.5 -6q-15 0 -24 -0.5t-17 -1.5t-17 -1.5t-24 -0.5h-24t-16.5 -0.5t-16.5 -0.5h-24t-24 1t-17 1.5t-17 1.5t-24 1t-24 -1t-17 -2t-17 -2t-24 -1h-81q-15 0 -24 1t-17 1.5t-17 1.5
t-24 1t-24 -0.5t-17 -1t-17 -1t-24 -0.5t-24 0.5t-16.5 0.5t-16.5 0.5t-24 0.5q-11 0 -20 7t-9 18v12.5t0.5 8.5t0.5 9v13q0 11 8.5 18.5t19.5 7.5h24t16.5 -0.5t16.5 -0.5h24h24t17 0.5t17 0.5h24t24 -0.5t17 -0.5t17 -0.5t24 -0.5h24t16.5 -0.5t16.5 -0.5h24h82h24
t17 -0.5t17 -0.5h24t24 0.5t16.5 1.5t16.5 1.5t24 0.5t24 -0.5t17 -1t17 -1t24 -0.5z" />
    <glyph glyph-name="endash" unicode="&#x2013;" horiz-adv-x="430" 
d="M327 425q11 0 17.5 -8t6.5 -19v-43q0 -11 -6.5 -17t-17.5 -6h-75q-14 0 -22 -0.5t-15 -0.5t-15 -0.5t-22 -0.5h-22.5t-15.5 -0.5t-15 -0.5h-22h-22t-15 -0.5t-15 -0.5h-22q-11 0 -17 8t-6 19q0 8 -1 12.5t-2 8.5t-2 9t-1 13q0 11 9 19.5t20 8.5q14 0 22 -0.5t15 -1t15 -1
t22 -0.5t22 0.5t15 1.5t15.5 1.5t22.5 0.5t22 -1t15 -2t15 -2t22 -1t22 0.5t15 1.5t15.5 1.5t22.5 0.5z" />
    <glyph glyph-name="hyphen" unicode="-" horiz-adv-x="430" 
d="M327 425q11 0 17.5 -8t6.5 -19v-43q0 -11 -6.5 -17t-17.5 -6h-75q-14 0 -22 -0.5t-15 -0.5t-15 -0.5t-22 -0.5h-22.5t-15.5 -0.5t-15 -0.5h-22h-22t-15 -0.5t-15 -0.5h-22q-11 0 -17 8t-6 19q0 8 -1 12.5t-2 8.5t-2 9t-1 13q0 11 9 19.5t20 8.5q14 0 22 -0.5t15 -1t15 -1
t22 -0.5t22 0.5t15 1.5t15.5 1.5t22.5 0.5t22 -1t15 -2t15 -2t22 -1t22 0.5t15 1.5t15.5 1.5t22.5 0.5z" />
    <glyph glyph-name="minus" unicode="&#x2212;" horiz-adv-x="430" 
d="M327 425q11 0 17.5 -8t6.5 -19v-43q0 -11 -6.5 -17t-17.5 -6h-75q-14 0 -22 -0.5t-15 -0.5t-15 -0.5t-22 -0.5h-22.5t-15.5 -0.5t-15 -0.5h-22h-22t-15 -0.5t-15 -0.5h-22q-11 0 -17 8t-6 19q0 8 -1 12.5t-2 8.5t-2 9t-1 13q0 11 9 19.5t20 8.5q14 0 22 -0.5t15 -1t15 -1
t22 -0.5t22 0.5t15 1.5t15.5 1.5t22.5 0.5t22 -1t15 -2t15 -2t22 -1t22 0.5t15 1.5t15.5 1.5t22.5 0.5z" />
    <glyph glyph-name="underscore" unicode="_" horiz-adv-x="547" 
d="M474 90q0 -8 0.5 -12.5t0.5 -8.5t0.5 -8.5t0.5 -12.5q0 -11 -7 -17.5t-18 -6.5q-16 0 -25 -0.5t-17 -1.5t-17.5 -1.5t-25.5 -0.5t-25 0.5t-17 1t-17 1t-25 0.5t-25 -0.5t-17 -1.5t-17.5 -1.5t-25.5 -0.5t-25 0.5t-17 1t-17 1t-25 0.5h-25.5t-17.5 -0.5t-17 -0.5h-25
q-11 0 -19.5 8t-8.5 19q0 8 0.5 12.5t1.5 8.5t1.5 8.5t0.5 12.5q0 11 6.5 17t17.5 6q16 0 25 0.5t17 1.5t17.5 1.5t25.5 0.5t25 -0.5t17 -1t17 -1t25 -0.5t25.5 -0.5t17.5 -0.5t17 -0.5t25 -0.5h25t17 0.5t17 0.5h25t25.5 0.5t17.5 0.5t17 0.5t25 0.5q11 0 17 -7t6 -18z" />
    <glyph glyph-name="equal" unicode="=" horiz-adv-x="430" 
d="M326 358q11 0 18.5 -8.5t7.5 -19.5v-12.5t-0.5 -8.5t-0.5 -8.5v-12.5q0 -11 -7 -19.5t-18 -8.5q-14 0 -22 0.5t-15 1.5t-15 1.5t-22 0.5h-22t-15 -0.5t-15.5 -0.5h-22.5t-22 -0.5t-15 -1t-15 -1t-22 -0.5t-22 1t-15 1.5t-15 1.5t-22 1q-25 0 -25 23q0 8 0.5 12.5t0.5 8.5
t0.5 8.5t0.5 12.5q0 11 6 18.5t17 7.5q14 0 22 -0.5t15 -1t15 -1t22 -0.5h74h22.5t15.5 -0.5t15 -0.5h22t22 1t15 2t15 2t22 1zM29 395q-11 0 -17 8.5t-6 19.5q0 8 -1 12.5t-2 8.5t-2 8.5t-1 12.5q0 11 9 17t20 6q14 0 22 0.5t15 1.5t15 1.5t22 0.5h22t15 0.5t15 0.5h22
t22.5 -0.5t15.5 -0.5t15 -0.5t22 -0.5h74q11 0 19.5 -7.5t8.5 -18.5q0 -8 -0.5 -12.5t-1.5 -8.5t-1.5 -8.5t-0.5 -12.5q0 -11 -6.5 -19t-17.5 -8h-74h-22t-15 0.5t-15.5 0.5h-22.5h-22t-15 0.5t-15 0.5h-22t-22 -0.5t-15 -1t-15 -1t-22 -0.5z" />
    <glyph glyph-name="divide" unicode="&#xf7;" horiz-adv-x="489" 
d="M382 421q11 0 18.5 -6.5t7.5 -17.5q0 -8 -0.5 -12.5t-0.5 -8.5t-0.5 -8.5t-0.5 -12.5q0 -11 -6.5 -17.5t-17.5 -6.5q-17 0 -26.5 -0.5t-17.5 -1t-18 -1t-26 -0.5q-17 0 -26.5 -0.5t-17.5 -0.5t-18 -0.5t-26 -0.5q-17 0 -27 0.5t-18 0.5t-18 0.5t-26 0.5q-17 0 -26.5 0.5
t-17.5 0.5t-18 0.5t-26 0.5q-11 0 -20 7t-9 18v42q0 11 9 17.5t20 6.5q16 0 26 0.5t18 1t17.5 1t26.5 0.5q16 0 26 -0.5t18 -0.5t18 -0.5t27 -0.5h26t18 0.5t17.5 0.5h26.5q16 0 26 -0.5t18 -0.5t17.5 -0.5t26.5 -0.5zM206 456q-25 0 -40 18t-15 42t15 40.5t40 16.5
q24 0 40 -16.5t16 -40.5t-16 -42t-40 -18zM206 295q24 0 42.5 -17t18.5 -41t-18.5 -40t-42.5 -16q-25 0 -43 16t-18 40t18 41t43 17z" />
    <glyph glyph-name="plus" unicode="+" horiz-adv-x="426" 
d="M322 426q11 0 20 -9t9 -20q0 -8 -0.5 -12.5t-1 -8.5t-1 -8.5t-0.5 -12.5q0 -11 -7.5 -20t-18.5 -9q-14 0 -22.5 0.5t-15.5 1t-15.5 1t-22.5 0.5q-11 0 -20 -7t-9 -18q0 -14 1 -22.5t1.5 -15.5t1.5 -15.5t1 -22.5q0 -11 -8 -18t-19 -7q-8 0 -12.5 0.5t-8.5 0.5t-8.5 0.5
t-12.5 0.5q-11 0 -19 6t-8 17q0 14 -0.5 22.5t-1 15.5t-1 15.5t-0.5 22.5q0 11 -5.5 18.5t-16.5 7.5q-14 0 -22.5 -0.5t-15.5 -0.5t-15.5 -0.5t-22.5 -0.5q-11 0 -17 8t-6 19q0 8 -0.5 12.5t-0.5 8.5t-0.5 8.5t-0.5 12.5q0 11 7 19.5t18 8.5h22.5t15.5 -0.5t15.5 -0.5h22.5
q11 0 19 7t8 18q0 14 0.5 22.5t0.5 15.5t0.5 15.5t0.5 22.5q0 11 6 19t17 8q8 0 12.5 -0.5t8.5 -1.5t8.5 -1.5t12.5 -0.5q11 0 19.5 -6t8.5 -17q0 -14 -0.5 -22.5t-1 -15.5t-1 -15.5t-0.5 -22.5q0 -11 7.5 -18.5t18.5 -7.5q14 0 22.5 0.5t15.5 1t15.5 1t22.5 0.5z" />
    <glyph glyph-name="multiply" unicode="&#xd7;" horiz-adv-x="364" 
d="M232 360q10 -10 15.5 -16.5l10 -12l10 -12t15.5 -16.5q16 -16 -1 -33q-11 -11 -14.5 -15t-14.5 -15q-8 -8 -17.5 -9t-17.5 7l-16 16t-10.5 11.5t-10.5 11.5l-16 16q-8 8 -19.5 8.5t-19.5 -7.5q-10 -10 -15.5 -16.5l-10 -12l-10 -12t-15.5 -16.5q-8 -8 -20 -8.5t-20 7.5
q-5 6 -8 9l-6 6l-6 6l-9 9q-8 8 -6 18t10 18q10 10 15.5 16.5l10 12l10 12t15.5 16.5q8 8 8 17.5t-8 17.5l-16 16t-11.5 10.5t-11.5 10.5l-16 16q-8 8 -6 18t10 18q11 10 15 14.5t15 15.5q8 8 18 9.5t18 -6.5q10 -10 15.5 -16l10.5 -11.5t11 -11.5l16 -16q8 -8 17 -7.5
t17 8.5q10 10 16.5 15.5l12 10l12 10t16.5 15.5q8 8 18.5 10t18.5 -6q11 -11 13.5 -16.5t13.5 -16.5q16 -17 -1 -34l-54 -54q-8 -8 -6.5 -18t9.5 -18z" />
    <glyph glyph-name="asciitilde" unicode="~" horiz-adv-x="508" 
d="M425 395q11 -4 14.5 -12.5t-1.5 -19.5q-9 -18 -20 -32.5t-25 -25.5q-15 -12 -32 -20t-36 -10q-3 0 -6 -0.5t-6 -0.5q-22 0 -39 7t-32 18t-29.5 23.5t-30.5 24.5q-8 6 -15.5 13.5t-15.5 14.5t-17.5 11.5t-19.5 3.5q-13 -1 -22.5 -10t-14.5 -20q-5 -8 -14 -13.5t-18 -2.5
q-15 5 -20 7.5t-20 7.5q-11 5 -15.5 17t0.5 22q9 19 21.5 33t26.5 25q15 11 32.5 19.5t36.5 10.5q23 2 43 -4t37 -14q13 -7 24 -17t21.5 -21l20.5 -22.5t22 -20.5q20 -15 44.5 -14t38.5 25q5 8 12.5 14t16.5 2q15 -5 19.5 -8.5t18.5 -10.5z" />
    <glyph glyph-name="tilde" unicode="&#x2dc;" horiz-adv-x="508" 
d="M425 395q11 -4 14.5 -12.5t-1.5 -19.5q-9 -18 -20 -32.5t-25 -25.5q-15 -12 -32 -20t-36 -10q-3 0 -6 -0.5t-6 -0.5q-22 0 -39 7t-32 18t-29.5 23.5t-30.5 24.5q-8 6 -15.5 13.5t-15.5 14.5t-17.5 11.5t-19.5 3.5q-13 -1 -22.5 -10t-14.5 -20q-5 -8 -14 -13.5t-18 -2.5
q-15 5 -20 7.5t-20 7.5q-11 5 -15.5 17t0.5 22q9 19 21.5 33t26.5 25q15 11 32.5 19.5t36.5 10.5q23 2 43 -4t37 -14q13 -7 24 -17t21.5 -21l20.5 -22.5t22 -20.5q20 -15 44.5 -14t38.5 25q5 8 12.5 14t16.5 2q15 -5 19.5 -8.5t18.5 -10.5z" />
    <glyph glyph-name="currency" unicode="&#xa4;" horiz-adv-x="422" 
d="M345 277q8 -8 8 -18.5t-8 -18.5q-11 -11 -15.5 -14.5t-15.5 -13.5q-8 -8 -17 -8t-17 8q-7 8 -9 10l-10 10q-6 5 -14.5 6t-16.5 -1q-27 -11 -55 -11q-14 0 -28.5 1t-27.5 6q-8 3 -15.5 3.5t-12.5 -4.5q-8 -8 -10 -10.5t-9 -10.5q-8 -8 -17.5 -8t-17.5 8q-11 11 -14.5 15.5
t-14.5 15.5q-8 8 -8.5 17t7.5 17t10.5 9t10.5 9q5 6 5 14t-2 16q-5 13 -6.5 27t-1.5 29q0 14 0.5 28.5t5.5 27.5q3 8 3.5 15.5t-4.5 13.5l-10 10t-9 10q-8 8 -8.5 16.5t7.5 16.5q10 11 14.5 14.5t15.5 14.5q8 8 18 10t18 -6l20 -20q13 -11 26 -6t27 5.5t28 0.5q15 0 28 -3
t27 -8q7 -2 14.5 2t12.5 9q8 8 10.5 9.5t10.5 9.5t18.5 7.5t18.5 -8.5l30 -30q8 -8 7.5 -17.5t-8.5 -17.5l-20 -20q-5 -5 -7 -13.5t1 -16.5q5 -13 9 -26.5t4 -27.5q0 -15 -3.5 -28.5t-8.5 -27.5q-4 -12 8 -26q8 -8 9.5 -10.5t8.5 -10.5zM175 320q26 0 44.5 17t18.5 43
q0 25 -18.5 43.5t-44.5 18.5q-25 0 -43.5 -18.5t-18.5 -43.5q0 -26 18.5 -43t43.5 -17z" />
    <glyph glyph-name="guillemotright" unicode="&#xbb;" horiz-adv-x="360" 
d="M34 497q20 -19 38 -38t30 -40q16 -26 20 -56.5t-10 -67.5q-10 -28 -33.5 -48t-44.5 -40q-6 -6 -14 -6.5t-14.5 2.5t-11.5 9.5t-5 15.5v11.5t-0.5 8.5t-0.5 8.5v12.5q0 13 5.5 25.5t14.5 21.5q8 8 9.5 10.5t9.5 9.5q18 17 1 34q-8 7 -8.5 10.5t-8.5 10.5q-20 18 -20 44
v12.5t-0.5 8.5t-0.5 8.5v12.5q0 17 16 24t28 -4zM292 375q2 -16 2 -31t-2 -31q-3 -19 -12.5 -33t-21.5 -25t-25.5 -21.5t-26.5 -22.5t-28 -6t-15 23v11.5t0.5 8.5t0.5 8.5v12.5q0 13 4.5 26t13.5 22q8 7 11 8t11 9t8.5 19t-7.5 19q-8 7 -11 8t-11 8q-10 9 -14.5 21.5
t-4.5 25.5q0 8 -0.5 12.5t-1 8.5t-1 8.5t-0.5 12.5t5 14.5t12.5 10t16 3t14.5 -6.5q22 -21 41 -37.5t30 -39.5q11 -20 12 -46z" />
    <glyph glyph-name="guillemotleft" unicode="&#xab;" horiz-adv-x="375" 
d="M276 317q10 -9 13 -22t3 -26q0 -8 0.5 -12.5t1 -8.5t1 -8.5t0.5 -11.5q0 -9 -4.5 -15.5t-11.5 -9.5t-15 -2.5t-14 6.5q-17 16 -38 30t-33 33t-13 44t-2 46q-1 26 6 44.5t19 33.5t28 29l33 30q6 6 14.5 6.5t15.5 -2.5t12 -9.5t5 -14.5t-0.5 -12.5t-1 -8.5t-1 -8.5
t-0.5 -12.5q0 -26 -20 -44q-8 -8 -10 -9.5t-10 -9.5t-8 -20t8 -20q8 -7 11 -7.5t11 -7.5zM103 318q9 -9 14.5 -22.5t5.5 -26.5q0 -8 -0.5 -12.5t-1 -8.5t-1 -8.5t-0.5 -11.5q0 -17 -15.5 -24t-27.5 4q-13 12 -27 22.5t-26 22.5t-21 26t-12 32q-3 15 -3 30.5t1 30.5
q1 12 1.5 24t5.5 23q4 13 14 23t22 19t24 17t22 17q12 11 25.5 5t13.5 -23q0 -8 0.5 -12.5t0.5 -8.5t0.5 -8.5t0.5 -12.5q0 -27 -20 -45q-8 -7 -8.5 -10t-8.5 -11t-8 -17t8 -17q8 -7 10.5 -8.5t10.5 -8.5z" />
    <glyph glyph-name="guilsinglright" unicode="&#x203a;" horiz-adv-x="204" 
d="M125 405q5 -19 6 -39t-1 -37q-2 -23 -9.5 -39t-19.5 -29.5t-27 -25.5t-30 -26q-6 -6 -13.5 -7t-14.5 2t-11.5 9t-4.5 15v11.5t0.5 8.5t0.5 8.5v12.5q0 13 6 24t16 20q8 7 9 10t9 10q8 8 7.5 18.5t-8.5 18.5q-8 7 -9 10t-9 10q-20 18 -20 45q0 8 -0.5 12.5t-0.5 8.5
t-0.5 8.5t-0.5 12.5q0 17 15.5 23t27.5 -6q17 -16 38.5 -29.5t33.5 -34.5q7 -13 10 -25z" />
    <glyph glyph-name="guilsinglleft" unicode="&#x2039;" horiz-adv-x="211" 
d="M86 370q-8 -8 -9.5 -19t6.5 -19q8 -7 11 -8t11 -8q10 -9 14 -21.5t4 -25.5q0 -8 0.5 -12.5t1 -8.5t1 -8.5t0.5 -11.5q0 -9 -5 -15.5t-12 -9.5t-15 -2.5t-14 6.5q-13 12 -27 23t-26.5 23t-21.5 26t-12 33q-2 15 -1 30.5t3 31.5q2 23 10 39t20 29.5t26.5 25.5t30.5 27
q12 11 28.5 5t16.5 -23v-12.5t-0.5 -8.5t-0.5 -8.5v-12.5q0 -27 -20 -47l-20 -18v0z" />
    <glyph glyph-name="less" unicode="&#x3c;" horiz-adv-x="493" 
d="M397 166q0 -11 1 -17.5t1.5 -12.5t1.5 -12.5t1 -17.5t-10 -15t-20 1q-13 8 -21.5 11.5l-15.5 6.5t-15.5 6t-21.5 11q-14 7 -21.5 12l-13.5 9t-14 8.5t-21 12.5l-20.5 12.5l-14.5 8.5l-14.5 8.5l-20.5 12.5q-14 7 -22 11.5t-14.5 7.5l-14.5 7t-21 12l-21.5 12.5l-14 8.5
l-14 8.5l-20.5 12.5q-11 7 -11 22t-1 23.5t-1.5 15.5t-1.5 15.5t-1 23.5q0 7 5 13t11 10q13 7 20.5 11.5l14.5 8.5l14.5 8l21.5 12q13 7 20.5 11.5l14.5 8.5l14.5 8l21.5 12l21 11.5l14.5 8l14.5 7.5t21 12t20.5 13l14 9l14 8.5l21.5 12.5q13 7 20.5 12t14.5 8.5t14.5 8
l20.5 12.5q10 5 20.5 -1.5t10.5 -17.5t-0.5 -17.5t-0.5 -12.5t-0.5 -12.5t-0.5 -17.5q0 -7 -3 -13.5t-9 -9.5q-15 -8 -23.5 -13t-16 -8.5t-16 -8.5t-23.5 -13t-23.5 -13t-16 -8.5t-16 -8.5t-23.5 -13l-23.5 -14l-16 -9.5l-15.5 -9.5t-23 -13q-17 -11 -17 -31t17 -30
q15 -8 23 -13.5t15.5 -10t15.5 -10t23 -13.5t23.5 -13t16 -9t16 -9t23.5 -13t23.5 -13t16 -8.5t16 -8.5t23.5 -13q12 -8 12 -22z" />
    <glyph glyph-name="greater" unicode="&#x3e;" horiz-adv-x="488" 
d="M384 411q6 -4 11.5 -8.5t5.5 -11.5q0 -15 -1 -23.5t-1.5 -15.5t-1.5 -15.5t-1 -23.5q0 -14 -11 -21l-21.5 -12.5l-14 -8.5l-14 -9t-20.5 -12l-21.5 -12l-14.5 -8l-14.5 -8.5t-20.5 -11.5l-21.5 -12l-14.5 -7.5t-15 -8l-21 -11.5l-20.5 -12.5t-13.5 -9t-14 -9.5t-21 -12
q-13 -8 -21 -12.5l-14.5 -8l-14.5 -8l-21 -11.5q-10 -5 -18.5 1t-8.5 17v17.5t0.5 12.5t0.5 12.5v17.5q0 14 11 20l23 14l15.5 10l15.5 10l23 14q15 8 23.5 13l15.5 9.5l15.5 9.5t23.5 13l23.5 12.5t16.5 8t16.5 8l23.5 12.5q17 11 16.5 31.5t-17.5 30.5q-15 9 -23.5 13.5
t-16.5 8t-16.5 8l-23.5 12.5t-23 13l-15.5 9.5t-15.5 10t-23 13.5l-23 14l-15.5 9.5l-16 9.5l-23.5 14q-6 3 -11 8.5t-5 12.5q0 11 0.5 17.5l1 12.5l1 12.5t0.5 17.5t9 16t18 0q13 -8 21.5 -12l15 -7t14.5 -7.5t22 -11.5q13 -8 21 -12l14.5 -7.5l14.5 -8l21 -11.5
q13 -8 20.5 -13t13.5 -9.5l13.5 -10t20.5 -12.5q13 -8 21.5 -12t15 -7.5l14.5 -8l21 -11.5l20.5 -12.5l14.5 -8.5t14.5 -9t20.5 -12z" />
    <glyph glyph-name="at" unicode="@" horiz-adv-x="809" 
d="M730 555q0 -17 -0.5 -27t-1.5 -18t-1.5 -18t-0.5 -26q0 -17 0.5 -27t1 -18t1 -18t0.5 -26q0 -17 -0.5 -27t-1 -18t-1 -18t-0.5 -27v-26.5t-0.5 -17.5t-0.5 -18v-27q0 -28 -2.5 -50.5t-7.5 -41.5q-15 -58 -42 -82q-21 -19 -44.5 -24t-42.5 -5q-20 0 -36.5 5.5t-30.5 14.5
q-15 9 -28 21.5t-22 28.5q-13 26 -36 40t-51 14q-1 0 -1 -1q-11 0 -17.5 -0.5t-12.5 -0.5t-12.5 -0.5t-17.5 -0.5q-21 0 -41.5 6t-37.5 17q-17 10 -30 26t-23 34q-11 17 -19 36t-8 40v92q0 17 1 27t2 19t2 19t1 27q0 43 19 77q11 18 24 34t31 27q35 20 79 20q11 0 17.5 -0.5
l12.5 -1l12.5 -1t17.5 -0.5q34 0 61 -10q1 8 7.5 12.5t15.5 4.5h46q23 0 23 -23q0 -15 0.5 -24t1.5 -16.5t1.5 -16.5t0.5 -24v-81v-24t0.5 -16.5t0.5 -16.5v-24t-0.5 -24t-1 -16.5t-1 -16.5t-0.5 -24t0.5 -24t1.5 -17t1.5 -17t0.5 -24q0 -40 7 -61q8 -28 19.5 -36t19.5 -8
q3 0 9 1t12.5 5t12.5 13t10 26q3 11 5.5 27.5t2.5 38.5q0 17 -0.5 27t-1 18t-1 17.5t-0.5 26.5v27t-0.5 18t-0.5 18v27v89q0 16 0.5 26t0.5 18t0.5 18t0.5 27q0 20 -5.5 38t-12.5 35q-16 36 -40 62q-25 25 -63 41q-35 16 -73 16q-14 0 -22.5 -0.5t-15.5 -0.5t-15.5 -0.5
t-23.5 -0.5t-23.5 1t-15.5 1.5t-15.5 1.5t-22.5 1q-20 0 -38.5 -5.5t-35.5 -12.5q-17 -8 -33 -17.5t-29 -23.5q-27 -27 -42 -63q-7 -17 -9.5 -35t-2.5 -38q0 -17 -0.5 -27t-1.5 -18t-1.5 -18t-0.5 -26q0 -17 0.5 -27t1.5 -18t1.5 -18t0.5 -26v-27t-0.5 -18t-0.5 -18v-27
t0.5 -26.5t0.5 -17.5t0.5 -18t0.5 -27q0 -40 13 -72q8 -18 18 -33t23 -29q28 -28 62 -42q17 -7 35 -11t38 -4h19t13 -0.5t13 -0.5h19h19t13 -0.5t13 -0.5h19q11 0 17 -7t6 -18q0 -8 0.5 -12.5t1 -8.5t1 -8.5t0.5 -12.5q0 -11 -7.5 -19.5t-18.5 -8.5q-12 0 -19 0.5t-13 1.5
t-13 1.5t-19 0.5t-19 -0.5t-13 -1t-13 -1t-19 -0.5q-45 0 -89 14q-22 8 -40.5 19.5t-36.5 25.5q-19 13 -35.5 27.5t-30.5 32.5q-13 18 -23.5 38t-17.5 41t-8.5 43.5t-1.5 45.5q0 17 -0.5 27t-1 18t-1 17.5t-0.5 26.5v27t0.5 18t0.5 18v27q0 16 -0.5 26t-1 18t-1 18t-0.5 27
v26t0.5 18t0.5 18v27q0 49 13 89q7 22 16.5 42.5t23.5 38.5q13 18 30 33t35 29q37 28 80 41q21 7 43.5 11t45.5 4q14 0 22.5 -0.5t15.5 -0.5t15.5 -0.5t23.5 -0.5t23.5 0.5t15.5 0.5t15.5 0.5t22.5 0.5q47 0 89 -14q22 -8 41.5 -19.5t37.5 -24.5q18 -14 34 -29t30 -33
q13 -18 23.5 -38t17.5 -42q7 -20 11 -42.5t4 -45.5zM444 367v27t-0.5 19t-1 19t-0.5 27q0 26 -17.5 44t-43.5 18h-17.5t-12.5 -0.5t-12.5 -0.5h-17.5q-26 0 -42.5 -17.5t-16.5 -43.5q0 -17 -0.5 -27t-0.5 -19t-0.5 -19t-0.5 -27v-92q0 -26 17.5 -43t43.5 -17q11 0 17.5 -0.5
t12.5 -0.5t12.5 -0.5t17.5 -0.5q26 0 43 18t17 44q0 17 0.5 27t1 19t1 19t0.5 27z" />
    <glyph glyph-name="numbersign" unicode="#" horiz-adv-x="567" 
d="M468 523q12 0 19.5 -11.5t5.5 -22.5q-2 -8 -2.5 -12.5t-1 -8.5t-1.5 -9t-2 -13q-2 -8 -11 -14.5t-18 -6.5q-11 0 -22.5 0.5t-21.5 -2t-18.5 -9t-13.5 -19.5q-7 -17 0 -35.5t23 -26.5q6 -3 17 -5t21.5 -5.5t17 -9.5t3.5 -18q-2 -8 -3.5 -12.5t-2.5 -8.5t-2.5 -8.5
t-3.5 -12.5q-2 -9 -9 -14t-16 -5q-15 0 -31.5 -2t-30.5 -9t-21 -17t-10 -21t-3.5 -23.5t-3.5 -25.5q-2 -9 -10 -16t-17 -7q-8 0 -13 1t-9 1.5t-9 1.5t-13 1q-12 0 -21 9t-6 21q1 8 3 12.5l3.5 8t3 8.5t3.5 13q4 16 -5 26.5t-22 13.5t-26 -3t-16 -22q-3 -13 -4.5 -20.5
t-2.5 -14t-2.5 -14t-4.5 -20.5q-2 -9 -10 -16t-17 -7q-8 0 -12.5 1t-8.5 1.5t-9 1.5t-13 1q-12 0 -19 8.5t-5 20.5q3 12 4.5 18.5t3 12t3 12.5t4.5 19q2 9 -5 17t-17 8q-12 0 -16 -1t-16 -1t-19.5 10t-4.5 22q1 8 2.5 12.5t3 8t2.5 8.5t3 13q5 18 22 18q8 0 15 1.5t15 3.5
q8 1 17 1t16 7q4 4 5 9.5t3 10.5q4 11 10 21t4 21q-2 10 -9 15.5t-16 8.5t-19 3.5t-18 0.5q-12 0 -18.5 9t-3.5 21q1 8 1.5 12.5t0.5 9t0.5 9.5t2.5 13t9.5 12.5t16.5 4.5q10 0 16 1t11 1.5t11 1.5t16 1t19 5t11 15q3 15 4.5 24t2 16.5t2 16.5t4.5 24q2 8 10 12t17 4
q8 0 13 1t9 2.5t8.5 2.5t12.5 1q13 0 19 -11t4 -23q-3 -12 -4 -19.5t-1.5 -14t-1.5 -14t-4 -19.5q-4 -18 8.5 -23.5t26.5 -4.5q6 0 11.5 1t10.5 5q9 6 13.5 18.5t7.5 27.5t4.5 29.5t3.5 23.5t10 13.5t17 4.5h12.5t8.5 0.5t9 0.5h13q12 0 21 -9t6 -21q-2 -9 -4 -14.5
l-3.5 -10l-3.5 -10t-4 -14.5t1.5 -18t9.5 -16q14 -12 29 -9q4 1 7.5 2t7.5 1zM281 379q2 14 -3.5 26t-18.5 18q-17 8 -30.5 0.5t-17.5 -24.5q-2 -8 -2 -13v-9.5t-0.5 -9.5t-2.5 -14q-2 -10 1 -15t9.5 -7.5t14 -2.5t14.5 1q2 1 5 1q7 1 13.5 4t10.5 9q2 4 4 14q1 6 1.5 11.5
t1.5 10.5z" />
    <glyph glyph-name="asterisk" unicode="*" horiz-adv-x="379" 
d="M287 573q8 2 13.5 -2t5.5 -11q0 -8 -2 -10t-2 -10q0 -7 -4 -13t-11 -4q-8 2 -16 4.5t-14 3.5q-9 2 -19.5 2t-21.5 1q-8 1 -12 -7t2 -13q8 -8 16.5 -14.5t16.5 -11.5l11 -9t13 -10q14 -9 5 -20l-14 -14q-5 -5 -13 -4.5t-13 5.5q-4 7 -7.5 14.5t-7.5 12.5q-5 8 -11 16.5
t-14 16.5q-5 7 -13.5 3t-7.5 -12q1 -11 1 -21.5t1 -20.5q2 -5 2.5 -13.5t2.5 -16.5q3 -15 -12 -15q-7 0 -9 -1.5t-10 -1.5t-13.5 6t-3.5 13q2 8 6 16t5 13q2 9 0.5 20t-0.5 22q0 8 -6 10.5t-11 -3.5q-8 -9 -16.5 -15t-13.5 -14q-4 -5 -7 -12.5t-8 -14.5q-4 -6 -10.5 -6
t-11.5 5t-8 5.5t-8 5.5t-3 11t8 11q7 4 13 9.5t11 8.5l16 12.5t16 14.5q7 5 3 14.5t-12 8.5q-11 -1 -21.5 -2.5t-19.5 -2.5q-6 -1 -13.5 -4.5t-15.5 -5.5q-7 -2 -13 4t-6 13v20q0 7 5.5 12.5t12.5 3.5q8 -2 16 -5.5t13 -4.5q10 -2 20.5 -1.5t22.5 -0.5q8 -1 10.5 6.5
t-3.5 13.5q-9 7 -16 14.5t-15 13.5q-5 3 -11.5 8.5t-12.5 9.5q-13 10 -4 21q5 5 6 8t6 8t12 2.5t11 -8.5l10 -12.5t8 -11.5q6 -8 11.5 -16.5t13.5 -17.5q5 -6 13.5 -2t7.5 12q-1 11 -1.5 22t-2.5 20q-1 5 -1.5 13.5t-2.5 16.5q-2 7 2 14t12 7t10 -0.5t9 -0.5q8 0 13.5 -6.5
t3.5 -14.5l-4 -16t-3 -13q-2 -9 -3 -19.5t-2 -22.5q-1 -8 7.5 -11.5t13.5 2.5q8 8 15 16t12 16q4 5 7 13t7 15q4 5 12 5.5t13 -4.5t6.5 -7.5t6.5 -7.5t4.5 -11.5t-6.5 -10.5q-6 -5 -13 -9.5l-12 -7.5q-8 -6 -15.5 -13l-15.5 -15q-7 -5 -4 -13t11 -7q11 1 21.5 3.5l19.5 4.5
q5 1 13.5 0.5t16.5 1.5z" />
    <glyph glyph-name="asciicircum" unicode="^" horiz-adv-x="450" 
d="M366 431q3 -8 -0.5 -15t-11.5 -7q-12 0 -19 1t-13 1.5t-12.5 1.5t-18.5 1q-8 0 -15 1.5t-10 8.5l-9.5 20.5t-6 14l-5.5 14t-9 20.5l-9.5 19.5l-6.5 14l-6.5 14l-9.5 19.5q-5 11 -18.5 10.5t-18.5 -11.5q-6 -13 -9 -20.5t-6 -14l-6.5 -14l-9.5 -19.5q-6 -13 -10 -20
l-7.5 -13t-8 -13t-10.5 -20q-3 -6 -8.5 -11.5t-13.5 -5.5q-12 0 -19 0.5t-13 1.5t-12.5 1.5t-18.5 0.5q-8 0 -12.5 6t-1.5 13l12.5 25.5l8 17.5l8 17.5l12.5 25.5l12.5 25.5t9 17t9 17l12.5 25.5l11.5 25.5l8.5 17.5l8.5 17l12.5 25q3 7 9 12t14 5h20.5t14.5 0.5t14.5 0.5
h21.5q8 0 12.5 -6t8.5 -13q7 -16 12.5 -25l10 -16.5l10 -16.5t13.5 -25t12 -25.5l7.5 -17.5t7 -17.5t11.5 -25.5l12.5 -25.5t8 -18t8 -17.5z" />
    <glyph glyph-name="circumflex" unicode="&#x2c6;" horiz-adv-x="450" 
d="M366 431q3 -8 -0.5 -15t-11.5 -7q-12 0 -19 1t-13 1.5t-12.5 1.5t-18.5 1q-8 0 -15 1.5t-10 8.5l-9.5 20.5t-6 14l-5.5 14t-9 20.5l-9.5 19.5l-6.5 14l-6.5 14l-9.5 19.5q-5 11 -18.5 10.5t-18.5 -11.5q-6 -13 -9 -20.5t-6 -14l-6.5 -14l-9.5 -19.5q-6 -13 -10 -20
l-7.5 -13t-8 -13t-10.5 -20q-3 -6 -8.5 -11.5t-13.5 -5.5q-12 0 -19 0.5t-13 1.5t-12.5 1.5t-18.5 0.5q-8 0 -12.5 6t-1.5 13l12.5 25.5l8 17.5l8 17.5l12.5 25.5l12.5 25.5t9 17t9 17l12.5 25.5l11.5 25.5l8.5 17.5l8.5 17l12.5 25q3 7 9 12t14 5h20.5t14.5 0.5t14.5 0.5
h21.5q8 0 12.5 -6t8.5 -13q7 -16 12.5 -25l10 -16.5l10 -16.5t13.5 -25t12 -25.5l7.5 -17.5t7 -17.5t11.5 -25.5l12.5 -25.5t8 -18t8 -17.5z" />
    <glyph glyph-name="lslash" unicode="&#x142;" horiz-adv-x="398" 
d="M391 72q4 -5 4 -12v-13q-1 -8 -1.5 -15t-0.5 -15q-1 -5 -1.5 -10t-4.5 -9q-4 -5 -10 -5.5t-11 -1.5q-55 -2 -109.5 0.5t-109.5 -3.5q-9 -1 -19 -1.5t-19 2.5q-13 5 -18 14.5t-5 22.5q-1 26 -1.5 52t-1.5 52q0 10 1 22.5t1 25.5t-1.5 25.5t-6.5 21.5q-4 7 -9 8.5t-10.5 1
t-11.5 -1.5t-12 1q-8 3 -12.5 10t-7.5 14q-6 11 -10.5 23t0.5 23q7 16 24 21t31 15q11 8 17 19.5t8 24.5q2 14 1.5 26.5t-1.5 25.5q-3 48 -4 95t0 95q0 9 -0.5 21.5t-0.5 25.5t1 25t5 20q3 7 11 11t17 5.5t18.5 1.5t16.5 -1q5 -1 9 -2t8 -4q8 -5 9 -15t1 -19l-2 -124
l-2 -124q0 -9 1.5 -18t9.5 -12q6 -2 11 -0.5t10.5 4.5l10.5 6t11 5q8 2 16.5 -2t14.5 -11q6 -6 9.5 -14.5t6.5 -16.5q5 -11 4 -20q-2 -8 -7.5 -13t-11.5 -9l-27 -19l-27 -19l-13.5 -9.5t-10.5 -12.5q-3 -7 -4 -14t-1 -15q-1 -27 -1.5 -53.5t-1.5 -53.5v-10t1 -10
q1 -15 9 -27q11 -14 30 -16t37 -1q57 1 115 -3q8 -1 15.5 -3t12.5 -8z" />
    <glyph glyph-name="a" unicode="a" 
d="M399 33q2 -12 -6 -22.5t-21 -10.5q-8 0 -12.5 0.5t-8.5 1.5t-8.5 1.5t-12.5 0.5q-18 0 -23 18q-3 15 -4.5 23.5t-3 15.5t-3 15.5t-4.5 22.5q-3 15 -5 23.5t-3.5 15.5t-3.5 15.5t-5 22.5q-4 17 -18 27.5t-31 10.5q-10 0 -16 0.5t-11 0.5t-11 0.5t-16 0.5
q-17 0 -27.5 -12.5t-14.5 -28.5q-3 -15 -5.5 -23t-5.5 -15t-6 -15t-6 -23q-3 -14 -4 -22.5t-1.5 -16t-1.5 -16t-4 -23.5q-2 -9 -10 -15.5t-18 -6.5q-8 0 -12.5 -0.5t-8.5 -0.5t-9 -0.5t-13 -0.5q-12 0 -19.5 12t-4.5 24q3 16 5.5 25.5t4 17.5t4 17.5t5.5 25.5t5.5 25.5
t5 17.5t5 17.5t5.5 25.5q4 16 5 26t2 18.5t2 18t4 25.5l6.5 25.5t5 17.5l5.5 17.5t6 25.5q4 16 5.5 26t3 18t3 17.5t4.5 26.5q3 16 5 25.5t3 18t3 18t5 25.5l6.5 25.5t5 17.5t5 17.5t5.5 25.5l5 26l3.5 18t3 17.5t5.5 25.5q2 9 10 16.5t17 7.5t14 -0.5t9.5 -1.5t10 -1.5
t14.5 -0.5q19 0 24 -20q3 -17 6 -26t6 -17t6 -17.5t6 -25.5t4 -26t2 -18t2 -18t4 -26q4 -16 7 -25.5t6 -17.5t6 -17.5t6 -25.5t5 -25.5t4 -17.5t4 -17.5t6 -25.5q3 -17 5 -26.5t3.5 -17.5t3.5 -17.5t6 -25.5q3 -17 4 -26.5t2 -18t2 -18t4 -25.5q4 -17 7 -26t6 -17t6 -17.5
t6 -25.5t5 -25.5t3.5 -18t3.5 -18t5 -25.5zM212 310q12 0 18 7t4 19q-3 13 -4 20.5t-1 14.5t-0.5 14.5t-3.5 20.5t-5.5 20l-5 13.5l-5 13.5t-5.5 20q-2 7 -6 7t-6 -7q-3 -13 -4.5 -20.5t-3 -13.5t-3 -13.5t-4.5 -20.5t-5 -20l-4 -13.5t-4 -14t-5 -20.5q-2 -12 6.5 -20
t20.5 -8q10 0 13 0.5t13 0.5z" />
    <glyph glyph-name="b" unicode="b" horiz-adv-x="484" 
d="M401 268q0 -23 0.5 -36t0.5 -24t0.5 -24t0.5 -35t-4 -42t-14 -37q-11 -18 -25 -33.5t-32 -25.5q-17 -11 -37.5 -13t-42.5 -2q-14 0 -22 -1t-15 -2t-15 -2t-21 -1q-14 0 -22 0.5t-15 1t-15 1t-22 0.5t-22 0.5t-15 1t-15 1t-22 0.5q-11 0 -19 5.5t-8 16.5v27t0.5 18
t0.5 17.5v26.5v27t-0.5 18t-0.5 17.5v26.5t0.5 27t1.5 18t1.5 18t0.5 27q0 16 -0.5 26t-1.5 18t-1.5 18t-0.5 27v89q0 16 0.5 26t1.5 18t1.5 18t0.5 27q0 16 -0.5 26t-1.5 18t-1.5 18t-0.5 27q0 16 0.5 26t1 18t1 18t0.5 27q0 11 6.5 19t17.5 8q18 0 28 -0.5t19 -0.5
t19 -0.5t27 -0.5h28t19 0.5t19 0.5h28q21 0 40 -7t36 -17q18 -11 34 -23.5t27 -29.5q10 -17 16.5 -37.5t6.5 -41.5v-33.5t0.5 -23.5t0.5 -23.5v-33.5q0 -26 -12.5 -49t-26.5 -43q15 -11 27 -25.5t21 -31.5q8 -17 12.5 -33.5t4.5 -36.5zM96 616q0 -14 -0.5 -21.5t-0.5 -14.5
t-0.5 -15t-0.5 -21v-21.5t0.5 -14.5t0.5 -15v-22q0 -20 13.5 -35t33.5 -15q13 0 21 1t15 2l14.5 2t21.5 1q26 0 42.5 17t16.5 43v33.5t-0.5 23.5t-0.5 23.5v33.5q0 26 -16 46t-42 20h-21.5t-14.5 -0.5t-15 -1t-21 -1.5q-20 0 -33 -14t-13 -34zM248 91q26 0 46.5 16t20.5 42
v35t-0.5 24.5t-1 24.5t-1.5 35q0 26 -19 44t-45 18q-20 0 -31.5 0.5t-21.5 0.5t-21.5 0.5t-31.5 0.5t-33.5 -14t-13.5 -34q0 -14 -0.5 -22.5t-1 -15.5t-1 -15.5t-0.5 -22.5t1 -22t1.5 -15t1.5 -15.5t1 -22.5q0 -20 12.5 -31.5t32.5 -11.5h31.5t21.5 0.5t21.5 0.5h31.5z" />
    <glyph glyph-name="c" unicode="c" 
d="M365 150q12 0 19.5 -10t4.5 -22q-6 -38 -27 -66t-56 -44q-16 -8 -33 -11.5t-36 -3.5q-14 0 -22.5 -1t-15.5 -1.5t-15.5 -1.5t-23.5 -1q-21 0 -41.5 6t-37.5 16q-18 11 -29.5 28t-22.5 35q-20 35 -20 76q0 17 -0.5 27t-1.5 18t-1.5 18t-0.5 27t-0.5 27t-1 18t-1 18
t-0.5 27t-0.5 27t-0.5 18.5t-0.5 18.5t-0.5 27v90v91q0 21 9 40t20 36q10 17 23.5 31.5t31.5 25.5q17 10 36 18.5t40 8.5q15 0 23.5 -0.5t15.5 -0.5t15.5 -0.5t22.5 -0.5q19 0 35.5 -6t32.5 -14t31.5 -18t26.5 -24q22 -29 30 -65q2 -12 -7 -22.5t-21 -10.5q-8 0 -13 -0.5
t-9 -0.5t-9 -0.5t-13 -0.5t-17 6t-11 14q-6 20 -20.5 32.5t-35.5 12.5h-77q-26 0 -45 -17.5t-19 -43.5q0 -17 -0.5 -27t-0.5 -18.5t-0.5 -18.5t-0.5 -27t0.5 -27t0.5 -18t0.5 -18t0.5 -27t-0.5 -27t-0.5 -18.5t-0.5 -18.5t-0.5 -27t0.5 -27t1.5 -18t1.5 -18t0.5 -27t0.5 -27
t0.5 -18t0.5 -18t0.5 -27q0 -26 17 -44.5t43 -18.5q15 0 23.5 -0.5t15.5 -1.5t15.5 -1.5t22.5 -0.5q21 0 38.5 14t23.5 34q2 8 8 14.5t14 6.5h13t9 -0.5t9 -0.5h13z" />
    <glyph glyph-name="d" unicode="d" horiz-adv-x="484" 
d="M402 420q0 -17 0.5 -27t0.5 -18.5t0.5 -18.5t0.5 -27v-90q0 -17 -0.5 -27t-1.5 -18t-1.5 -18t-0.5 -27q0 -22 -7.5 -41t-17.5 -36q-22 -36 -55 -56q-17 -10 -36 -17t-41 -7q-14 0 -21.5 0.5t-14.5 0.5t-14.5 0.5t-20.5 0.5h-72q-13 0 -20.5 0.5l-14.5 1t-15 1t-21 0.5
q-11 0 -17.5 5t-6.5 16q0 17 -0.5 27t-0.5 18t-0.5 17.5t-0.5 26.5t-0.5 27t-1 18t-1 17.5t-0.5 26.5t0.5 27t1 18t1 18t0.5 27q0 16 0.5 26t1 18t1 18t0.5 27q0 16 -0.5 26t-1 18t-1 18t-0.5 27q0 16 -0.5 26t-1 18t-1 18t-0.5 27q0 16 0.5 26t0.5 18t0.5 18t0.5 27v89
q0 11 8 18.5t19 7.5h71q13 0 21 -1t15 -1.5t14.5 -1.5t21.5 -1q13 0 20.5 0.5t14.5 1.5t14.5 1.5t21.5 0.5q22 0 41.5 -5.5t36.5 -15.5q17 -11 33 -24t27 -31q10 -17 15.5 -37.5t5.5 -41.5v-91v-90zM308 420q0 17 0.5 27t0.5 18t0.5 18t0.5 27t-0.5 27t-0.5 18.5t-0.5 18.5
t-0.5 27q0 26 -19.5 44t-45.5 18q-18 0 -29 -0.5t-20 -1t-20 -1t-30 -0.5q-20 0 -34 -12t-14 -32q0 -15 -0.5 -24t-0.5 -16.5t-0.5 -16.5t-0.5 -24t0.5 -24t0.5 -16.5t0.5 -16t0.5 -23.5t0.5 -24t1 -16.5t1 -16t0.5 -23.5t-0.5 -24t-0.5 -16.5t-0.5 -16.5t-0.5 -24v-80v-81
q0 -20 13.5 -33.5t33.5 -13.5q19 0 30 -0.5t20 -1.5t20 -1.5t29 -0.5q26 0 44.5 20.5t18.5 46.5v27t-0.5 18t-0.5 18v27t0.5 27t0.5 18t0.5 18t0.5 27v27t0.5 18.5t0.5 18.5v27z" />
    <glyph glyph-name="e" unicode="e" horiz-adv-x="422" 
d="M312 99q11 0 18 -9.5t7 -20.5v-12.5t-0.5 -8.5t-0.5 -8.5v-12.5q0 -11 -6.5 -16.5t-17.5 -5.5q-17 0 -26.5 -0.5t-17.5 -1.5t-18 -1.5t-26 -0.5q-17 0 -29.5 0.5t-24 1.5t-24.5 1.5t-29 0.5q-17 0 -26.5 -1t-17.5 -2t-18 -2t-26 -1q-11 0 -19.5 8.5t-8.5 19.5
q0 16 0.5 26t1.5 18t1.5 17.5t0.5 25.5t-0.5 25.5t-1 17.5t-1 17.5t-0.5 26.5q0 16 1 25.5t2 17.5t2 17.5t1 26.5q0 16 -1 25.5t-1.5 17.5t-1.5 17.5t-1 25.5v26t0.5 18t0.5 17.5v25.5t-0.5 26t-1.5 18t-1.5 17.5t-0.5 25.5t1 25.5t2.5 17.5t2.5 17.5t1 26.5v87
q0 11 5.5 19.5t16.5 8.5h26t18 0.5t17.5 0.5h26.5q16 0 29 -1t24.5 -2.5t24 -2.5t29.5 -1h26t18 0.5t17.5 0.5h26.5q11 0 19.5 -6t8.5 -17q0 -8 0.5 -12.5t0.5 -8.5t0.5 -8.5t0.5 -12.5q0 -11 -9.5 -18t-20.5 -7q-14 0 -22.5 -0.5t-15.5 -1.5t-15 -1.5t-22 -0.5
q-28 0 -46.5 3t-46.5 3q-20 0 -32.5 -15t-12.5 -35q0 -14 -1 -22.5t-1.5 -15.5t-1.5 -15.5t-1 -23.5v-22.5t-0.5 -15.5t-0.5 -15.5v-23.5q0 -20 15.5 -32t35.5 -12q19 0 34.5 0.5t35.5 0.5q11 0 16 -9t5 -20q0 -8 1 -12.5t2.5 -8.5t2.5 -8.5t1 -12.5q0 -11 -8.5 -19
t-19.5 -8q-20 0 -35.5 2t-34.5 2q-20 0 -34 -15t-14 -35q0 -23 -0.5 -36.5t-1 -25.5t-1 -25.5t-0.5 -36.5q0 -20 15.5 -35t35.5 -15q28 0 46.5 1t46.5 1q14 0 22 1t15 1.5t15.5 1.5t22.5 1z" />
    <glyph glyph-name="f" unicode="f" horiz-adv-x="422" 
d="M347 722q0 -8 1 -12.5t1.5 -8.5t1.5 -8.5t1 -12.5q0 -11 -9.5 -18t-20.5 -7q-14 0 -22 -1t-15 -1.5t-15 -1.5t-22 -1q-29 0 -52 4t-51 4q-20 0 -32 -15.5t-12 -35.5v-27t0.5 -18.5t0.5 -18.5v-27v-91q0 -20 11.5 -35t31.5 -15t40 1.5t39 1.5q11 0 20.5 -7.5t9.5 -18.5
q0 -8 -1.5 -12l-3 -8t-2.5 -8.5t-1 -12.5q0 -24 -22 -24q-19 0 -39 -1t-40 -1t-33.5 -13.5t-13.5 -33.5q0 -13 0.5 -20.5t1.5 -14.5t1.5 -14.5t0.5 -20.5t-1.5 -20.5l-3 -14.5t-2.5 -15t-1 -21t1 -20.5t2.5 -14.5l3 -14.5t1.5 -20.5q0 -11 -9.5 -17.5t-20.5 -6.5
q-8 0 -12.5 -0.5t-8.5 -0.5t-8.5 -0.5t-12.5 -0.5q-11 0 -16 7.5t-5 18.5q0 16 -1.5 26t-3 18t-3 17.5t-1.5 25.5v87q0 16 1 25.5t2.5 17.5t2.5 17.5t1 26.5v86q0 16 -1 26t-1.5 18t-1.5 17.5t-1 25.5t0.5 26t0.5 18t0.5 17.5t0.5 25.5t1 25.5t1.5 17.5t1.5 17.5t1 26.5
q0 16 -0.5 25.5t-1.5 17.5t-1.5 17.5t-0.5 26.5q0 11 7 16t18 5q16 0 26 1t18 2.5t17.5 2.5t26.5 1q33 0 58 -3.5t58 -3.5q16 0 26 1t18 1.5t17.5 1.5t26.5 1q11 0 18 -7.5t7 -18.5z" />
    <glyph glyph-name="g" unicode="g" horiz-adv-x="507" 
d="M428 244v-28.5t0.5 -19.5t0.5 -19v-28q0 -45 -20 -80q-11 -17 -26.5 -30.5t-33.5 -24.5q-17 -10 -36.5 -16.5t-40.5 -6.5h-33.5t-23.5 0.5t-23.5 0.5h-33.5q-22 0 -41.5 6t-36.5 16q-17 11 -30.5 26t-24.5 32q-10 17 -16 36t-6 41q0 17 0.5 27t0.5 18t0.5 18t0.5 27v27
t0.5 18t0.5 18v27t-1 27t-2 18.5t-2 18.5t-1 27t0.5 27t1 18t1 18t0.5 27v91q0 40 22 76q10 18 23 34t30 27q17 10 37.5 13t42.5 3q21 0 33.5 0.5t23.5 1.5t23.5 1.5t33.5 0.5q18 0 36 -3.5t34 -11.5t28.5 -21t23.5 -27t20.5 -29.5t13.5 -33.5q2 -12 -7 -23t-22 -11
q-8 0 -12.5 0.5t-8.5 1t-9 1t-13 0.5q-17 0 -24 18q-5 19 -22 30.5t-38 11.5t-33.5 -0.5t-23.5 -0.5t-23.5 -0.5t-33.5 -0.5q-26 0 -44 -16t-18 -42v-27t0.5 -18.5t0.5 -18.5v-27v-27t-0.5 -18t-0.5 -18v-27v-27t0.5 -18.5t0.5 -18.5v-27v-27t0.5 -18t0.5 -18v-27t-1 -27
t-1.5 -18t-1.5 -18t-1 -27q0 -26 19.5 -42.5t45.5 -16.5h33.5t23.5 -0.5t23.5 -0.5h33.5q26 0 45 17t19 43q0 14 -0.5 22.5t-1.5 15.5t-1.5 15t-0.5 22q0 20 -12.5 33.5t-32.5 13.5q-15 0 -24 0.5t-16.5 1.5t-16 1.5t-23.5 0.5q-11 0 -19 5.5t-8 16.5q0 8 -0.5 12.5
t-0.5 8.5t-0.5 8.5t-0.5 12.5q0 11 9 18t20 7h29t20 0.5t20 0.5h29t28.5 -0.5t19.5 -0.5t20 -0.5t29 -0.5q11 0 18 -6.5t7 -17.5v-28t0.5 -19t0.5 -19.5v-28.5z" />
    <glyph glyph-name="h" unicode="h" horiz-adv-x="479" 
d="M386 201q0 -17 1 -26.5t2.5 -17.5t3 -17.5t1.5 -25.5t-0.5 -25.5t-0.5 -17.5t-0.5 -18t-0.5 -26q0 -11 -8.5 -16.5t-19.5 -5.5q-8 0 -12.5 -1t-8.5 -1.5t-8.5 -1.5t-12.5 -1q-11 0 -17 8t-6 19v22.5t-0.5 15.5t-0.5 15.5v23.5q0 14 0.5 22.5t1 15.5t1 15.5t0.5 22.5
t-1 22.5t-1.5 15.5t-1.5 15.5t-1 22.5q0 20 -13.5 34t-32.5 14q-20 0 -31.5 -0.5t-21.5 -1.5t-21.5 -1.5t-30.5 -0.5q-20 0 -33.5 -12t-13.5 -32v-22.5t-0.5 -15.5t-0.5 -15.5v-22.5t0.5 -22.5t1.5 -15.5t1.5 -15.5t0.5 -22.5q0 -15 -0.5 -23.5t-1.5 -15.5t-1.5 -15.5
t-0.5 -22.5q0 -11 -7 -19.5t-18 -8.5h-12.5t-8.5 0.5t-8.5 0.5h-12.5q-11 0 -17.5 8t-6.5 19q0 16 -0.5 26t-1.5 18t-1.5 17.5t-0.5 25.5t0.5 25.5t1 17.5t1 17.5t0.5 26.5q0 16 -1 25.5t-1.5 17.5t-1.5 17.5t-1 26.5q0 16 1 25.5t2.5 17.5t3 17.5t1.5 25.5t-0.5 26t-0.5 18
t-0.5 17.5t-0.5 25.5v26t0.5 18t0.5 17.5v25.5t-0.5 25.5t-0.5 17.5t-0.5 17.5t-0.5 26.5q0 16 0.5 25.5t1.5 17.5t1.5 17.5t0.5 26.5q0 11 5 18t16 7h12.5t8.5 0.5t8.5 0.5h12.5q11 0 16.5 -7.5t5.5 -18.5q0 -18 0.5 -28t0.5 -19t0.5 -19t0.5 -27t0.5 -27t1 -19t1 -19
t0.5 -27q0 -18 0.5 -28t1 -19t1 -19t0.5 -27q0 -20 11.5 -34.5t31.5 -14.5q19 0 30.5 0.5t21.5 1t21.5 1t31.5 0.5q19 0 34.5 13t15.5 33q0 17 -1 27t-1.5 19t-1 19t-0.5 28v27t0.5 19t0.5 19v27t0.5 27t1 19t1 19t0.5 28q0 22 22 22q8 0 12.5 1t8.5 2.5t8.5 2.5t12.5 1
q11 0 18 -9t7 -20q0 -17 -0.5 -26.5t-0.5 -17.5t-0.5 -17.5t-0.5 -25.5q0 -17 1 -26.5t1.5 -17.5t1.5 -17.5t1 -25.5v-87q0 -16 0.5 -25.5t0.5 -17.5t0.5 -18t0.5 -26t-1.5 -25.5t-3 -17.5t-2.5 -17.5t-1 -25.5v-87v0z" />
    <glyph glyph-name="i" unicode="i" horiz-adv-x="180" 
d="M96 201q0 -17 -0.5 -26.5t-1.5 -17.5t-1.5 -17.5t-0.5 -25.5t0.5 -25.5t1 -17.5t1 -18t0.5 -26q0 -11 -6.5 -19t-17.5 -8h-12.5t-8.5 0.5t-8.5 0.5h-12.5q-11 0 -18.5 7.5t-7.5 18.5q0 16 0.5 26t1.5 18t1.5 17.5t0.5 25.5t-1 25.5t-2.5 17.5t-2.5 17.5t-1 26.5
q0 16 1 25.5t2 17.5t2 17.5t1 26.5v25.5t0.5 17.5t0.5 17.5v25.5t-1 26t-2.5 18t-2.5 17.5t-1 25.5t0.5 26t0.5 18t0.5 17.5t0.5 25.5t0.5 25.5t1 17.5t1 17.5t0.5 26.5q0 16 -0.5 25.5t-1 17.5t-1 17.5t-0.5 26.5q0 11 8 17.5t19 6.5q8 0 12.5 -0.5t8.5 -0.5t8.5 -0.5
t12.5 -0.5q11 0 18.5 -5.5t7.5 -16.5v-26.5t-0.5 -17.5t-0.5 -17.5v-25.5q0 -17 -0.5 -26.5t-1 -17.5t-1 -17.5t-0.5 -25.5t1 -25.5t1.5 -17.5t1.5 -18t1 -26t-1 -25.5t-1.5 -17.5t-1.5 -18t-1 -26t0.5 -25.5t1 -17.5t1 -17.5t0.5 -25.5v-87z" />
    <glyph glyph-name="j" unicode="j" horiz-adv-x="445" 
d="M370 640q0 -15 0.5 -24t0.5 -17t0.5 -17t0.5 -24v-24t0.5 -17t0.5 -17v-24t-0.5 -24t-1 -17t-1 -17t-0.5 -24t-1 -24t-2 -17t-2 -17t-1 -24t1 -24t1.5 -17t1.5 -17t1 -24t-0.5 -24t-1.5 -16.5t-1.5 -16.5t-0.5 -24q0 -43 -19 -77q-11 -18 -24 -33.5t-31 -26.5
q-17 -10 -37 -13t-42 -3q-11 0 -17.5 -1t-11.5 -1.5t-11.5 -1.5t-16.5 -1q-22 0 -41.5 6.5t-36.5 16.5q-34 20 -56 58q-10 17 -14 36t-4 41q0 13 -0.5 20.5t-1 14t-1 14t-0.5 20.5q0 11 6.5 16t17.5 5q8 0 12.5 1t8.5 2t8.5 2t12.5 1q11 0 18.5 -8t7.5 -19q0 -13 0.5 -20.5
t1.5 -14t1.5 -14t0.5 -20.5q0 -26 16.5 -45t42.5 -19q10 0 16.5 0.5t11.5 1t11.5 1t17.5 0.5q26 0 43 17.5t17 43.5q0 15 1 24t2 16.5t2 16.5t1 24t-1 24t-1.5 17t-1.5 17t-1 24v24t0.5 17t0.5 17v24t0.5 24t1.5 17t1.5 17t0.5 24t-1 24t-2 17t-2 17t-1 24t0.5 24t1.5 17
t1.5 17t0.5 24t0.5 24t1 17t1 17t0.5 24q0 21 22 21q8 0 12.5 0.5t8.5 0.5t8.5 0.5t12.5 0.5q11 0 20.5 -6t9.5 -17q0 -15 -0.5 -24t-1 -17t-1 -17t-0.5 -24z" />
    <glyph glyph-name="k" unicode="k" horiz-adv-x="484" 
d="M368 109l9.5 -22l6.5 -14.5l6.5 -14.5l9.5 -22q5 -13 -1.5 -22t-20.5 -9q-17 0 -23 -2t-23 -2q-8 0 -13 5t-8 12l-11 25.5t-8 17t-8 17l-11 25.5t-10.5 25.5l-6.5 17.5l-6.5 17.5t-10.5 25.5q-6 16 -10.5 25l-8.5 17l-8.5 17t-11.5 25q-6 15 -20.5 16.5t-22.5 -12.5
q-9 -16 -14.5 -25t-11 -16.5t-11 -16t-14.5 -24.5q-6 -11 -7 -23.5t-1 -24.5v-120q0 -11 -8.5 -17.5t-19.5 -6.5q-8 0 -12.5 -0.5t-8.5 -1t-8.5 -1t-12.5 -0.5q-11 0 -18.5 8t-7.5 19v87q0 16 1 25.5t1.5 17.5t1.5 17.5t1 26.5q0 16 -1 25.5t-2.5 17.5t-2.5 17.5t-1 26.5
q0 16 1 25.5t1.5 17.5t1.5 17.5t1 25.5t-0.5 26t-0.5 18t-0.5 17.5t-0.5 25.5v26t-0.5 18t-0.5 17.5v25.5v25.5t0.5 17.5t0.5 17.5v26.5q0 16 -0.5 25.5t-1 17.5t-1 17.5t-0.5 26.5q0 11 8.5 17t19.5 6q8 0 12.5 -0.5t8.5 -0.5t8.5 -0.5t12.5 -0.5q11 0 18.5 -5t7.5 -16
q0 -17 -0.5 -27t-1 -18t-1 -18t-0.5 -26v-26.5t0.5 -17.5t0.5 -18v-27v-26.5t-0.5 -17.5t-0.5 -18v-26q0 -10 6 -16.5t14 -8.5t16.5 1t13.5 11l12.5 22l8.5 15l8.5 14.5l12.5 21.5t12 22l8 15.5l8 15.5t12 22q8 13 12.5 21t9 14.5t9 14l12.5 21.5l12.5 22t8 15t8 15l12.5 22
q3 6 10.5 10.5t14.5 4.5h14.5t10 0.5t10 0.5h14.5q14 0 20 -14t-1 -27q-7 -12 -11 -19.5t-7 -14t-7 -14t-11 -19.5l-11.5 -19.5t-8.5 -13.5l-8.5 -13t-11.5 -19t-10.5 -20t-5.5 -14.5t-5.5 -14.5t-10.5 -20t-12 -19t-10 -12t-10 -12t-12 -19q-6 -10 -4.5 -22t5.5 -23
l9.5 -22l6.5 -14.5l6.5 -14.5l9.5 -22l9 -21.5l6 -14.5t6 -15t9 -22t9 -22l5.5 -15l5.5 -15t9 -22t8.5 -22l4.5 -15l4.5 -15.5t8.5 -21.5z" />
    <glyph glyph-name="l" unicode="l" horiz-adv-x="398" 
d="M294 92q11 0 20.5 -6t9.5 -17q0 -8 -1 -12.5t-2.5 -8.5t-2.5 -8.5t-1 -12.5q0 -11 -6 -19t-17 -8h-26.5t-17.5 -0.5t-18 -0.5h-26h-26.5t-17.5 0.5t-18 0.5h-26q-17 0 -26.5 0.5t-17.5 0.5t-18 0.5t-26 0.5q-11 0 -18.5 7t-7.5 18q0 16 0.5 26t0.5 18t0.5 17.5t0.5 25.5
t-0.5 25.5t-1 17.5t-1 17.5t-0.5 26.5v87q0 16 0.5 25.5t0.5 17.5t0.5 17.5t0.5 25.5t0.5 26t0.5 18t0.5 17.5t0.5 25.5t-1 26t-2.5 18t-2.5 17.5t-1 25.5t1 25.5t2.5 17.5t2.5 17.5t1 26.5v25.5t0.5 17.5t0.5 17.5v26.5q0 11 5.5 19t16.5 8q8 0 12.5 -0.5t8.5 -0.5
t8.5 -0.5t12.5 -0.5q11 0 16.5 -7t5.5 -18v-83q0 -16 1 -25t2.5 -17t3 -17t1.5 -24t-0.5 -24t-0.5 -17t-0.5 -17t-0.5 -25q0 -15 -0.5 -24t-1 -17t-1 -17t-0.5 -25q0 -15 0.5 -24t0.5 -17t0.5 -17t0.5 -24v-25t-0.5 -17t-0.5 -17v-24q0 -16 0.5 -25t1 -17t1 -17t0.5 -24
q0 -20 12 -32.5t32 -12.5q14 0 22 0.5t15 0.5t15 0.5t22 0.5t22 -1t15 -2.5t15.5 -2.5t22.5 -1z" />
    <glyph glyph-name="m" unicode="m" horiz-adv-x="586" 
d="M498 288q0 -17 1 -26.5t1.5 -17.5t1.5 -17.5t1 -25.5q0 -17 -1 -26.5t-2.5 -17.5t-2.5 -17.5t-1 -25.5t0.5 -25.5t1 -17.5t1 -18t0.5 -26q0 -11 -7 -20.5t-18 -9.5q-8 0 -12.5 0.5t-8.5 1t-8.5 1t-12.5 0.5q-11 0 -19 8t-8 19v25.5t0.5 17.5t0.5 17.5v26.5q0 16 0.5 25.5
t1.5 17.5t1.5 17.5t0.5 25.5v87q0 16 -1 25.5t-1.5 17.5t-1.5 17.5t-1 25.5q0 10 -11 12.5t-14 -6.5l-8 -22l-5.5 -14.5l-5.5 -14.5l-8 -22t-7.5 -22l-4.5 -14.5t-4 -15t-7 -21.5l-8 -22l-5.5 -14.5l-5.5 -14.5l-8 -22q-3 -8 -9.5 -14t-14.5 -6q-10 0 -16 0.5t-11 1.5
t-11.5 1.5t-16.5 0.5q-14 0 -21 17q-5 13 -9 21t-8 14t-8 13.5t-9 21.5q-5 13 -7 21.5t-3.5 15.5t-3.5 15.5t-7 22.5l-26 72q-3 9 -12.5 7t-9.5 -12v-25.5t0.5 -17.5t0.5 -17.5v-25.5t-0.5 -25.5t-0.5 -17.5t-0.5 -18t-0.5 -26t-1 -25.5t-2 -17.5t-2 -17.5t-1 -25.5v-26.5
t0.5 -17.5t0.5 -17.5v-25.5q0 -11 -5.5 -17.5t-16.5 -6.5q-8 0 -12.5 -1t-8.5 -2t-8.5 -2t-12.5 -1q-11 0 -20 9.5t-9 20.5q0 16 1 26t1.5 18t1.5 17.5t1 25.5t-1 25.5t-2 17.5t-2 17.5t-1 26.5v25.5t0.5 17.5t0.5 17.5v26.5v86q0 16 1 26t2.5 18t2.5 17.5t1 25.5v87
q0 16 -1 25.5t-1.5 17.5t-1.5 17.5t-1 26.5q0 16 0.5 25.5t1.5 17.5t1.5 17.5t0.5 26.5q0 11 6 18.5t17 7.5q6 0 10 -1t7 -1.5t7 -1.5t11 -1q8 0 15.5 -2t9.5 -10l8 -22.5t5 -15.5t5 -15.5l8 -22.5t9 -22l7 -14.5l6.5 -14.5t8.5 -22t7.5 -22.5t4 -16t4 -16t7.5 -22.5t9 -22
l7.5 -14.5l8 -14.5t9.5 -22l8 -22l5.5 -15l5.5 -15l8 -22q7 -17 23 -18t22 16l8 22.5t6 15t6 15l8 22.5t7.5 22.5l4.5 15.5l4.5 15.5t7.5 22.5t9 22l7.5 14.5t7 14.5t8.5 22l8 22.5l5.5 15.5t5 15.5t7.5 22.5l8 22t5.5 15.5l5 15.5t7.5 22q3 8 10.5 14t15.5 6q14 0 18 -0.5
t18 -0.5q11 0 18.5 -8.5t7.5 -19.5q0 -17 -0.5 -26.5t-1 -17.5t-1 -17.5t-0.5 -25.5q0 -17 1 -26.5t2 -17.5t2 -17.5t1 -25.5t-1 -25.5t-2.5 -17.5t-2.5 -18t-1 -26t1 -25.5t2.5 -17.5t3 -18t1.5 -26t-1 -25.5t-2 -17.5t-2 -17.5t-1 -25.5z" />
    <glyph glyph-name="n" unicode="n" horiz-adv-x="485" 
d="M394 288q0 -17 0.5 -26.5t0.5 -17.5t0.5 -17.5t0.5 -25.5q0 -17 0.5 -26.5t1.5 -17.5t1.5 -17.5t0.5 -25.5t-0.5 -25.5t-0.5 -17.5t-0.5 -18t-0.5 -26q0 -11 -8.5 -19.5t-19.5 -8.5q-13 0 -17 0.5t-18 0.5q-8 0 -12 5.5t-7 12.5q-6 13 -10 20.5t-7 14.5t-7 14.5t-10 20.5
l-32 70q-6 13 -10 20.5t-8 13.5t-8 13.5t-10 20.5t-10 20.5t-7 14t-7 14t-10 21.5q-6 13 -9 21l-5.5 14.5l-5.5 14.5t-9 21t-10 20.5l-7.5 14l-7.5 14t-10 20.5q-4 8 -12.5 7t-8.5 -10v-81q0 -15 1 -24t2 -16.5t2 -16.5t1 -24v-24t-0.5 -17t-0.5 -17v-24v-24t-0.5 -16.5
t-0.5 -16.5v-24t-0.5 -24t-0.5 -16.5t-0.5 -16.5t-0.5 -24q0 -11 -7 -17t-18 -6h-12.5t-8.5 0.5t-8.5 0.5h-12.5q-11 0 -17.5 5.5t-6.5 16.5q0 16 -0.5 26t-0.5 18t-0.5 17.5t-0.5 25.5t0.5 25.5t1.5 17.5t1.5 17.5t0.5 26.5q0 16 -1.5 25.5t-3 17.5t-2.5 17.5t-1 26.5v25.5
t0.5 17.5t0.5 17.5v25.5t1 26t2 18t2 17.5t1 25.5t-0.5 26t-1 18t-1 17.5t-0.5 25.5t-0.5 25.5t-0.5 17.5t-0.5 17.5t-0.5 26.5v87q0 11 8.5 19t19.5 8q13 0 17 1t17 1q8 0 15 -5.5t10 -12.5q6 -13 10 -20.5l7.5 -14l7.5 -14t10 -20.5t9 -21t5 -15t5 -15t9 -21t10 -20.5
l7.5 -14l7.5 -14t10 -20.5t8.5 -21t4 -15.5t4 -15.5t8.5 -21t10.5 -20.5t9 -13.5l9.5 -13t11 -20l9.5 -21t6 -14.5t6 -14.5l9.5 -21q4 -8 10.5 -6.5t6.5 10.5q0 15 0.5 24t0.5 16.5t0.5 16.5t0.5 24t1 24t1.5 16.5t1.5 16.5t1 24t-1.5 24t-3 16.5t-3 16.5t-1.5 24t0.5 24
t1.5 17t1.5 17t0.5 24t1 24t1.5 16.5t1.5 16.5t1 24q0 11 5 17.5t16 6.5q8 0 12.5 0.5t8.5 0.5t8.5 0.5t12.5 0.5q11 0 16.5 -7.5t5.5 -18.5q0 -17 0.5 -26.5t1.5 -17.5t1.5 -17.5t0.5 -25.5q0 -17 0.5 -26.5t1 -17.5t1 -17.5t0.5 -25.5v-25.5t0.5 -17.5t0.5 -18v-26
t-0.5 -25.5t-0.5 -17.5t-0.5 -18t-0.5 -26t-0.5 -25.5t-1.5 -17.5t-1.5 -17.5t-0.5 -25.5z" />
    <glyph glyph-name="o" unicode="o" horiz-adv-x="508" 
d="M413 239q0 -17 -1 -27t-2 -18t-2 -18t-1 -27q0 -22 -3 -42t-14 -37q-10 -18 -26.5 -30t-34.5 -23q-17 -10 -35.5 -18.5t-39.5 -8.5q-18 0 -28.5 0.5t-19.5 1t-19.5 1t-28.5 0.5q-21 0 -40 6.5t-36 17.5q-17 10 -32.5 23t-26.5 30q-20 35 -20 79q0 17 -0.5 27t-1 18t-1 18
t-0.5 27v27t0.5 18t0.5 18v27v91q0 17 1 27t1.5 18t1.5 18t1 27t-0.5 27t-1 18.5t-1 18.5t-0.5 27q0 21 7 39.5t17 35.5q11 18 23 33.5t30 26.5q17 11 37 15t41 4q18 0 28.5 1t19.5 1.5t19.5 1.5t28.5 1q21 0 41 -7t37 -17q17 -11 29.5 -26.5t23.5 -33.5q10 -17 18 -35.5
t8 -39.5q0 -17 -1 -27t-1.5 -18.5t-1.5 -18.5t-1 -27t0.5 -27t1 -18t1 -18t0.5 -27t0.5 -27t1.5 -18.5t1.5 -18.5t0.5 -27v-90zM317 149q0 17 0.5 27t1.5 18t1.5 18t0.5 27t-1 27t-1.5 18t-1.5 18t-1 27t0.5 27t0.5 18.5t0.5 18.5t0.5 27t-1 27t-1.5 18t-1.5 18t-1 27
t0.5 27t1 18.5t1 18.5t0.5 27q0 26 -18 46t-44 20q-18 0 -28.5 -1t-19.5 -2t-19.5 -2t-28.5 -1q-26 0 -44.5 -17t-18.5 -43q0 -17 -0.5 -27t-1 -18.5t-1 -18.5t-0.5 -27t0.5 -27t1.5 -18t1.5 -18t0.5 -27v-91q0 -17 0.5 -27t0.5 -18t0.5 -18t0.5 -27v-90q0 -26 17 -43.5
t43 -17.5q18 0 28.5 -1t19.5 -2t19.5 -2t28.5 -1q26 0 44.5 20.5t18.5 46.5z" />
    <glyph glyph-name="p" unicode="p" horiz-adv-x="476" 
d="M373 670q10 -17 15.5 -37t5.5 -42q0 -13 -1 -20.5t-1.5 -14.5t-1.5 -15t-1 -21v-70q0 -42 -20 -77q-11 -18 -23 -35t-30 -27q-17 -11 -38 -15.5t-42 -4.5h-27t-18.5 -0.5t-18.5 -0.5h-27q-20 0 -35.5 -12t-15.5 -32q0 -14 1 -21.5t2.5 -14.5t2.5 -15t1 -22v-21.5
t0.5 -14.5t0.5 -15v-22t-0.5 -21.5t-0.5 -14.5t-0.5 -15t-0.5 -22q0 -11 -8.5 -19.5t-19.5 -8.5q-8 0 -12.5 1t-8.5 2.5t-8.5 2.5t-12.5 1q-11 0 -19 5t-8 16v87q0 16 -0.5 25.5t-1 17.5t-1 17.5t-0.5 26.5q0 16 0.5 25.5t0.5 17.5t0.5 17.5t0.5 26.5q0 16 1 25.5t2 17.5
t2 17.5t1 25.5t-1 26t-2 18t-2 17.5t-1 25.5t1 26t2 18t2 17.5t1 25.5t-1 25.5t-1.5 17.5t-1.5 17.5t-1 26.5v87q0 11 8 20.5t19 9.5q19 0 30.5 -1.5t21.5 -3t21 -2.5t30 -1h30t21 -0.5t21 -0.5h31q21 0 42 -1.5t38 -11.5q17 -11 31.5 -26.5t25.5 -33.5zM236 384
q13 0 25 5.5t21 14.5t14.5 21t5.5 25t-1 20.5t-2.5 14.5l-3 14.5t-1.5 20.5q-1 13 -0.5 21t1 15l1 14.5t0.5 20.5q0 26 -17 46.5t-43 20.5q-17 0 -27 -1t-18.5 -2t-18.5 -2t-27 -1q-20 0 -35 -12.5t-15 -32.5q0 -16 1 -25.5t1.5 -17.5t1.5 -18t1 -26v-25.5t-0.5 -17.5
t-0.5 -17.5v-25.5q0 -20 13 -31.5t33 -11.5q17 0 27 -1t18.5 -2.5t18.5 -2.5t27 -1z" />
    <glyph glyph-name="q" unicode="q" horiz-adv-x="508" 
d="M554 -117q9 -3 13 -11t2 -17q-4 -12 -21.5 -14.5t-39 0.5t-41 8.5t-27.5 9.5q-15 7 -29 16.5t-28 20.5l-14 10t-13 11q-7 6 -12.5 13t-11.5 13q-6 7 -14 11.5t-15 11.5q-7 6 -13 12.5t-15 11.5q-14 6 -31 4.5t-31 -1.5q-14 1 -27 1h-27q-45 0 -79 19q-17 11 -29.5 26.5
t-23.5 33.5q-10 17 -18.5 35.5t-8.5 40.5q0 17 0.5 27t0.5 18t0.5 18t0.5 27t0.5 27t1.5 18t1.5 18t0.5 27v27t-0.5 18.5t-0.5 18.5v27t-1 27t-1.5 18t-1.5 18t-1 27v27t0.5 18.5t0.5 18.5v27q0 21 6 41t16 37q11 17 26 30t33 24q17 10 36 16.5t41 6.5h95q21 0 41.5 -4
t37.5 -14q18 -11 30 -27t23 -34q10 -17 17 -36t7 -40q0 -17 -0.5 -27t-1.5 -18.5t-1.5 -18.5t-0.5 -27t1 -27t1.5 -18t1.5 -18t1 -27t-0.5 -27t-0.5 -18.5t-0.5 -18.5t-0.5 -27v-27t0.5 -18t0.5 -18v-27v-27t0.5 -18t0.5 -18v-27q0 -21 -6 -39.5t-15 -35.5q-7 -13 -4 -27.5
t11 -28.5t19 -26.5t20 -20.5q11 -11 20 -25t21 -25q10 -8 21.5 -11.5t20.5 -8.5q7 -4 15.5 -9.5t19.5 -8.5zM191 88q7 3 4.5 11t-4.5 13l-8 16.5t-12 13.5l-10.5 7.5t-13.5 8t-13.5 5.5t-11.5 1q-11 -3 -15 -15t0 -22q6 -14 14.5 -24.5t25.5 -14.5q8 -2 17 -2h17q7 0 10 2z
M320 257q0 20 1 41.5t1 44.5q-1 22 -3.5 43.5t-2.5 42.5q-1 23 2 44.5t3 41.5q0 19 -1.5 28.5t-2.5 17t-2.5 15.5t-1.5 24q0 26 -16.5 46.5t-42.5 20.5q-18 0 -28.5 -1.5t-19.5 -3t-19 -2.5t-28 -1q-26 0 -44 -16t-18 -42q0 -16 -0.5 -25t-1.5 -17t-1.5 -17t-0.5 -24
t0.5 -24t0.5 -17t0.5 -17t0.5 -24v-24t0.5 -17t0.5 -17v-24t0.5 -24t1 -17t1 -17t0.5 -24q0 -28 19 -45q7 -6 17 -9t21 -4.5l22 -3t20 -4.5q25 -10 51 -26q9 -6 18 -15.5t19 -14.5q11 -5 21 2.5t11 18.5q1 17 1.5 39t0.5 47z" />
    <glyph glyph-name="r" unicode="r" horiz-adv-x="531" 
d="M441 95q9 -1 15.5 -8t6.5 -16q0 -8 -0.5 -12.5t-1 -8.5t-1 -8.5t-0.5 -12.5q0 -12 -7.5 -22t-18.5 -8q-17 2 -35 9t-37 17q-32 19 -53 53q-21 29 -31 69q-5 24 -7.5 47.5t1.5 48.5q2 15 3 30t-10 28q-10 10 -37 10q-16 0 -25 1t-17 2t-17 2t-25 1q-20 0 -36 -16t-16 -36
v-23.5t0.5 -16t0.5 -16v-23.5t1 -24t2.5 -16.5t2.5 -16t1 -23.5t-0.5 -23.5t-0.5 -16t-0.5 -16t-0.5 -23.5q0 -11 -8 -20t-19 -9q-8 0 -12.5 1t-8.5 2.5t-8.5 2.5t-12.5 1q-22 0 -22 22v87v25.5t-0.5 17.5t-0.5 17.5v26.5q0 16 -0.5 25.5t-0.5 17.5t-0.5 17.5t-0.5 26.5
q0 16 -0.5 25.5t-1.5 17.5t-1.5 17.5t-0.5 25.5t1 26t1.5 18t1.5 17.5t1 25.5t-0.5 26t-1.5 18t-1.5 17.5t-0.5 25.5t1 25.5t1.5 17.5t1.5 17.5t1 26.5v25.5t-0.5 17.5t-0.5 17.5v26.5q0 11 6.5 18.5t17.5 7.5h30t21 -0.5t21 -0.5h31q19 0 30 0.5t21 0.5t21 0.5t31 0.5
q42 0 78 -22q18 -10 33.5 -24t26.5 -32q10 -17 14 -37.5t4 -42.5v-36.5t-0.5 -25t-0.5 -25v-36.5q0 -29 -8 -55.5t-25 -46.5q-5 -5 -7 -11t2 -12q14 -27 14 -58t-2 -63q-1 -21 0.5 -41.5t9.5 -40.5q11 -23 29.5 -32.5t37.5 -12.5zM294 468q0 23 0.5 36.5t1 25t1 25t0.5 36.5
q0 26 -18 45.5t-44 19.5q-17 0 -27 -1t-18.5 -2t-18.5 -2t-27 -1q-20 0 -33 -11.5t-13 -31.5v-77q0 -15 0.5 -23.5t0.5 -15.5t0.5 -15.5t0.5 -22.5q0 -20 12 -33.5t32 -13.5h27t18.5 -0.5t18.5 -0.5h27q26 0 42.5 18.5t16.5 44.5z" />
    <glyph glyph-name="s" unicode="s" horiz-adv-x="461" 
d="M353 338q20 -34 20 -78v-33t-0.5 -22.5t-0.5 -22.5v-33q0 -22 -3.5 -42.5t-13.5 -37.5q-11 -18 -27.5 -29.5t-34.5 -22.5q-17 -10 -36 -18.5t-40 -8.5q-11 0 -17.5 0.5t-11.5 0.5t-11.5 0.5t-17.5 0.5q-19 0 -35.5 5t-32.5 13q-32 14 -55 44q-11 14 -19.5 30t-12.5 33
q-2 12 6.5 22.5t20.5 10.5h13t9 -0.5t9 -0.5h13t16.5 -4.5t10.5 -12.5q6 -20 21 -32.5t36 -12.5q11 0 17.5 -0.5t11.5 -1t11.5 -1t17.5 -0.5q26 0 45 19.5t19 45.5v33t-0.5 22.5t-0.5 22.5v33q0 26 -18.5 46.5t-44.5 20.5q-11 0 -17.5 -1.5t-11.5 -3t-11.5 -3t-17.5 -1.5
q-21 0 -41 7.5t-37 17.5q-18 11 -33.5 24.5t-26.5 31.5q-10 17 -15.5 37.5t-5.5 41.5q0 23 0.5 36.5t0.5 25t0.5 25t0.5 36.5q0 21 4 42t14 38q11 18 26.5 32.5t33.5 24.5q17 11 37.5 15t41.5 4q11 0 17.5 -0.5t11.5 -0.5t11.5 -0.5t17.5 -0.5q39 0 68 -16q34 -16 56 -43
q21 -28 27 -65q3 -12 -4 -22t-19 -10q-8 0 -13 0.5t-9 1t-9 1t-13 0.5t-15.5 4t-9.5 12q-6 20 -22 31t-37 11q-11 0 -17.5 1t-11.5 1.5t-11.5 1.5t-17.5 1q-26 0 -43 -19t-17 -45q0 -23 -0.5 -36.5t-0.5 -25t-0.5 -25t-0.5 -36.5q0 -26 18 -44.5t44 -18.5h17.5t11.5 0.5
t11.5 0.5h17.5q21 0 42 -4t38 -14q17 -11 31.5 -26.5t24.5 -33.5z" />
    <glyph glyph-name="t" unicode="t" horiz-adv-x="500" 
d="M398 752q11 0 18 -9.5t7 -20.5q0 -8 -0.5 -12.5t-1.5 -8.5t-1.5 -8.5t-0.5 -12.5q0 -11 -5 -19t-16 -8q-17 0 -27 -0.5t-19 -0.5t-19 -0.5t-27 -0.5q-20 0 -35.5 -12t-15.5 -32v-83v-83q0 -15 1 -24t2 -17t2 -17t1 -25v-24t-0.5 -17t-0.5 -17v-25q0 -15 -0.5 -24
t-0.5 -17t-0.5 -17t-0.5 -24q0 -16 -0.5 -25t-0.5 -17t-0.5 -17t-0.5 -24t0.5 -24t0.5 -17t0.5 -17t0.5 -25q0 -11 -7 -19t-18 -8q-8 0 -12.5 1t-8.5 1.5t-8.5 1.5t-12.5 1q-11 0 -18.5 5.5t-7.5 16.5v83v24t-0.5 17t-0.5 17v25v24t0.5 17t0.5 17v24v83q0 16 -0.5 25
t-1.5 17t-1.5 17t-0.5 24t1 24t2.5 17t3 17t1.5 25q0 15 -1.5 24t-3 17t-2.5 17t-1 25q0 20 -11.5 34.5t-31.5 14.5q-17 0 -27 -0.5t-19 -1.5t-19 -1.5t-27 -0.5q-11 0 -18.5 8.5t-7.5 19.5q0 8 1 12.5t1.5 8.5t1.5 8.5t1 12.5q0 11 5 18t16 7q18 0 28 -0.5t19 -1.5t19 -1.5
t27 -0.5h93q17 0 27 1t19 2t19 2t28 1q17 0 27 0.5t19 1t19 1t28 0.5z" />
    <glyph glyph-name="u" unicode="u" horiz-adv-x="461" 
d="M368 389q0 -16 1 -25t1.5 -17t1.5 -17t1 -25q0 -15 -1 -24t-2 -17t-2 -17t-1 -25v-25t0.5 -17t0.5 -17v-24q0 -22 -2.5 -42t-13.5 -37q-10 -18 -25 -33t-32 -25q-17 -11 -37.5 -14t-42.5 -3h-54q-22 0 -41 5.5t-36 15.5q-18 11 -33 24t-25 31q-11 17 -15 36.5t-4 41.5
q0 15 -1 24t-2.5 17t-2.5 17t-1 25v83q0 16 1.5 25t3 17t3 17t1.5 25q0 15 -0.5 24t-1.5 17t-1.5 17t-0.5 25t-1 25t-1.5 17t-1.5 17t-1 24q0 16 1 25t2.5 17t3 17t1.5 24q0 16 -1 25t-1.5 17t-1.5 17t-1 25q0 11 8 20t19 9h12.5t8.5 -0.5t8.5 -0.5h12.5q11 0 18.5 -8.5
t7.5 -19.5q0 -16 -0.5 -25t-0.5 -17t-0.5 -17t-0.5 -25q0 -15 0.5 -24t1 -17t1 -17t0.5 -25t-0.5 -25t-0.5 -17t-0.5 -17t-0.5 -24q0 -16 0.5 -25t1.5 -17t1.5 -17t0.5 -24q0 -16 -1 -25t-2.5 -17t-2.5 -17t-1 -25v-83q0 -16 1 -25t2.5 -17t3 -17t1.5 -24q0 -26 16.5 -42
t42.5 -16h16t11 -0.5t11 -0.5h16q26 0 46.5 16.5t20.5 42.5q0 15 -1 24t-2.5 17t-2.5 17t-1 25t1 25t2 17t2 17t1 24q0 16 -1.5 25t-3 17t-2.5 17t-1 25q0 15 0.5 24t0.5 17t0.5 17t0.5 25v83q0 16 1 25t1.5 17t1.5 17t1 24v25t-0.5 17t-0.5 17v25q0 21 25 21h42
q22 0 22 -21q0 -16 0.5 -25t1.5 -17t1.5 -17t0.5 -25v-24t-0.5 -17t-0.5 -17v-25t1 -25t1.5 -17t1.5 -17t1 -24q0 -16 -1.5 -25t-3 -17t-2.5 -17t-1 -24z" />
    <glyph glyph-name="v" unicode="v" horiz-adv-x="484" 
d="M375 744q12 0 19.5 -8t4.5 -20q-3 -16 -5.5 -25.5l-4.5 -17.5l-4.5 -17.5l-6.5 -25.5q-3 -16 -5 -25.5t-3 -18t-3 -18t-5 -25.5q-3 -17 -5.5 -26t-4.5 -17.5t-4.5 -18l-6.5 -25.5q-3 -16 -5 -25.5t-3.5 -17.5l-3.5 -18l-5 -26t-5.5 -25.5t-5 -17.5t-5 -17.5t-5.5 -25.5
q-4 -16 -6 -25.5t-4 -17.5t-4 -18l-5 -26q-4 -16 -6 -25.5t-4 -17.5t-4 -17.5t-5 -25.5q-4 -17 -5 -26.5t-1.5 -18t-1.5 -18.5t-4 -26q-2 -9 -10 -14.5t-18 -5.5q-9 0 -14.5 0.5t-10 1t-9.5 1t-14 0.5q-18 0 -21 19q-4 16 -6 25.5t-3.5 17.5t-3.5 17.5t-6 26.5l-18 86
q-4 16 -6 26t-4 18l-4.5 17.5t-5.5 25.5t-5.5 25.5l-4.5 17.5l-4.5 17.5t-5.5 25.5q-4 16 -7 25.5l-5.5 17.5l-5.5 17.5t-6 25.5q-4 16 -5.5 26t-2.5 18t-2.5 17.5t-5.5 26.5q-3 16 -5.5 25.5t-5 17.5t-5 17t-5.5 26q-4 16 -6 25.5t-3.5 17.5t-3 17.5t-5.5 26.5
q-2 12 6.5 22t21.5 10h43q9 0 17 -6t10 -14q3 -16 4.5 -25.5t2 -18t2 -18t4.5 -25.5l6.5 -25.5t5 -17l5.5 -17t6 -25.5l18 -86q4 -16 6.5 -25t4.5 -17l4.5 -17.5t5.5 -25.5t5 -25.5t3.5 -17.5t3.5 -17.5t5 -25.5q2 -11 13.5 -11.5t13.5 10.5q3 16 5 25.5t3 18t3 17.5t5 25
t5.5 25.5t4 17.5t4 17.5t5.5 25.5t5 25.5t3.5 17.5t3.5 17.5t5 25.5q4 16 5.5 25.5t3 17.5t3 17.5t5.5 25.5q3 16 6 25.5t5 17t5 17t6 25.5q2 9 8.5 17t15.5 8q8 0 12.5 -1.5t8.5 -3t9 -2.5t13 -1z" />
    <glyph glyph-name="w" unicode="w" horiz-adv-x="633" 
d="M537 745q12 0 19.5 -7.5t5.5 -18.5q-2 -16 -3 -25.5t-2 -17.5t-2 -18t-3 -26t-2.5 -25.5t-0.5 -18t-0.5 -18t-2.5 -25.5t-3.5 -25.5t-3.5 -17.5t-3.5 -17.5t-3.5 -25.5q-2 -17 -3 -26.5t-2.5 -17.5t-3 -17.5t-3.5 -25.5t-2.5 -25.5t-1 -18t-1 -18t-2.5 -25.5t-2.5 -25.5
t-1 -18t-1.5 -18t-2 -25.5q-2 -17 -2.5 -26.5t-1 -17.5t-1 -17.5t-2.5 -25.5q-2 -17 -3.5 -26l-3 -17.5t-3.5 -18t-3 -25.5q-2 -10 -9 -16t-17 -6q-13 0 -17 1.5t-17 1.5q-18 0 -24 14q-5 14 -7.5 22.5t-5 15.5l-5.5 15t-7 22q-5 14 -7.5 22.5t-5.5 15t-6 15l-8 22.5
t-7 22.5t-4.5 15.5t-5 15.5l-6.5 22.5q-5 14 -7 22.5t-3.5 15.5t-3.5 15.5t-7 22.5q-3 9 -9.5 13t-14 4t-14 -5t-9.5 -14q-5 -14 -8.5 -21.5l-7 -14.5t-7 -15t-7.5 -22q-5 -14 -6.5 -22.5t-3 -16t-3.5 -16t-6 -22.5q-5 -14 -8.5 -22t-7 -15l-7.5 -14.5t-9 -21.5t-6.5 -22.5
t-3 -16t-3.5 -16t-6 -22.5q-2 -8 -9.5 -13.5t-16.5 -5.5h-34q-10 0 -16 7.5t-8 17.5q-2 16 -3 25.5t-2.5 17.5t-3 17.5t-3.5 25.5t-3 25.5t-2 17.5t-2 17.5t-3 26.5q-2 16 -2.5 25.5t-1 17.5t-1.5 17.5t-2 26.5q-2 16 -3 25.5t-2 17.5t-2 17.5t-3 26.5q-2 16 -3 25.5
t-2 17.5t-2 17.5t-3 26.5q-2 16 -2.5 25.5t-1.5 17.5t-2 17.5t-3 25.5t-3.5 26t-2.5 18t-2.5 17.5t-3.5 25.5t-2.5 25.5t-0.5 18v18t-2 25.5q-2 11 4.5 20.5t17.5 9.5q8 0 12.5 -0.5t8.5 -1.5t9 -1.5t13 -0.5q21 0 24 -21q1 -15 2 -24t1.5 -16.5t1 -16t2.5 -23.5
q1 -15 3 -24t4 -16.5t3.5 -16t3.5 -23.5t2.5 -24t0.5 -16.5t0.5 -16.5t2.5 -24q1 -15 2 -24t2 -16.5t2 -16.5t3 -24q1 -15 3 -23.5t3.5 -16t3 -16.5t3.5 -24q1 -9 10.5 -10.5t12.5 6.5q4 14 6.5 22t4 15.5t3.5 15.5t7 22q4 13 7 21t6 14.5t5.5 14.5t7.5 22q4 13 7 21t5 15
l4.5 15t7.5 22q3 8 7.5 14t12.5 6q10 0 16.5 -1t11.5 -2t11 -2t16 -1q8 0 16 -2t11 -10q4 -14 7 -22l5.5 -14.5t5 -14.5t7.5 -22q4 -14 6.5 -22t4 -15t4 -15t6.5 -22t7 -21.5t5.5 -14.5t5 -15t7.5 -21q2 -9 11 -8.5t10 9.5q2 15 2 24v16.5v16.5t2 24q1 15 2.5 23.5t2.5 16
t2 16.5t3 24q1 15 3 24t3.5 16.5t3.5 16t4 23.5q1 15 2 24t2 16.5t2 16.5t3 24q1 15 2 23.5t1.5 16t1.5 16.5t3 24q2 20 24 20h12.5t8.5 0.5t8.5 0.5h12.5z" />
    <glyph glyph-name="x" unicode="x" horiz-adv-x="477" 
d="M405 39q6 -13 -3.5 -26t-23.5 -13h-46q-8 0 -13.5 5t-8.5 13q-6 13 -9 21.5l-5.5 15l-5.5 14.5t-9 22t-11 21.5t-9.5 13.5t-9 13.5t-10.5 21.5l-9.5 21l-6.5 14.5l-6.5 14.5l-9.5 22q-3 7 -7.5 7.5t-7.5 -6.5q-6 -14 -9 -22l-5.5 -15t-6 -15l-9.5 -22t-10 -21.5t-8 -13.5
t-8 -14l-10 -21q-6 -14 -9 -22t-5 -15.5t-5 -15.5t-9 -22q-3 -7 -11 -12t-16 -5h-46q-14 0 -21.5 13.5t-1.5 26.5q6 15 10.5 23t8 15.5t8 16t10.5 23.5l9.5 23.5t6.5 16.5t6.5 16.5l9.5 23.5l9.5 24l6.5 16.5t7 16t10 23.5q7 15 10.5 23.5l6.5 16t7 16.5t10 24q4 10 6 19.5
t-3 19.5q-6 15 -10 23.5t-7 16t-7 16l-11 23.5q-6 15 -10.5 23t-8 15.5t-8 16t-10.5 23.5l-9.5 23.5t-5.5 16.5t-5.5 17l-9.5 24q-7 15 -11.5 23.5l-8.5 15.5l-8.5 15t-10.5 23q-6 13 2.5 25.5t22.5 12.5q17 0 23 -2t23 -2q8 0 16 -1.5t11 -8.5q6 -14 8.5 -22.5t5 -15.5
t5 -15.5t8.5 -21.5q6 -14 10.5 -21.5t8 -14t8 -14t10.5 -21.5t8.5 -22t4 -15.5t4 -16t8.5 -21.5q3 -7 10 -5.5t10 8.5q6 14 10 22l7 14.5t7 14t10 21.5q6 13 10.5 20.5l8.5 14l8.5 14t10.5 21.5q6 13 9 21.5l5.5 15l5.5 14.5t9 22t22 14q17 0 23 1.5t23 1.5q14 0 22.5 -12.5
t2.5 -25.5q-6 -15 -10 -23.5t-7 -16l-6.5 -16l-9.5 -23.5q-7 -15 -11.5 -23.5t-9 -15t-9.5 -15t-11 -23.5t-10 -24t-7 -16.5l-6.5 -16l-9.5 -23.5q-7 -15 -10.5 -24t-6 -16.5t-6 -16l-9.5 -23.5q-5 -10 -7.5 -20.5t1.5 -20.5q7 -15 11.5 -23.5t9 -15t9.5 -15t11 -23.5
q7 -15 10 -24t5 -16.5t5 -16.5t10 -24q6 -15 11 -23.5t9.5 -15t9 -15t11.5 -23.5q6 -15 10 -23.5l7.5 -16l7.5 -16t10 -23.5z" />
    <glyph glyph-name="y" unicode="y" horiz-adv-x="477" 
d="M377 744q14 0 20 -8.5t1 -21.5q-6 -15 -8.5 -24.5l-4.5 -17.5l-4.5 -17.5t-8.5 -24.5l-9.5 -25l-6.5 -16.5l-6.5 -16.5l-9.5 -25q-6 -15 -8.5 -24.5t-4 -17.5t-4 -17.5t-8.5 -25.5q-6 -15 -10 -24t-8 -16t-8 -16t-10 -24q-6 -16 -9 -25t-5 -17t-5 -17.5t-9 -24.5
q-3 -8 -5.5 -16t-2.5 -16v-80q0 -15 0.5 -23.5t1.5 -16t1.5 -16t0.5 -23.5t0.5 -24t1 -16.5t1 -16t0.5 -23.5q0 -11 -9 -17t-20 -6h-12.5t-8.5 -0.5t-8.5 -0.5h-12.5q-11 0 -18.5 6.5t-7.5 17.5v23.5t0.5 16t0.5 16.5v24v23.5t0.5 16t0.5 16v23.5t-1 23.5t-1.5 16t-1.5 16.5
t-1 24q0 8 -2 15t-5 15q-6 16 -9 25t-6 17t-6 17l-8 24q-6 16 -9 25l-5.5 17l-5.5 17t-9 25q-6 15 -9 24t-6 17t-6 17t-9 25q-6 15 -8.5 24.5l-4.5 17.5l-4.5 17.5t-8.5 24.5q-6 16 -8.5 25t-5 17t-5 17.5t-8.5 24.5q-5 13 1 21.5t19 8.5q9 0 14 1t9 1.5t9 1.5t13 1
q17 0 24 -19q6 -17 10 -26.5t7 -18t7 -18t10 -26.5l32 -90q6 -17 9 -26.5l5.5 -18l5.5 -18.5t9 -27q3 -8 11 -7t11 9q6 17 10 26.5t8 17.5t8 17.5t10 26.5t9 27t5 18.5t5 18.5t9 27t10.5 26.5t9 17t9 17t10.5 26.5q3 8 8.5 15t13.5 7t13 -1t9 -2.5t9 -2.5t13 -1z" />
    <glyph glyph-name="z" unicode="z" horiz-adv-x="454" 
d="M368 69q0 -8 0.5 -12.5t0.5 -8.5t0.5 -8.5t0.5 -12.5q0 -11 -6 -18.5t-17 -7.5q-15 0 -23.5 0.5t-15.5 1t-15.5 1t-22.5 0.5q-15 0 -23.5 -0.5t-15.5 -1.5t-15.5 -1.5t-23.5 -0.5t-23.5 0.5t-15.5 0.5t-15.5 0.5t-23.5 0.5h-23.5t-15.5 -0.5t-15.5 -0.5h-22.5t-23 11.5
t-4 24.5l9.5 25l6.5 16.5t6 16.5t9 25l9.5 25l6.5 17l6.5 17l9.5 24q6 16 9 25l5.5 17l5.5 17t9 25l9.5 25t6 17l5.5 17t9 25q6 15 9 24t6 17l6.5 17l9.5 25t9.5 24.5t7 16l7.5 16.5t10 25l9.5 25t7 16.5t7 16.5l9.5 24q5 13 -4 25.5t-23 12.5q-17 0 -26.5 -1t-17.5 -1.5
t-18 -1.5t-26 -1q-17 0 -26.5 1t-17.5 2t-18 2t-26 1q-11 0 -19 6t-8 17v42q0 11 8 16t19 5q15 0 23.5 0.5t15.5 1t15.5 1t23.5 0.5q14 0 22.5 1t15.5 2t15.5 2t23.5 1t23.5 -1t15.5 -2.5t15.5 -2.5t23.5 -1h77q14 0 22 -9.5t3 -22.5q-6 -16 -10 -25l-7.5 -16.5l-7.5 -16.5
t-10 -24q-6 -16 -8 -25.5t-4 -17.5t-4 -17.5t-8 -25.5l-9.5 -24l-6.5 -17t-6 -17t-9 -25t-10 -25t-7 -16.5l-6.5 -16.5l-9.5 -25l-9.5 -24t-7 -16.5t-7 -16.5l-9.5 -25l-9.5 -25l-6.5 -16.5t-7 -16.5t-10 -25q-6 -15 -8.5 -24.5l-4.5 -17.5l-4.5 -17.5t-8.5 -24.5
q-5 -13 2.5 -24t21.5 -11q16 0 26 0.5t18 0.5t17.5 0.5t26.5 0.5h88q11 0 16 -8.5t5 -19.5z" />
    <glyph glyph-name="oe" unicode="&#x153;" horiz-adv-x="707" 
d="M627 70q11 0 20 -5.5t9 -16.5q0 -8 -0.5 -13t-1.5 -9t-1.5 -8.5t-0.5 -12.5q0 -11 -7 -18t-18 -7h-27t-18.5 -0.5t-18.5 -0.5h-27t-30 1t-25 1.5t-25 1.5t-30 1h-27t-18.5 -0.5t-18.5 -0.5h-27h-27t-19 -0.5t-19 -0.5h-27t-27 -1t-18.5 -2t-18.5 -2t-27 -1
q-21 0 -41.5 6.5t-37.5 17.5q-35 20 -57 57q-10 17 -13 37t-3 42q0 17 -0.5 27t-1.5 18t-1.5 18t-0.5 27t0.5 27t1.5 18t1.5 18t0.5 27t-1 27t-2 18.5t-2 18.5t-1 27t-0.5 27t-0.5 18t-0.5 18t-0.5 27v27t0.5 18.5t0.5 18.5v27q0 21 5 42t15 38q11 17 28 29t35 23
q17 10 36 15.5t40 5.5q17 0 27 0.5t18.5 0.5t18.5 0.5t27 0.5h27t19 -0.5t19 -0.5h27h27t18.5 -0.5t18.5 -0.5h27t30 1t25 1.5t25 1.5t30 1t27 -1t18.5 -2.5t18.5 -2.5t27 -1q22 0 26.5 -13t0.5 -30q-2 -5 -2.5 -10t-1.5 -10q-2 -11 -7 -19.5t-16 -8.5q-16 0 -25 1t-17 1.5
t-17 1.5t-25 1h-102q-20 0 -32 -15t-12 -35q0 -15 -1 -24t-1.5 -16.5t-1.5 -16.5t-1 -24v-24t-0.5 -17t-0.5 -17v-24q0 -20 15 -34.5t35 -14.5q26 0 44 3.5t44 3.5q17 0 24 -16t6 -34.5t-9 -34.5t-21 -16q-26 0 -44 1.5t-44 1.5q-20 0 -34 -13.5t-14 -33.5q0 -12 -0.5 -19.5
t-1 -13.5t-1 -13.5t-0.5 -19.5v-20.5t-0.5 -13.5t-0.5 -13.5v-19.5q0 -20 16 -31.5t36 -11.5q16 0 28 -1t23 -1.5t23 -1.5t28 -1t25 -0.5t17 -0.5t17 -0.5t25 -0.5zM304 201q0 15 -0.5 23.5t-1.5 16t-1.5 16.5t-0.5 24t0.5 24t1.5 16.5t1.5 16.5t0.5 24t-1 23.5t-2 16
t-2 16.5t-1 24t-0.5 24t-0.5 16.5t-0.5 16.5t-0.5 24v23.5t0.5 16t0.5 16.5v24q0 20 -12 31.5t-32 11.5q-19 0 -30 1t-20.5 2.5t-20.5 3t-30 1.5q-26 0 -45.5 -20t-19.5 -46q0 -17 0.5 -27t0.5 -18.5t0.5 -18.5t0.5 -27v-27t-0.5 -18t-0.5 -18v-27v-27t-0.5 -18.5
t-0.5 -18.5v-27t1 -27t1.5 -18t1.5 -18t1 -27t-1 -27t-2.5 -18t-2.5 -18t-1 -27q0 -26 20.5 -42.5t46.5 -16.5q19 0 30 -1.5t20.5 -3t20.5 -2.5t30 -1q20 0 33 15.5t13 35.5q0 15 1 24t1.5 16.5t1.5 16.5t1 24z" />
    <glyph glyph-name="ae" unicode="&#xe6;" horiz-adv-x="707" 
d="M619 83q11 0 16 -8t5 -19v-12.5t0.5 -8.5t0.5 -8.5v-12.5q0 -11 -5.5 -17.5t-16.5 -6.5q-17 0 -26.5 0.5t-17.5 0.5t-18 0.5t-26 0.5h-26.5t-17.5 -0.5t-18 -0.5h-26q-17 0 -26.5 -1t-17.5 -1.5t-18 -1.5t-26 -1q-11 0 -16.5 8.5t-5.5 19.5q0 13 -0.5 20.5t-1.5 14
t-1.5 14t-0.5 20.5t1 20.5t1.5 14.5t1.5 14.5t1 20.5q0 19 -16 33t-36 14q-17 0 -23 2t-23 2q-31 0 -55 -19.5t-35 -48.5q-5 -12 -7 -19l-4 -13.5l-4.5 -14l-6.5 -19.5q-5 -12 -8.5 -19l-6.5 -13l-6.5 -13t-7.5 -19q-3 -8 -9 -14t-14 -6t-13 1t-9 1.5t-9 1.5t-14 1
q-14 0 -22.5 10t-3.5 23l9.5 22.5t7 15.5t7 15t8.5 23q6 15 9 23.5l5.5 15.5l5.5 15.5l8 22.5q6 15 9 23.5t5 16t5 16l8 22.5l9 23l6 15.5l6.5 15.5t9.5 23q5 14 7.5 22.5t4.5 16l4.5 16.5t8.5 23q5 15 9.5 23l8.5 14.5l8.5 14.5t9.5 23l8 22.5t5 16t5 16l8 23.5
q6 14 9 22.5t6 15.5t6 15.5t9 23.5q5 14 7 23t3.5 16.5t4 16.5t7.5 23q3 8 11.5 12.5t16.5 4.5q16 0 25 -0.5t17 -1t17 -1t24 -0.5h25t17 0.5t17 0.5h24q16 0 25 -0.5t17 -1t17 -1t25 -0.5h83q23 0 23 -22q0 -8 0.5 -12.5t1.5 -8.5t1.5 -8.5t0.5 -12.5q0 -11 -8 -20.5
t-19 -9.5h-75q-14 0 -22 0.5t-15 1t-15.5 1t-22.5 0.5q-20 0 -33 -13t-13 -33q0 -14 -0.5 -22.5t-1.5 -15.5t-1.5 -15.5t-0.5 -23.5q0 -14 1 -22.5t2.5 -15.5t3 -15.5t1.5 -23.5q0 -20 11 -33t31 -13q10 0 15.5 0.5t10.5 1.5t10.5 1.5t15.5 0.5q11 0 19.5 -9.5t8.5 -20.5
q0 -8 0.5 -12.5t0.5 -8.5t0.5 -8.5t0.5 -12.5q0 -11 -9.5 -18t-20.5 -7q-10 0 -15.5 0.5t-10.5 0.5t-10.5 0.5t-15.5 0.5q-20 0 -31 -15t-11 -35v-124q0 -20 11 -34t31 -14q14 0 22.5 -0.5t15.5 -0.5t15 -0.5t22 -0.5t22 0.5t15 1.5t15.5 1.5t22.5 0.5zM331 340v29t-0.5 20
t-0.5 20v29t0.5 29t1 20t1 20t0.5 29q0 7 -5.5 11.5t-12 6t-13 -1t-9.5 -9.5q-7 -18 -10.5 -29t-7 -20l-7.5 -20l-11 -29q-7 -19 -10 -30t-6 -20.5t-6 -20.5t-10 -29q-6 -15 -1.5 -24.5t14 -15.5t22.5 -8t24 -2q18 1 32.5 13t14.5 32z" />
    <glyph glyph-name="Agrave" unicode="&#xc0;" 
d="M96 848q-11 3 -15.5 13.5t0.5 21.5l5 13l3.5 9t4 9t5.5 13q5 11 14.5 15.5t19.5 -0.5q15 -8 24.5 -12t17 -8t17 -8.5l24.5 -11.5q15 -8 24.5 -12l17 -7t17 -7.5l24.5 -11.5q9 -5 13 -15.5t0 -20.5q-2 -7 -5 -8.5t-5 -8.5q-4 -10 -12.5 -14.5t-18.5 -1.5l-25.5 8
l-17.5 5.5l-18 5.5l-26 8zM399 33q2 -12 -6 -22.5t-21 -10.5q-8 0 -12.5 0.5t-8.5 1.5t-8.5 1.5t-12.5 0.5q-18 0 -23 18q-3 15 -4.5 23.5t-3 15.5t-3 15.5t-4.5 22.5q-3 15 -5 23.5t-3.5 15.5t-3.5 15.5t-5 22.5q-4 17 -18 27.5t-31 10.5q-10 0 -16 0.5t-11 0.5t-11 0.5
t-16 0.5q-17 0 -27.5 -12.5t-14.5 -28.5q-3 -15 -5.5 -23t-5.5 -15t-6 -15t-6 -23q-3 -14 -4 -22.5t-1.5 -16t-1.5 -16t-4 -23.5q-2 -9 -10 -15.5t-18 -6.5q-8 0 -12.5 -0.5t-8.5 -0.5t-9 -0.5t-13 -0.5q-12 0 -19.5 12t-4.5 24q3 16 5.5 25.5t4 17.5t4 17.5t5.5 25.5
t5.5 25.5t5 17.5t5 17.5t5.5 25.5q4 16 5 26t2 18.5t2 18t4 25.5l6.5 25.5t5 17.5l5.5 17.5t6 25.5q4 16 5.5 26t3 18t3 17.5t4.5 26.5q3 16 5 25.5t3 18t3 18t5 25.5l6.5 25.5t5 17.5t5 17.5t5.5 25.5l5 26l3.5 18t3 17.5t5.5 25.5q2 9 10 16.5t17 7.5t14 -0.5t9.5 -1.5
t10 -1.5t14.5 -0.5q19 0 24 -20q3 -17 6 -26t6 -17t6 -17.5t6 -25.5t4 -26t2 -18t2 -18t4 -26q4 -16 7 -25.5t6 -17.5t6 -17.5t6 -25.5t5 -25.5t4 -17.5t4 -17.5t6 -25.5q3 -17 5 -26.5t3.5 -17.5t3.5 -17.5t6 -25.5q3 -17 4 -26.5t2 -18t2 -18t4 -25.5q4 -17 7 -26t6 -17
t6 -17.5t6 -25.5t5 -25.5t3.5 -18t3.5 -18t5 -25.5zM212 310q12 0 18 7t4 19q-3 13 -4 20.5t-1 14.5t-0.5 14.5t-3.5 20.5t-5.5 20l-5 13.5l-5 13.5t-5.5 20q-2 7 -6 7t-6 -7q-3 -13 -4.5 -20.5t-3 -13.5t-3 -13.5t-4.5 -20.5t-5 -20l-4 -13.5t-4 -14t-5 -20.5
q-2 -12 6.5 -20t20.5 -8q10 0 13 0.5t13 0.5z" />
    <glyph glyph-name="Aacute" unicode="&#xc1;" 
d="M88 810q-2 8 -3.5 9.5t-3.5 9.5q-4 9 0 18t13 14l24 11t17 8t17 8t25 12q15 7 24 12t16 9.5t16 9.5l24 13q11 5 22.5 0t15.5 -16l5 -13t3.5 -9.5t3.5 -9.5l5 -13q4 -11 -0.5 -22.5t-15.5 -14.5q-17 -5 -26.5 -7.5t-18 -4.5t-18.5 -4t-26 -7l-26.5 -8t-17.5 -5l-18 -4.5
t-26 -7.5q-10 -3 -18.5 0t-12.5 12zM399 33q2 -12 -6 -22.5t-21 -10.5q-8 0 -12.5 0.5t-8.5 1.5t-8.5 1.5t-12.5 0.5q-18 0 -23 18q-3 15 -4.5 23.5t-3 15.5t-3 15.5t-4.5 22.5q-3 15 -5 23.5t-3.5 15.5t-3.5 15.5t-5 22.5q-4 17 -18 27.5t-31 10.5q-10 0 -16 0.5t-11 0.5
t-11 0.5t-16 0.5q-17 0 -27.5 -12.5t-14.5 -28.5q-3 -15 -5.5 -23t-5.5 -15t-6 -15t-6 -23q-3 -14 -4 -22.5t-1.5 -16t-1.5 -16t-4 -23.5q-2 -9 -10 -15.5t-18 -6.5q-8 0 -12.5 -0.5t-8.5 -0.5t-9 -0.5t-13 -0.5q-12 0 -19.5 12t-4.5 24q3 16 5.5 25.5t4 17.5t4 17.5
t5.5 25.5t5.5 25.5t5 17.5t5 17.5t5.5 25.5q4 16 5 26t2 18.5t2 18t4 25.5l6.5 25.5t5 17.5l5.5 17.5t6 25.5q4 16 5.5 26t3 18t3 17.5t4.5 26.5q3 16 5 25.5t3 18t3 18t5 25.5l6.5 25.5t5 17.5t5 17.5t5.5 25.5l5 26l3.5 18t3 17.5t5.5 25.5q2 9 10 16.5t17 7.5t14 -0.5
t9.5 -1.5t10 -1.5t14.5 -0.5q19 0 24 -20q3 -17 6 -26t6 -17t6 -17.5t6 -25.5t4 -26t2 -18t2 -18t4 -26q4 -16 7 -25.5t6 -17.5t6 -17.5t6 -25.5t5 -25.5t4 -17.5t4 -17.5t6 -25.5q3 -17 5 -26.5t3.5 -17.5t3.5 -17.5t6 -25.5q3 -17 4 -26.5t2 -18t2 -18t4 -25.5
q4 -17 7 -26t6 -17t6 -17.5t6 -25.5t5 -25.5t3.5 -18t3.5 -18t5 -25.5zM212 310q12 0 18 7t4 19q-3 13 -4 20.5t-1 14.5t-0.5 14.5t-3.5 20.5t-5.5 20l-5 13.5l-5 13.5t-5.5 20q-2 7 -6 7t-6 -7q-3 -13 -4.5 -20.5t-3 -13.5t-3 -13.5t-4.5 -20.5t-5 -20l-4 -13.5t-4 -14
t-5 -20.5q-2 -12 6.5 -20t20.5 -8q10 0 13 0.5t13 0.5z" />
    <glyph glyph-name="Acircumflex" unicode="&#xc2;" 
d="M88 812q-4 7 -6 11l-4 8l-4 8t-6 10q-5 10 -2.5 19.5t11.5 14.5q18 11 28.5 18l19 13l19 13t28.5 18q11 6 24 6.5t24 -5.5q18 -11 28 -18.5l18.5 -13.5l18.5 -13.5t28 -18.5q9 -5 13.5 -15t-1.5 -19l-22 -36q-6 -9 -17.5 -11.5t-20.5 2.5q-9 6 -14.5 9l-10 5.5l-9.5 5.5
t-14 9q-21 13 -43 -1l-14 -8t-9.5 -6t-9.5 -6t-14 -9q-9 -5 -21.5 -2t-17.5 12zM399 33q2 -12 -6 -22.5t-21 -10.5q-8 0 -12.5 0.5t-8.5 1.5t-8.5 1.5t-12.5 0.5q-18 0 -23 18q-3 15 -4.5 23.5t-3 15.5t-3 15.5t-4.5 22.5q-3 15 -5 23.5t-3.5 15.5t-3.5 15.5t-5 22.5
q-4 17 -18 27.5t-31 10.5q-10 0 -16 0.5t-11 0.5t-11 0.5t-16 0.5q-17 0 -27.5 -12.5t-14.5 -28.5q-3 -15 -5.5 -23t-5.5 -15t-6 -15t-6 -23q-3 -14 -4 -22.5t-1.5 -16t-1.5 -16t-4 -23.5q-2 -9 -10 -15.5t-18 -6.5q-8 0 -12.5 -0.5t-8.5 -0.5t-9 -0.5t-13 -0.5
q-12 0 -19.5 12t-4.5 24q3 16 5.5 25.5t4 17.5t4 17.5t5.5 25.5t5.5 25.5t5 17.5t5 17.5t5.5 25.5q4 16 5 26t2 18.5t2 18t4 25.5l6.5 25.5t5 17.5l5.5 17.5t6 25.5q4 16 5.5 26t3 18t3 17.5t4.5 26.5q3 16 5 25.5t3 18t3 18t5 25.5l6.5 25.5t5 17.5t5 17.5t5.5 25.5l5 26
l3.5 18t3 17.5t5.5 25.5q2 9 10 16.5t17 7.5t14 -0.5t9.5 -1.5t10 -1.5t14.5 -0.5q19 0 24 -20q3 -17 6 -26t6 -17t6 -17.5t6 -25.5t4 -26t2 -18t2 -18t4 -26q4 -16 7 -25.5t6 -17.5t6 -17.5t6 -25.5t5 -25.5t4 -17.5t4 -17.5t6 -25.5q3 -17 5 -26.5t3.5 -17.5t3.5 -17.5
t6 -25.5q3 -17 4 -26.5t2 -18t2 -18t4 -25.5q4 -17 7 -26t6 -17t6 -17.5t6 -25.5t5 -25.5t3.5 -18t3.5 -18t5 -25.5zM212 310q12 0 18 7t4 19q-3 13 -4 20.5t-1 14.5t-0.5 14.5t-3.5 20.5t-5.5 20l-5 13.5l-5 13.5t-5.5 20q-2 7 -6 7t-6 -7q-3 -13 -4.5 -20.5t-3 -13.5
t-3 -13.5t-4.5 -20.5t-5 -20l-4 -13.5t-4 -14t-5 -20.5q-2 -12 6.5 -20t20.5 -8q10 0 13 0.5t13 0.5z" />
    <glyph glyph-name="Atilde" unicode="&#xc3;" 
d="M87 818q-9 4 -17.5 10.5t-13.5 15.5q-8 12 -7.5 27t10.5 26q8 9 20 14.5l26 12.5q17 8 33 8.5t30 -2.5q19 -4 40 -17q8 -5 16 -11.5t18 -9.5q3 -2 9 -2q5 2 6.5 5t3.5 6t8 9q11 10 25 11q5 2 10 1.5t10 -2.5q14 -6 21 -17q8 -12 9 -26.5t-7 -26.5q-8 -11 -19.5 -21
t-28.5 -18t-33 -9.5t-30 2.5q-24 5 -40 15.5t-19 13.5q-8 7 -18.5 7.5t-18.5 -5.5l-12 -9q-8 -5 -15 -8t-16 0zM399 33q2 -12 -6 -22.5t-21 -10.5q-8 0 -12.5 0.5t-8.5 1.5t-8.5 1.5t-12.5 0.5q-18 0 -23 18q-3 15 -4.5 23.5t-3 15.5t-3 15.5t-4.5 22.5q-3 15 -5 23.5
t-3.5 15.5t-3.5 15.5t-5 22.5q-4 17 -18 27.5t-31 10.5q-10 0 -16 0.5t-11 0.5t-11 0.5t-16 0.5q-17 0 -27.5 -12.5t-14.5 -28.5q-3 -15 -5.5 -23t-5.5 -15t-6 -15t-6 -23q-3 -14 -4 -22.5t-1.5 -16t-1.5 -16t-4 -23.5q-2 -9 -10 -15.5t-18 -6.5q-8 0 -12.5 -0.5t-8.5 -0.5
t-9 -0.5t-13 -0.5q-12 0 -19.5 12t-4.5 24q3 16 5.5 25.5t4 17.5t4 17.5t5.5 25.5t5.5 25.5t5 17.5t5 17.5t5.5 25.5q4 16 5 26t2 18.5t2 18t4 25.5l6.5 25.5t5 17.5l5.5 17.5t6 25.5q4 16 5.5 26t3 18t3 17.5t4.5 26.5q3 16 5 25.5t3 18t3 18t5 25.5l6.5 25.5t5 17.5
t5 17.5t5.5 25.5l5 26l3.5 18t3 17.5t5.5 25.5q2 9 10 16.5t17 7.5t14 -0.5t9.5 -1.5t10 -1.5t14.5 -0.5q19 0 24 -20q3 -17 6 -26t6 -17t6 -17.5t6 -25.5t4 -26t2 -18t2 -18t4 -26q4 -16 7 -25.5t6 -17.5t6 -17.5t6 -25.5t5 -25.5t4 -17.5t4 -17.5t6 -25.5q3 -17 5 -26.5
t3.5 -17.5t3.5 -17.5t6 -25.5q3 -17 4 -26.5t2 -18t2 -18t4 -25.5q4 -17 7 -26t6 -17t6 -17.5t6 -25.5t5 -25.5t3.5 -18t3.5 -18t5 -25.5zM212 310q12 0 18 7t4 19q-3 13 -4 20.5t-1 14.5t-0.5 14.5t-3.5 20.5t-5.5 20l-5 13.5l-5 13.5t-5.5 20q-2 7 -6 7t-6 -7
q-3 -13 -4.5 -20.5t-3 -13.5t-3 -13.5t-4.5 -20.5t-5 -20l-4 -13.5t-4 -14t-5 -20.5q-2 -12 6.5 -20t20.5 -8q10 0 13 0.5t13 0.5z" />
    <glyph glyph-name="Adieresis" unicode="&#xc4;" 
d="M69 807q-19 0 -19 18v74q0 17 19 17q15 0 24 0.5t17 0.5t17 0.5t24 0.5q8 0 14 -5.5t6 -13.5v-22t0.5 -15t0.5 -15v-22q0 -8 -6.5 -15t-14.5 -7q-15 0 -24 0.5t-17 1.5t-17 1.5t-24 0.5zM246 802q-8 0 -14.5 7.5t-6.5 15.5q0 14 0.5 22t1 15t1 15t0.5 22q0 17 18 17
q16 0 25 0.5t17 0.5t17 0.5t24 0.5q18 0 18 -19q0 -14 0.5 -22t1 -15t1 -15t0.5 -22q0 -8 -6.5 -12.5t-14.5 -4.5q-15 0 -24 -1t-17 -2t-17 -2t-25 -1zM399 33q2 -12 -6 -22.5t-21 -10.5q-8 0 -12.5 0.5t-8.5 1.5t-8.5 1.5t-12.5 0.5q-18 0 -23 18q-3 15 -4.5 23.5t-3 15.5
t-3 15.5t-4.5 22.5q-3 15 -5 23.5t-3.5 15.5t-3.5 15.5t-5 22.5q-4 17 -18 27.5t-31 10.5q-10 0 -16 0.5t-11 0.5t-11 0.5t-16 0.5q-17 0 -27.5 -12.5t-14.5 -28.5q-3 -15 -5.5 -23t-5.5 -15t-6 -15t-6 -23q-3 -14 -4 -22.5t-1.5 -16t-1.5 -16t-4 -23.5q-2 -9 -10 -15.5
t-18 -6.5q-8 0 -12.5 -0.5t-8.5 -0.5t-9 -0.5t-13 -0.5q-12 0 -19.5 12t-4.5 24q3 16 5.5 25.5t4 17.5t4 17.5t5.5 25.5t5.5 25.5t5 17.5t5 17.5t5.5 25.5q4 16 5 26t2 18.5t2 18t4 25.5l6.5 25.5t5 17.5l5.5 17.5t6 25.5q4 16 5.5 26t3 18t3 17.5t4.5 26.5q3 16 5 25.5
t3 18t3 18t5 25.5l6.5 25.5t5 17.5t5 17.5t5.5 25.5l5 26l3.5 18t3 17.5t5.5 25.5q2 9 10 16.5t17 7.5t14 -0.5t9.5 -1.5t10 -1.5t14.5 -0.5q19 0 24 -20q3 -17 6 -26t6 -17t6 -17.5t6 -25.5t4 -26t2 -18t2 -18t4 -26q4 -16 7 -25.5t6 -17.5t6 -17.5t6 -25.5t5 -25.5
t4 -17.5t4 -17.5t6 -25.5q3 -17 5 -26.5t3.5 -17.5t3.5 -17.5t6 -25.5q3 -17 4 -26.5t2 -18t2 -18t4 -25.5q4 -17 7 -26t6 -17t6 -17.5t6 -25.5t5 -25.5t3.5 -18t3.5 -18t5 -25.5zM212 310q12 0 18 7t4 19q-3 13 -4 20.5t-1 14.5t-0.5 14.5t-3.5 20.5t-5.5 20l-5 13.5
l-5 13.5t-5.5 20q-2 7 -6 7t-6 -7q-3 -13 -4.5 -20.5t-3 -13.5t-3 -13.5t-4.5 -20.5t-5 -20l-4 -13.5t-4 -14t-5 -20.5q-2 -12 6.5 -20t20.5 -8q10 0 13 0.5t13 0.5z" />
    <glyph glyph-name="Aring" unicode="&#xc5;" 
d="M197 788q-20 0 -39 8t-33 22q-13 14 -19.5 33t-6.5 39t8 37.5t22 31.5q25 27 68 27q21 0 39.5 -5t32.5 -19t19 -33t5 -39q0 -42 -27 -69q-13 -14 -30.5 -23.5t-38.5 -9.5zM197 920q-12 0 -21 -9t-9 -21t9 -22t21 -10q13 0 20 10t7 22t-7 21t-20 9zM399 33q2 -12 -6 -22.5
t-21 -10.5q-8 0 -12.5 0.5t-8.5 1.5t-8.5 1.5t-12.5 0.5q-18 0 -23 18q-3 15 -4.5 23.5t-3 15.5t-3 15.5t-4.5 22.5q-3 15 -5 23.5t-3.5 15.5t-3.5 15.5t-5 22.5q-4 17 -18 27.5t-31 10.5q-10 0 -16 0.5t-11 0.5t-11 0.5t-16 0.5q-17 0 -27.5 -12.5t-14.5 -28.5
q-3 -15 -5.5 -23t-5.5 -15t-6 -15t-6 -23q-3 -14 -4 -22.5t-1.5 -16t-1.5 -16t-4 -23.5q-2 -9 -10 -15.5t-18 -6.5q-8 0 -12.5 -0.5t-8.5 -0.5t-9 -0.5t-13 -0.5q-12 0 -19.5 12t-4.5 24q3 16 5.5 25.5t4 17.5t4 17.5t5.5 25.5t5.5 25.5t5 17.5t5 17.5t5.5 25.5q4 16 5 26
t2 18.5t2 18t4 25.5l6.5 25.5t5 17.5l5.5 17.5t6 25.5q4 16 5.5 26t3 18t3 17.5t4.5 26.5q3 16 5 25.5t3 18t3 18t5 25.5l6.5 25.5t5 17.5t5 17.5t5.5 25.5l5 26l3.5 18t3 17.5t5.5 25.5q2 9 10 16.5t17 7.5t14 -0.5t9.5 -1.5t10 -1.5t14.5 -0.5q19 0 24 -20q3 -17 6 -26
t6 -17t6 -17.5t6 -25.5t4 -26t2 -18t2 -18t4 -26q4 -16 7 -25.5t6 -17.5t6 -17.5t6 -25.5t5 -25.5t4 -17.5t4 -17.5t6 -25.5q3 -17 5 -26.5t3.5 -17.5t3.5 -17.5t6 -25.5q3 -17 4 -26.5t2 -18t2 -18t4 -25.5q4 -17 7 -26t6 -17t6 -17.5t6 -25.5t5 -25.5t3.5 -18t3.5 -18
t5 -25.5zM212 310q12 0 18 7t4 19q-3 13 -4 20.5t-1 14.5t-0.5 14.5t-3.5 20.5t-5.5 20l-5 13.5l-5 13.5t-5.5 20q-2 7 -6 7t-6 -7q-3 -13 -4.5 -20.5t-3 -13.5t-3 -13.5t-4.5 -20.5t-5 -20l-4 -13.5t-4 -14t-5 -20.5q-2 -12 6.5 -20t20.5 -8q10 0 13 0.5t13 0.5z" />
    <glyph glyph-name="Aogonek" unicode="&#x104;" 
d="M448 -109q10 -8 9.5 -20.5t-10.5 -20.5q-25 -20 -62 -26q-16 -2 -32 -4.5t-33 2.5q-19 6 -33.5 19.5t-26.5 28.5q-13 15 -23.5 31.5t-13.5 36.5q-2 21 3.5 40t13.5 36q8 18 19 31.5t22 23.5h1q13 10 10 25q0 2 -0.5 3t-0.5 2q-3 14 -5 22.5t-3.5 16t-3.5 15.5t-5 22
q-4 17 -18 28t-31 11q-10 0 -16 0.5t-11 0.5t-10.5 0.5t-15.5 0.5q-15 0 -26.5 -9.5t-14.5 -24.5q-3 -17 -6 -26.5t-6 -17t-6 -16t-6 -23.5q-3 -14 -4 -22.5t-2 -16t-2 -16t-4 -23.5q-2 -9 -10 -15.5t-18 -6.5q-15 0 -20.5 -1t-18.5 -1q-14 0 -22.5 10.5t-5.5 24.5
q3 16 5.5 26t4 18t4 17.5t5.5 25.5l6.5 25.5l4.5 17.5l4.5 17.5l6.5 25.5q3 16 4 26t2 18.5t2 18t5 25.5q3 16 6 25.5l5.5 17.5t5 17.5l6.5 25.5q3 16 4.5 26t3 18t3 17.5t4.5 26.5q3 16 5 25.5t3.5 18t3 18t5.5 25.5q3 16 5.5 25.5t5 17.5t5 17.5t5.5 25.5q4 16 5.5 26
t3 18t3.5 17.5t5 26.5q2 10 10.5 16.5t18.5 6.5q16 0 22.5 -2t23.5 -2q19 0 24 -19q3 -17 6 -26.5t6 -17.5t6 -17.5t6 -25.5t4 -26t2 -18t2 -18t5 -26q3 -16 6 -25.5t6 -17.5t6 -17.5t6 -25.5t5.5 -25.5t4 -17.5t4 -17.5t5.5 -25.5q3 -17 5 -26.5t4 -17.5t4 -17.5t5 -25.5
q3 -17 4 -26.5t2 -18t2 -18t5 -25.5q3 -17 6 -26t6 -17t6 -17.5t6 -25.5t5 -25.5t3.5 -18t3.5 -18t5 -25.5q3 -13 -5 -23t-21 -10h-6q-18 1 -31.5 -10.5t-14.5 -29.5q0 -7 1 -11q3 -20 23 -28q12 -5 22.5 -7t20.5 5q6 4 14.5 4t13.5 -5q13 -11 17.5 -14t15.5 -13zM211 310
q12 0 18 7t4 19q-3 13 -4 20.5t-1 14.5t-0.5 14.5t-3.5 20.5t-5.5 20l-5 13.5l-5 13.5t-5.5 20q-1 7 -5.5 7t-6.5 -7l-14 -68q-3 -13 -5 -20t-4.5 -13.5t-4.5 -14t-5 -20.5q-2 -12 6.5 -20t21.5 -8q9 0 12 0.5t13 0.5z" />
    <glyph glyph-name="Ccedilla" unicode="&#xc7;" 
d="M365 150q12 0 19.5 -10t4.5 -22q-6 -38 -27 -66t-56 -44q-16 -8 -33 -11.5t-36 -3.5q-14 0 -22.5 -1t-15.5 -1.5t-15.5 -1.5t-23.5 -1q-21 0 -41.5 6t-37.5 16q-18 11 -29.5 28t-22.5 35q-20 35 -20 76q0 17 -0.5 27t-1.5 18t-1.5 18t-0.5 27t-0.5 27t-1 18t-1 18
t-0.5 27t-0.5 27t-0.5 18.5t-0.5 18.5t-0.5 27v90v91q0 21 9 40t20 36q10 17 23.5 31.5t31.5 25.5q17 10 36 18.5t40 8.5q15 0 23.5 -0.5t15.5 -0.5t15.5 -0.5t22.5 -0.5q19 0 35.5 -6t32.5 -14t31.5 -18t26.5 -24q22 -29 30 -65q2 -12 -7 -22.5t-21 -10.5q-8 0 -13 -0.5
t-9 -0.5t-9 -0.5t-13 -0.5t-17 6t-11 14q-6 20 -20.5 32.5t-35.5 12.5h-77q-26 0 -45 -17.5t-19 -43.5q0 -17 -0.5 -27t-0.5 -18.5t-0.5 -18.5t-0.5 -27t0.5 -27t0.5 -18t0.5 -18t0.5 -27t-0.5 -27t-0.5 -18.5t-0.5 -18.5t-0.5 -27t0.5 -27t1.5 -18t1.5 -18t0.5 -27t0.5 -27
t0.5 -18t0.5 -18t0.5 -27q0 -26 17 -44.5t43 -18.5q15 0 23.5 -0.5t15.5 -1.5t15.5 -1.5t22.5 -0.5q21 0 38.5 14t23.5 34q2 8 8 14.5t14 6.5h13t9 -0.5t9 -0.5h13zM249 -90q20 -14 33.5 -34t12.5 -46q0 -25 -13 -45t-31 -33q-19 -13 -41.5 -17t-46.5 3q-32 8 -46 28t-19 39
q-2 12 6 21.5t20 9.5q7 0 9 1t10 1t15 -5.5t10 -13.5q2 -6 7.5 -12t18.5 -6q14 0 23.5 12t4.5 27q-3 10 -11 16.5t-18 6.5q-19 0 -33.5 12t-14.5 31q0 10 2.5 13t2.5 12q0 11 6 17.5t17 6.5h12.5t8.5 0.5t8.5 0.5h12.5q11 0 18.5 -7t7.5 -18q0 -6 1.5 -12t6.5 -9z" />
    <glyph glyph-name="Cacute" unicode="&#x106;" 
d="M365 150q12 0 19.5 -10t4.5 -22q-6 -38 -27 -66q-23 -29 -56 -44q-16 -8 -33 -11.5t-36 -3.5q-14 0 -22.5 -1t-15.5 -1.5t-15.5 -1.5t-23.5 -1q-21 0 -41.5 6t-37.5 16q-18 11 -29.5 28t-22.5 35q-20 35 -20 76q0 17 -0.5 27t-1.5 18t-1.5 18t-0.5 27t-0.5 27t-1 18
t-1 18t-0.5 27t-0.5 27t-0.5 18.5t-0.5 18.5t-0.5 27v90v91q0 21 9 40t20 36q10 17 23.5 31.5t31.5 25.5q17 10 36 18.5t40 8.5q15 0 23.5 -0.5t15.5 -0.5t15.5 -0.5t22.5 -0.5q19 0 35.5 -6t32.5 -14t31.5 -18t26.5 -24q22 -29 30 -65q2 -12 -7 -22.5t-21 -10.5
q-8 0 -13 -0.5t-9 -0.5t-9 -0.5t-13 -0.5t-17 6t-11 14q-6 20 -20.5 32.5t-35.5 12.5h-77q-26 0 -45 -17.5t-19 -43.5q0 -17 -0.5 -27t-0.5 -18.5t-0.5 -18.5t-0.5 -27t0.5 -27t0.5 -18t0.5 -18t0.5 -27t-0.5 -27t-0.5 -18.5t-0.5 -18.5t-0.5 -27t0.5 -27t1.5 -18t1.5 -18
t0.5 -27t0.5 -27t0.5 -18t0.5 -18t0.5 -27q0 -26 17 -44.5t43 -18.5q15 0 23.5 -0.5t15.5 -1.5t15.5 -1.5t22.5 -0.5q21 0 38.5 14t23.5 34q2 8 8 14.5t14 6.5h13t9 -0.5t9 -0.5h13zM89 810q-3 8 -4 9.5t-4 9.5q-4 9 0 18t13 14l25 11t17 8t17 8t24 12q15 7 24 12t16 9.5
t16 9.5l24 13q11 5 22.5 0t15.5 -16l5 -13t3.5 -9.5t3.5 -9.5l5 -13q5 -11 0 -22.5t-16 -14.5q-17 -5 -26.5 -7.5t-18 -4.5t-18.5 -4t-26 -7l-25.5 -8t-18 -5l-18.5 -4.5t-26 -7.5q-10 -3 -18.5 0t-11.5 12z" />
    <glyph glyph-name="Egrave" unicode="&#xc8;" horiz-adv-x="422" 
d="M312 99q11 0 18 -9.5t7 -20.5v-12.5t-0.5 -8.5t-0.5 -8.5v-12.5q0 -11 -6.5 -16.5t-17.5 -5.5q-17 0 -26.5 -0.5t-17.5 -1.5t-18 -1.5t-26 -0.5q-17 0 -29.5 0.5t-24 1.5t-24.5 1.5t-29 0.5q-17 0 -26.5 -1t-17.5 -2t-18 -2t-26 -1q-11 0 -19.5 8.5t-8.5 19.5
q0 16 0.5 26t1.5 18t1.5 17.5t0.5 25.5t-0.5 25.5t-1 17.5t-1 17.5t-0.5 26.5q0 16 1 25.5t2 17.5t2 17.5t1 26.5q0 16 -1 25.5t-1.5 17.5t-1.5 17.5t-1 25.5v26t0.5 18t0.5 17.5v25.5t-0.5 26t-1.5 18t-1.5 17.5t-0.5 25.5t1 25.5t2.5 17.5t2.5 17.5t1 26.5v87
q0 11 5.5 19.5t16.5 8.5h26t18 0.5t17.5 0.5h26.5q16 0 29 -1t24.5 -2.5t24 -2.5t29.5 -1h26t18 0.5t17.5 0.5h26.5q11 0 19.5 -6t8.5 -17q0 -8 0.5 -12.5t0.5 -8.5t0.5 -8.5t0.5 -12.5q0 -11 -9.5 -18t-20.5 -7q-14 0 -22.5 -0.5t-15.5 -1.5t-15 -1.5t-22 -0.5
q-28 0 -46.5 3t-46.5 3q-20 0 -32.5 -15t-12.5 -35q0 -14 -1 -22.5t-1.5 -15.5t-1.5 -15.5t-1 -23.5v-22.5t-0.5 -15.5t-0.5 -15.5v-23.5q0 -20 15.5 -32t35.5 -12q19 0 34.5 0.5t35.5 0.5q11 0 16 -9t5 -20q0 -8 1 -12.5t2.5 -8.5t2.5 -8.5t1 -12.5q0 -11 -8.5 -19
t-19.5 -8q-20 0 -35.5 2t-34.5 2q-20 0 -34 -15t-14 -35q0 -23 -0.5 -36.5t-1 -25.5t-1 -25.5t-0.5 -36.5q0 -20 15.5 -35t35.5 -15q28 0 46.5 1t46.5 1q14 0 22 1t15 1.5t15.5 1.5t22.5 1zM71 848q-11 3 -15.5 13.5t-0.5 21.5q3 8 5.5 13t4 9l3.5 9l5 13q5 11 14.5 15.5
t20.5 -0.5l82 -40q15 -8 24.5 -12l17 -7t17 -7.5l24.5 -11.5q9 -5 13.5 -15.5t0.5 -20.5q-3 -7 -5.5 -8.5t-5.5 -8.5q-4 -10 -12 -14.5t-18 -1.5l-26.5 8l-17.5 5.5l-18 5.5l-26 8l-25.5 8t-17.5 5t-18 5z" />
    <glyph glyph-name="Eacute" unicode="&#xc9;" horiz-adv-x="422" 
d="M312 99q11 0 18 -9.5t7 -20.5v-12.5t-0.5 -8.5t-0.5 -8.5v-12.5q0 -11 -6.5 -16.5t-17.5 -5.5q-17 0 -26.5 -0.5t-17.5 -1.5t-18 -1.5t-26 -0.5q-17 0 -29.5 0.5t-24 1.5t-24.5 1.5t-29 0.5q-17 0 -26.5 -1t-17.5 -2t-18 -2t-26 -1q-11 0 -19.5 8.5t-8.5 19.5
q0 16 0.5 26t1.5 18t1.5 17.5t0.5 25.5t-0.5 25.5t-1 17.5t-1 17.5t-0.5 26.5q0 16 1 25.5t2 17.5t2 17.5t1 26.5q0 16 -1 25.5t-1.5 17.5t-1.5 17.5t-1 25.5v26t0.5 18t0.5 17.5v25.5t-0.5 26t-1.5 18t-1.5 17.5t-0.5 25.5t1 25.5t2.5 17.5t2.5 17.5t1 26.5v87
q0 11 5.5 19.5t16.5 8.5h26t18 0.5t17.5 0.5h26.5q16 0 29 -1t24.5 -2.5t24 -2.5t29.5 -1h26t18 0.5t17.5 0.5h26.5q11 0 19.5 -6t8.5 -17q0 -8 0.5 -12.5t0.5 -8.5t0.5 -8.5t0.5 -12.5q0 -11 -9.5 -18t-20.5 -7q-14 0 -22.5 -0.5t-15.5 -1.5t-15 -1.5t-22 -0.5
q-28 0 -46.5 3t-46.5 3q-20 0 -32.5 -15t-12.5 -35q0 -14 -1 -22.5t-1.5 -15.5t-1.5 -15.5t-1 -23.5v-22.5t-0.5 -15.5t-0.5 -15.5v-23.5q0 -20 15.5 -32t35.5 -12q19 0 34.5 0.5t35.5 0.5q11 0 16 -9t5 -20q0 -8 1 -12.5t2.5 -8.5t2.5 -8.5t1 -12.5q0 -11 -8.5 -19
t-19.5 -8q-20 0 -35.5 2t-34.5 2q-20 0 -34 -15t-14 -35q0 -23 -0.5 -36.5t-1 -25.5t-1 -25.5t-0.5 -36.5q0 -20 15.5 -35t35.5 -15q28 0 46.5 1t46.5 1q14 0 22 1t15 1.5t15.5 1.5t22.5 1zM63 810q-3 8 -4 9.5t-4 9.5q-4 9 0 18t14 14l24 11t17 8t17 8t24 12q15 7 24 12
l16.5 9.5l16 9.5t24.5 13q10 5 21.5 0t15.5 -16l5 -13t3.5 -9.5t3.5 -9.5l5 -13q5 -11 0 -22.5t-16 -14.5q-17 -5 -26.5 -7.5t-18 -4.5t-18.5 -4t-26 -7l-25.5 -8t-18 -5l-18.5 -4.5t-26 -7.5q-9 -3 -17.5 0t-12.5 12z" />
    <glyph glyph-name="Ecircumflex" unicode="&#xca;" horiz-adv-x="422" 
d="M312 99q11 0 18 -9.5t7 -20.5v-12.5t-0.5 -8.5t-0.5 -8.5v-12.5q0 -11 -6.5 -16.5t-17.5 -5.5q-17 0 -26.5 -0.5t-17.5 -1.5t-18 -1.5t-26 -0.5q-17 0 -29.5 0.5t-24 1.5t-24.5 1.5t-29 0.5q-17 0 -26.5 -1t-17.5 -2t-18 -2t-26 -1q-11 0 -19.5 8.5t-8.5 19.5
q0 16 0.5 26t1.5 18t1.5 17.5t0.5 25.5t-0.5 25.5t-1 17.5t-1 17.5t-0.5 26.5q0 16 1 25.5t2 17.5t2 17.5t1 26.5q0 16 -1 25.5t-1.5 17.5t-1.5 17.5t-1 25.5v26t0.5 18t0.5 17.5v25.5t-0.5 26t-1.5 18t-1.5 17.5t-0.5 25.5t1 25.5t2.5 17.5t2.5 17.5t1 26.5v87
q0 11 5.5 19.5t16.5 8.5h26t18 0.5t17.5 0.5h26.5q16 0 29 -1t24.5 -2.5t24 -2.5t29.5 -1h26t18 0.5t17.5 0.5h26.5q11 0 19.5 -6t8.5 -17q0 -8 0.5 -12.5t0.5 -8.5t0.5 -8.5t0.5 -12.5q0 -11 -9.5 -18t-20.5 -7q-14 0 -22.5 -0.5t-15.5 -1.5t-15 -1.5t-22 -0.5
q-28 0 -46.5 3t-46.5 3q-20 0 -32.5 -15t-12.5 -35q0 -14 -1 -22.5t-1.5 -15.5t-1.5 -15.5t-1 -23.5v-22.5t-0.5 -15.5t-0.5 -15.5v-23.5q0 -20 15.5 -32t35.5 -12q19 0 34.5 0.5t35.5 0.5q11 0 16 -9t5 -20q0 -8 1 -12.5t2.5 -8.5t2.5 -8.5t1 -12.5q0 -11 -8.5 -19
t-19.5 -8q-20 0 -35.5 2t-34.5 2q-20 0 -34 -15t-14 -35q0 -23 -0.5 -36.5t-1 -25.5t-1 -25.5t-0.5 -36.5q0 -20 15.5 -35t35.5 -15q28 0 46.5 1t46.5 1q14 0 22 1t15 1.5t15.5 1.5t22.5 1zM62 812q-4 7 -6 11t-3.5 8t-3.5 8t-6 10q-6 10 -3.5 19.5t12.5 14.5q18 11 28 18
l19 13l19 13t28 18q11 6 24 6.5t24 -5.5q18 -11 28 -18.5t19 -13.5t19 -13.5t28 -18.5q9 -5 13 -15t-1 -19q-4 -7 -6.5 -11t-5 -7t-5 -7t-6.5 -11q-5 -9 -17 -11.5t-21 2.5q-9 6 -14 9l-9.5 5.5l-9.5 5.5t-14 9q-21 14 -44 -1l-14 -8t-9.5 -6t-9.5 -6t-14 -9q-9 -5 -21 -2
t-18 12z" />
    <glyph glyph-name="Edieresis" unicode="&#xcb;" horiz-adv-x="422" 
d="M312 99q11 0 18 -9.5t7 -20.5v-12.5t-0.5 -8.5t-0.5 -8.5v-12.5q0 -11 -6.5 -16.5t-17.5 -5.5q-17 0 -26.5 -0.5t-17.5 -1.5t-18 -1.5t-26 -0.5q-17 0 -29.5 0.5t-24 1.5t-24.5 1.5t-29 0.5q-17 0 -26.5 -1t-17.5 -2t-18 -2t-26 -1q-11 0 -19.5 8.5t-8.5 19.5
q0 16 0.5 26t1.5 18t1.5 17.5t0.5 25.5t-0.5 25.5t-1 17.5t-1 17.5t-0.5 26.5q0 16 1 25.5t2 17.5t2 17.5t1 26.5q0 16 -1 25.5t-1.5 17.5t-1.5 17.5t-1 25.5v26t0.5 18t0.5 17.5v25.5t-0.5 26t-1.5 18t-1.5 17.5t-0.5 25.5t1 25.5t2.5 17.5t2.5 17.5t1 26.5v87
q0 11 5.5 19.5t16.5 8.5h26t18 0.5t17.5 0.5h26.5q16 0 29 -1t24.5 -2.5t24 -2.5t29.5 -1h26t18 0.5t17.5 0.5h26.5q11 0 19.5 -6t8.5 -17q0 -8 0.5 -12.5t0.5 -8.5t0.5 -8.5t0.5 -12.5q0 -11 -9.5 -18t-20.5 -7q-14 0 -22.5 -0.5t-15.5 -1.5t-15 -1.5t-22 -0.5
q-28 0 -46.5 3t-46.5 3q-20 0 -32.5 -15t-12.5 -35q0 -14 -1 -22.5t-1.5 -15.5t-1.5 -15.5t-1 -23.5v-22.5t-0.5 -15.5t-0.5 -15.5v-23.5q0 -20 15.5 -32t35.5 -12q19 0 34.5 0.5t35.5 0.5q11 0 16 -9t5 -20q0 -8 1 -12.5t2.5 -8.5t2.5 -8.5t1 -12.5q0 -11 -8.5 -19
t-19.5 -8q-20 0 -35.5 2t-34.5 2q-20 0 -34 -15t-14 -35q0 -23 -0.5 -36.5t-1 -25.5t-1 -25.5t-0.5 -36.5q0 -20 15.5 -35t35.5 -15q28 0 46.5 1t46.5 1q14 0 22 1t15 1.5t15.5 1.5t22.5 1zM40 807q-19 0 -19 18v74q0 17 19 17q15 0 24 0.5t17 0.5t17 0.5t24 0.5
q8 0 14 -5.5t6 -13.5v-22t0.5 -15t0.5 -15v-22q0 -8 -6.5 -15t-14.5 -7q-15 0 -24 0.5t-17 1.5t-17 1.5t-24 0.5zM217 802q-8 0 -14 7.5t-6 15.5q0 14 0.5 22t0.5 15t0.5 15t0.5 22q0 17 18 17q16 0 25 0.5t17 0.5t17 0.5t24 0.5q18 0 18 -19q0 -14 0.5 -22t1 -15t1 -15
t0.5 -22q0 -8 -6.5 -12.5t-14.5 -4.5q-15 0 -24 -1t-17 -2t-17 -2t-25 -1z" />
    <glyph glyph-name="Eogonek" unicode="&#x118;" horiz-adv-x="422" 
d="M406 -109q9 -8 9 -20.5t-10 -20.5q-25 -20 -62 -26q-16 -2 -32 -4.5t-33 2.5q-20 6 -34 19.5t-27 28.5q-12 15 -23 31.5t-13 36.5q-3 17 2 36q1 6 -3.5 11t-11 9.5t-14.5 7.5t-14 3h-23q-17 0 -26.5 -1t-17.5 -2t-18 -2t-26 -1q-12 0 -20 8.5t-8 19.5q0 16 0.5 26t1.5 18
t1.5 17.5t0.5 25.5t-0.5 25.5t-1 17.5t-1 17.5t-0.5 26.5q0 16 1 25.5t2 17.5t2 17.5t1 26.5q0 16 -1 25.5t-1.5 17.5t-1.5 17.5t-1 25.5v26t0.5 18t0.5 17.5v25.5t-0.5 26t-1.5 18t-1.5 17.5t-0.5 25.5t1 25.5t2.5 17.5t2.5 17.5t1 26.5v88q0 11 8 19t19 8h23.5t16.5 0.5
t17.5 0.5h25.5t29 -1t24.5 -2.5t24 -2.5t29.5 -1h26t18 0.5t18 0.5h27q11 0 19 -8t8 -19q1 -13 1.5 -18t0.5 -20q0 -11 -7.5 -18t-18.5 -7q-16 0 -24.5 -0.5t-16 -1t-15.5 -1.5t-23 -1q-27 0 -46 3t-45 3q-20 0 -33.5 -14t-13.5 -34q0 -15 -1 -23.5t-1.5 -16t-1.5 -16
t-1 -23.5v-22t-0.5 -15t-0.5 -15.5v-21.5q0 -20 13.5 -33.5t32.5 -13.5q23 0 39 0.5t36 0.5q9 0 15.5 -6.5t5.5 -16.5t0 -15.5t2.5 -10l3 -9t1.5 -13.5q0 -11 -8 -19t-19 -8q-20 0 -35.5 2t-35.5 2t-34 -14.5t-14 -34.5q0 -24 -0.5 -37.5t-1 -25.5t-1 -25.5t-0.5 -36.5
q0 -20 14.5 -35t35.5 -15q14 0 25 0.5t21.5 0.5t22 0.5t25.5 0.5q13 0 21.5 1t15 1.5t14.5 1.5t21 1q11 0 19.5 -8t8.5 -20q0 -17 -0.5 -22.5t-0.5 -21.5t-16 -21q-20 -9 -33.5 -25t-7.5 -37q5 -15 21 -22q13 -5 23.5 -7.5t21.5 4.5q6 4 14 4t14 -5q13 -11 17.5 -14
t15.5 -13z" />
    <glyph glyph-name="oslash" unicode="&#xf8;" horiz-adv-x="508" 
d="M408 427v-27t0.5 -18t0.5 -18v-27t0.5 -27t0.5 -18.5t0.5 -18.5t0.5 -27t-0.5 -27t-0.5 -18t-0.5 -18t-0.5 -27q0 -22 -6.5 -41t-17.5 -36q-19 -36 -56 -57q-23 -14 -45 -18t-48 -3q-21 1 -38.5 -5.5t-28.5 -25.5q-4 -6 -7 -12.5t-7.5 -12t-10 -8.5t-14.5 -1q-6 1 -15 2
t-18 3.5t-16 6t-9 10.5q-1 4 -1 12q0 17 1 36.5t-13 32.5q-14 11 -25 23t-19 28q-14 31 -14 66q0 17 0.5 27t0.5 18t0.5 18t0.5 27t-0.5 27t-0.5 18.5t-0.5 18.5t-0.5 27t0.5 27t1 18t1 18t0.5 27t-1 27t-2 18t-2 18t-1 27t0.5 27t0.5 18.5t0.5 18.5t0.5 27q0 21 6.5 40.5
t16.5 36.5q11 18 24 33t31 26q35 20 78 20q13 0 17 -1.5t17 -1.5q14 0 27 7t21 18q6 8 7 19.5t7 18.5q5 5 13 7t14 1q8 -2 12.5 -3.5t8 -2.5t8 -2.5t12.5 -3.5q19 -4 19.5 -17.5t-1.5 -28.5q-1 -8 -1 -15.5t3 -13.5q5 -11 12.5 -18.5l15.5 -15.5t12.5 -18t9.5 -20
q8 -16 13 -32t5 -33t0.5 -27t1 -18.5t1 -18.5t0.5 -27t-0.5 -27t-1 -18t-1 -18t-0.5 -27zM174 458q3 14 4 22.5t2 16t2.5 16t4.5 22.5t5 22.5l3.5 15l3.5 15t5 22.5q3 13 -0.5 25t-11.5 20.5t-19.5 13t-24.5 1.5q-21 -5 -36.5 -22.5t-16.5 -39.5q0 -18 -1 -27t-2.5 -16.5
t-2.5 -18t-1 -31.5q-1 -21 1.5 -44.5t2.5 -49.5q-1 -23 -2.5 -46.5t-1.5 -46.5q0 -25 -0.5 -48.5t-0.5 -45.5q0 -8 5.5 -12t11.5 -4.5t11.5 2.5t7.5 11q3 14 5 22.5t3.5 15.5t3.5 15.5t5 22.5t5.5 22.5l4.5 15t4 15t5 22.5t4.5 22.5t3 15.5t3 15.5t4.5 22.5zM323 308
q0 19 -2.5 37.5t-1.5 38.5q0 20 1.5 39t1.5 38q0 20 0.5 39.5t0.5 36.5q0 8 -5.5 12t-11.5 4.5t-12 -3t-7 -10.5q-3 -15 -5.5 -23.5t-4 -15.5t-3.5 -15.5t-5 -22.5q-3 -15 -5 -23l-4 -15.5t-4.5 -15.5t-5.5 -23t-4.5 -23.5t-3 -15.5t-3 -15.5t-4.5 -22.5q-3 -15 -4.5 -23.5
t-2.5 -16t-2 -16t-4 -23.5q-3 -14 -5 -22.5t-4 -15.5t-4 -15.5t-5 -23.5q-3 -12 0.5 -24t11 -20.5t18.5 -13t24 -2.5q23 4 39 22t16 41q0 14 1 21.5t1.5 13.5t1.5 15t1 26q1 17 2.5 36t2.5 40z" />
    <glyph glyph-name="Igrave" unicode="&#xcc;" horiz-adv-x="180" 
d="M93 551q0 -16 1 -25.5t1.5 -17.5t1.5 -18t1 -26t-1 -25.5t-1.5 -17.5t-1.5 -18t-1 -26t0.5 -25.5t1 -17.5t1 -17.5t0.5 -25.5v-87q0 -17 -0.5 -26.5t-1.5 -17.5t-1.5 -17.5t-0.5 -25.5t0.5 -25.5t1 -17.5t1 -18t0.5 -26q0 -11 -6.5 -19t-17.5 -8h-12.5t-8.5 0.5t-8.5 0.5
h-12.5q-11 0 -18.5 7.5t-7.5 18.5q0 16 0.5 26t1.5 18t1.5 17.5t0.5 25.5t-1 26t-2.5 18t-2.5 17.5t-1 25.5t1 25.5t2 17.5t2 17.5t1 26.5v25.5t0.5 17.5t0.5 17.5v26.5q0 16 -1 25.5t-2.5 17.5t-2.5 17.5t-1 25.5t0.5 26t0.5 18t0.5 17.5t0.5 25.5t0.5 26t1 18t1 17.5
t0.5 25.5t-0.5 25.5t-1 17.5t-1 17.5t-0.5 26.5q0 11 8 17.5t19 6.5q8 0 12.5 -0.5t8.5 -0.5t8.5 -0.5t12.5 -0.5q11 0 18.5 -5.5t7.5 -16.5v-26.5t-0.5 -17.5t-0.5 -17.5v-25.5q0 -17 -0.5 -26.5t-1 -17.5t-1 -17.5t-0.5 -25.5zM151 867q10 -5 14 -15.5t0 -20.5
q-3 -7 -5.5 -8.5t-5.5 -8.5q-3 -10 -11.5 -14.5t-18.5 -1.5l-25.5 8l-18 5.5l-18 5.5l-25.5 8l-88 26q-11 4 -15.5 14t-0.5 21q3 8 5.5 13t4 9t4 9t5.5 13q4 11 14 15.5t20 -0.5q15 -8 24 -12t17 -8l17 -8.5t25 -11.5q15 -8 24 -12t17 -7t17 -7.5z" />
    <glyph glyph-name="Iacute" unicode="&#xcd;" horiz-adv-x="180" 
d="M93 551q0 -16 1 -25.5t1.5 -17.5t1.5 -18t1 -26t-1 -25.5t-1.5 -17.5t-1.5 -18t-1 -26t0.5 -25.5t1 -17.5t1 -17.5t0.5 -25.5v-87q0 -17 -0.5 -26.5t-1.5 -17.5t-1.5 -17.5t-0.5 -25.5t0.5 -25.5t1 -17.5t1 -18t0.5 -26q0 -11 -6.5 -19t-17.5 -8h-12.5t-8.5 0.5t-8.5 0.5
h-12.5q-11 0 -18.5 7.5t-7.5 18.5q0 16 0.5 26t1.5 18t1.5 17.5t0.5 25.5t-1 26t-2.5 18t-2.5 17.5t-1 25.5t1 25.5t2 17.5t2 17.5t1 26.5v25.5t0.5 17.5t0.5 17.5v26.5q0 16 -1 25.5t-2.5 17.5t-2.5 17.5t-1 25.5t0.5 26t0.5 18t0.5 17.5t0.5 25.5t0.5 26t1 18t1 17.5
t0.5 25.5t-0.5 25.5t-1 17.5t-1 17.5t-0.5 26.5q0 11 8 17.5t19 6.5q8 0 12.5 -0.5t8.5 -0.5t8.5 -0.5t12.5 -0.5q11 0 18.5 -5.5t7.5 -16.5v-26.5t-0.5 -17.5t-0.5 -17.5v-25.5q0 -17 -0.5 -26.5t-1 -17.5t-1 -17.5t-0.5 -25.5zM165 886q4 -11 -1 -22.5t-16 -14.5
q-16 -5 -25.5 -7.5t-18 -4.5t-18.5 -4t-26 -7l-26.5 -8t-18 -5t-18 -4.5t-25.5 -7.5q-10 -3 -18.5 0t-12.5 12q-3 8 -4 10t-3 9q-4 9 0 18t13 14l24 11.5t17 8l17 7.5t24 12q16 7 24.5 12l16 9.5l16.5 9.5l24 13q10 5 21.5 0t16.5 -16l5 -13l3.5 -9l3.5 -9t5 -14z" />
    <glyph glyph-name="Icircumflex" unicode="&#xce;" horiz-adv-x="180" 
d="M93 551q0 -16 1 -25.5t1.5 -17.5t1.5 -18t1 -26t-1 -25.5t-1.5 -17.5t-1.5 -18t-1 -26t0.5 -25.5t1 -17.5t1 -17.5t0.5 -25.5v-87q0 -17 -0.5 -26.5t-1.5 -17.5t-1.5 -17.5t-0.5 -25.5t0.5 -25.5t1 -17.5t1 -18t0.5 -26q0 -11 -6.5 -19t-17.5 -8h-12.5t-8.5 0.5t-8.5 0.5
h-12.5q-11 0 -18.5 7.5t-7.5 18.5q0 16 0.5 26t1.5 18t1.5 17.5t0.5 25.5t-1 26t-2.5 18t-2.5 17.5t-1 25.5t1 25.5t2 17.5t2 17.5t1 26.5v25.5t0.5 17.5t0.5 17.5v26.5q0 16 -1 25.5t-2.5 17.5t-2.5 17.5t-1 25.5t0.5 26t0.5 18t0.5 17.5t0.5 25.5t0.5 26t1 18t1 17.5
t0.5 25.5t-0.5 25.5t-1 17.5t-1 17.5t-0.5 26.5q0 11 8 17.5t19 6.5q8 0 12.5 -0.5t8.5 -0.5t8.5 -0.5t12.5 -0.5q11 0 18.5 -5.5t7.5 -16.5v-26.5t-0.5 -17.5t-0.5 -17.5v-25.5q0 -17 -0.5 -26.5t-1 -17.5t-1 -17.5t-0.5 -25.5zM166 885q9 -5 13 -15t-1 -19l-22 -36
q-6 -9 -17.5 -11.5t-20.5 2.5q-9 6 -14.5 9t-10 6t-9.5 6l-14 8q-20 13 -43 0q-9 -6 -14 -9t-9.5 -6t-9.5 -6t-14 -9q-10 -5 -22 -2t-18 12q-4 7 -6 11t-3.5 8t-3.5 8t-6 10q-5 10 -2.5 19.5t11.5 14.5q18 11 28 18l19 13l19.5 13t28.5 18q11 6 23.5 6.5t23.5 -5.5
q18 -11 28.5 -18.5l19 -13.5l18.5 -13.5t28 -18.5z" />
    <glyph glyph-name="Idieresis" unicode="&#xcf;" horiz-adv-x="180" 
d="M93 551q0 -16 1 -25.5t1.5 -17.5t1.5 -18t1 -26t-1 -25.5t-1.5 -17.5t-1.5 -18t-1 -26t0.5 -25.5t1 -17.5t1 -17.5t0.5 -25.5v-87q0 -17 -0.5 -26.5t-1.5 -17.5t-1.5 -17.5t-0.5 -25.5t0.5 -25.5t1 -17.5t1 -18t0.5 -26q0 -11 -6.5 -19t-17.5 -8h-12.5t-8.5 0.5t-8.5 0.5
h-12.5q-11 0 -18.5 7.5t-7.5 18.5q0 16 0.5 26t1.5 18t1.5 17.5t0.5 25.5t-1 26t-2.5 18t-2.5 17.5t-1 25.5t1 25.5t2 17.5t2 17.5t1 26.5v25.5t0.5 17.5t0.5 17.5v26.5q0 16 -1 25.5t-2.5 17.5t-2.5 17.5t-1 25.5t0.5 26t0.5 18t0.5 17.5t0.5 25.5t0.5 26t1 18t1 17.5
t0.5 25.5t-0.5 25.5t-1 17.5t-1 17.5t-0.5 26.5q0 11 8 17.5t19 6.5q8 0 12.5 -0.5t8.5 -0.5t8.5 -0.5t12.5 -0.5q11 0 18.5 -5.5t7.5 -16.5v-26.5t-0.5 -17.5t-0.5 -17.5v-25.5q0 -17 -0.5 -26.5t-1 -17.5t-1 -17.5t-0.5 -25.5zM21 828q0 -8 -6 -15t-14 -7q-16 0 -25 0.5
t-17 1.5t-17 1.5t-24 0.5q-18 0 -18 18v22t-0.5 15t-0.5 15v22q0 17 19 17q15 0 24 0.5t17 0.5t17 0.5t25 0.5q19 0 19 -19v-22t0.5 -15t0.5 -15v-22zM197 902q0 -14 0.5 -22t0.5 -15t0.5 -15t0.5 -22q0 -8 -6.5 -12.5t-14.5 -4.5q-15 0 -24 -1t-17 -2t-17 -2t-24 -1
q-8 0 -14.5 7.5t-6.5 15.5q0 14 0.5 22t1 15t1 15t0.5 22q0 17 18 17q15 0 24 0.5t17 0.5t17 0.5t24 0.5q19 0 19 -19z" />
    <glyph glyph-name="Ntilde" unicode="&#xd1;" horiz-adv-x="485" 
d="M91 821q-20 8 -31 26q-8 13 -8 27.5t10 25.5q8 9 20.5 14.5t26.5 12.5q17 8 32.5 8.5t30.5 -2.5q11 -2 20.5 -6.5t18.5 -9.5t16.5 -12t17.5 -10q3 -2 10 -2q4 2 5.5 5t3.5 6q2 2 4 4.5t4 4.5q11 9 25 11q9 2 21 -1q14 -5 21 -17q8 -11 8.5 -25.5t-7.5 -26.5
q-15 -24 -47 -40q-17 -8 -33 -9.5t-31 2.5q-23 5 -39.5 15.5t-19.5 13.5q-17 15 -37 2q-8 -6 -11 -9q-8 -5 -15 -8t-16 0zM394 291q0 -17 0.5 -26.5t0.5 -17.5t0.5 -17.5t0.5 -25.5q0 -17 0.5 -26.5t1.5 -17.5t1.5 -17.5t0.5 -25.5t-0.5 -25.5t-0.5 -17.5t-0.5 -18t-0.5 -26
q0 -11 -8.5 -19.5t-19.5 -8.5q-13 0 -17 0.5t-18 0.5q-8 0 -12 5.5t-7 12.5l-10 21l-7 14.5t-7 14t-10 20.5l-32 70q-6 13 -10 20.5t-8 13.5t-8 13.5t-10 20.5t-10 20.5t-7 14.5t-7 14.5t-10 20.5t-9 21l-5.5 14.5l-5.5 14.5t-9 21t-10 20.5l-7.5 14l-7.5 14t-10 20.5
q-4 9 -12.5 7.5t-8.5 -10.5v-81q0 -15 1 -24t2 -16.5t2 -16.5t1 -24v-24t-0.5 -16.5t-0.5 -16.5v-24v-24t-0.5 -17t-0.5 -17v-24t-0.5 -24t-0.5 -16.5t-0.5 -16.5t-0.5 -24q0 -11 -7 -17t-18 -6h-12.5t-8.5 0.5t-8.5 0.5h-12.5q-11 0 -17.5 5.5t-6.5 16.5q0 16 -0.5 26
t-0.5 18t-0.5 17.5t-0.5 25.5t0.5 26t1.5 18t1.5 17.5t0.5 25.5t-1.5 25.5t-3 17.5t-2.5 17.5t-1 26.5v25.5t0.5 17.5t0.5 17.5v26.5q0 16 1 25.5t2 17.5t2 17.5t1 25.5t-0.5 26t-1 18t-1 17.5t-0.5 25.5t-0.5 26t-0.5 18t-0.5 17.5t-0.5 25.5v87q0 11 8.5 19t19.5 8
q13 0 17 1t17 1q8 0 15 -5.5t10 -12.5q6 -13 10 -20.5l7.5 -14l7.5 -14t10 -20.5t9 -21t5 -15t5 -15t9 -21t10 -20.5l7.5 -14l7.5 -14t10 -20.5t8.5 -21t4 -15.5t4 -15.5t8.5 -21t10.5 -20.5t9 -13.5l9.5 -13t11 -20l9.5 -21t6 -14.5t6 -14.5l9.5 -21q4 -8 10.5 -6.5
t6.5 10.5q0 15 0.5 24t0.5 16.5t0.5 16.5t0.5 24t1 24t1.5 16.5t1.5 16.5t1 24t-1.5 24t-3 16.5t-3 16.5t-1.5 24t0.5 24t1.5 17t1.5 17t0.5 24t1 24t1.5 16.5t1.5 16.5t1 24q0 11 5 17.5t16 6.5q8 0 12.5 0.5t8.5 0.5t8.5 0.5t12.5 0.5q11 0 16.5 -7.5t5.5 -18.5
q0 -17 0.5 -26.5t1.5 -17.5t1.5 -17.5t0.5 -25.5t0.5 -25.5t1 -17.5t1 -18t0.5 -26v-25.5t0.5 -17.5t0.5 -18v-26t-0.5 -25.5t-0.5 -17.5t-0.5 -18t-0.5 -26t-0.5 -25.5t-1.5 -17.5t-1.5 -17.5t-0.5 -25.5z" />
    <glyph glyph-name="Nacute" unicode="&#x143;" horiz-adv-x="485" 
d="M92 813q-3 8 -4 10t-4 9q-4 9 0.5 18t13.5 14l24 11.5t17 8l17 7.5t24 12q15 7 24 12l16.5 9.5l16.5 9.5l24 13q10 5 21.5 0t16.5 -16l5 -13l3.5 -9l3.5 -9t5 -14q4 -11 -1 -22.5t-16 -14.5q-16 -5 -26 -7.5l-18 -4.5t-18 -4t-26 -7l-26.5 -8t-18 -5t-18 -4.5t-25.5 -7.5
q-10 -3 -18.5 0t-12.5 12zM394 291q0 -17 0.5 -26.5t0.5 -17.5t0.5 -17.5t0.5 -25.5q0 -17 0.5 -26.5t1.5 -17.5t1.5 -17.5t0.5 -25.5t-0.5 -25.5t-0.5 -17.5t-0.5 -18t-0.5 -26q0 -11 -8.5 -19.5t-19.5 -8.5q-13 0 -17 0.5t-18 0.5q-8 0 -12 5.5t-7 12.5l-10 21l-7 14.5
t-7 14t-10 20.5l-32 70q-6 13 -10 20.5t-8 13.5t-8 13.5t-10 20.5t-10 20.5t-7 14.5t-7 14.5t-10 20.5t-9 21l-5.5 14.5l-5.5 14.5t-9 21t-10 20.5l-7.5 14l-7.5 14t-10 20.5q-4 9 -12.5 7.5t-8.5 -10.5v-81q0 -15 1 -24t2 -16.5t2 -16.5t1 -24v-24t-0.5 -16.5t-0.5 -16.5
v-24v-24t-0.5 -17t-0.5 -17v-24t-0.5 -24t-0.5 -16.5t-0.5 -16.5t-0.5 -24q0 -11 -7 -17t-18 -6h-12.5t-8.5 0.5t-8.5 0.5h-12.5q-11 0 -17.5 5.5t-6.5 16.5q0 16 -0.5 26t-0.5 18t-0.5 17.5t-0.5 25.5t0.5 26t1.5 18t1.5 17.5t0.5 25.5t-1.5 25.5t-3 17.5t-2.5 17.5
t-1 26.5v25.5t0.5 17.5t0.5 17.5v26.5q0 16 1 25.5t2 17.5t2 17.5t1 25.5t-0.5 26t-1 18t-1 17.5t-0.5 25.5t-0.5 26t-0.5 18t-0.5 17.5t-0.5 25.5v87q0 11 8.5 19t19.5 8q13 0 17 1t17 1q8 0 15 -5.5t10 -12.5q6 -13 10 -20.5l7.5 -14l7.5 -14t10 -20.5t9 -21t5 -15t5 -15
t9 -21t10 -20.5l7.5 -14l7.5 -14t10 -20.5t8.5 -21t4 -15.5t4 -15.5t8.5 -21t10.5 -20.5t9 -13.5l9.5 -13t11 -20l9.5 -21t6 -14.5t6 -14.5l9.5 -21q4 -8 10.5 -6.5t6.5 10.5q0 15 0.5 24t0.5 16.5t0.5 16.5t0.5 24t1 24t1.5 16.5t1.5 16.5t1 24t-1.5 24t-3 16.5t-3 16.5
t-1.5 24t0.5 24t1.5 17t1.5 17t0.5 24t1 24t1.5 16.5t1.5 16.5t1 24q0 11 5 17.5t16 6.5q8 0 12.5 0.5t8.5 0.5t8.5 0.5t12.5 0.5q11 0 16.5 -7.5t5.5 -18.5q0 -17 0.5 -26.5t1.5 -17.5t1.5 -17.5t0.5 -25.5t0.5 -25.5t1 -17.5t1 -18t0.5 -26v-25.5t0.5 -17.5t0.5 -18v-26
t-0.5 -25.5t-0.5 -17.5t-0.5 -18t-0.5 -26t-0.5 -25.5t-1.5 -17.5t-1.5 -17.5t-0.5 -25.5z" />
    <glyph glyph-name="Ograve" unicode="&#xd2;" horiz-adv-x="508" 
d="M413 242q0 -17 -1 -27t-2 -18t-2 -18t-1 -27q0 -22 -3 -42t-14 -37q-10 -18 -26.5 -30t-34.5 -23q-17 -10 -35.5 -18.5t-39.5 -8.5q-18 0 -28.5 0.5t-19.5 1t-19.5 1t-28.5 0.5q-21 0 -40 6.5t-36 17.5q-17 10 -32.5 23t-26.5 31q-20 35 -20 78q0 17 -0.5 27t-1 18t-1 18
t-0.5 27v27t0.5 18t0.5 18v27v91q0 17 1 27t1.5 18t1.5 18t1 27t-0.5 27t-1 18.5t-1 18.5t-0.5 27q0 21 7 39.5t17 35.5q11 18 23 34t30 26q17 11 37 15t41 4q18 0 28.5 1t19.5 1.5t19.5 1.5t28.5 1q21 0 41 -7t37 -17q17 -11 29.5 -26.5t23.5 -33.5q10 -17 18 -35.5
t8 -39.5q0 -17 -1 -27t-1.5 -18.5t-1.5 -18.5t-1 -27t0.5 -27t1 -18t1 -18t0.5 -27t0.5 -27t1.5 -18.5t1.5 -18.5t0.5 -27v-90zM317 152q0 17 0.5 27t1.5 18t1.5 18t0.5 27t-1 27t-1.5 18t-1.5 18t-1 27t0.5 27t0.5 18.5t0.5 18.5t0.5 27t-1 27t-1.5 18t-1.5 18t-1 27
t0.5 27t1 18.5t1 18.5t0.5 27q0 26 -18 46t-44 20q-18 0 -28.5 -1t-19.5 -2t-19.5 -2t-28.5 -1q-26 0 -44.5 -17t-18.5 -43q0 -17 -0.5 -27t-1 -18.5t-1 -18.5t-0.5 -27t0.5 -27t1.5 -18t1.5 -18t0.5 -27v-91q0 -17 0.5 -27t0.5 -18t0.5 -18t0.5 -27v-90q0 -26 17 -43.5
t43 -17.5q18 0 28.5 -1t19.5 -2t19.5 -2t28.5 -1q26 0 44.5 20.5t18.5 46.5zM103 851q-11 4 -15.5 14t-0.5 21q3 8 5.5 13t4 9t4 9t5.5 13q4 11 14 15.5t20 -0.5q15 -8 24 -12t17 -8l17 -8.5t25 -11.5q15 -8 24 -12t17 -7t17 -7.5t25 -11.5q9 -5 13 -15.5t0 -20.5
q-2 -7 -5 -8.5t-5 -8.5q-4 -10 -12.5 -14.5t-18.5 -1.5l-25.5 8l-18 5.5l-18 5.5l-25.5 8z" />
    <glyph glyph-name="Oacute" unicode="&#xd3;" horiz-adv-x="508" 
d="M413 242q0 -17 -1 -27t-2 -18t-2 -18t-1 -27q0 -22 -3 -42t-14 -37q-10 -18 -26.5 -30t-34.5 -23q-17 -10 -35.5 -18.5t-39.5 -8.5q-18 0 -28.5 0.5t-19.5 1t-19.5 1t-28.5 0.5q-21 0 -40 6.5t-36 17.5q-17 10 -32.5 23t-26.5 31q-20 35 -20 78q0 17 -0.5 27t-1 18t-1 18
t-0.5 27v27t0.5 18t0.5 18v27v91q0 17 1 27t1.5 18t1.5 18t1 27t-0.5 27t-1 18.5t-1 18.5t-0.5 27q0 21 7 39.5t17 35.5q11 18 23 34t30 26q17 11 37 15t41 4q18 0 28.5 1t19.5 1.5t19.5 1.5t28.5 1q21 0 41 -7t37 -17q17 -11 29.5 -26.5t23.5 -33.5q10 -17 18 -35.5
t8 -39.5q0 -17 -1 -27t-1.5 -18.5t-1.5 -18.5t-1 -27t0.5 -27t1 -18t1 -18t0.5 -27t0.5 -27t1.5 -18.5t1.5 -18.5t0.5 -27v-90zM317 152q0 17 0.5 27t1.5 18t1.5 18t0.5 27t-1 27t-1.5 18t-1.5 18t-1 27t0.5 27t0.5 18.5t0.5 18.5t0.5 27t-1 27t-1.5 18t-1.5 18t-1 27
t0.5 27t1 18.5t1 18.5t0.5 27q0 26 -18 46t-44 20q-18 0 -28.5 -1t-19.5 -2t-19.5 -2t-28.5 -1q-26 0 -44.5 -17t-18.5 -43q0 -17 -0.5 -27t-1 -18.5t-1 -18.5t-0.5 -27t0.5 -27t1.5 -18t1.5 -18t0.5 -27v-91q0 -17 0.5 -27t0.5 -18t0.5 -18t0.5 -27v-90q0 -26 17 -43.5
t43 -17.5q18 0 28.5 -1t19.5 -2t19.5 -2t28.5 -1q26 0 44.5 20.5t18.5 46.5zM98 813q-2 8 -3.5 10t-3.5 9q-4 9 0 18t13 14l24 11.5t17 8l17 7.5t25 12q15 7 24 12t16 9.5t16 9.5l24 13q11 5 22.5 0t15.5 -16l5 -13l3.5 -9l3.5 -9t5 -14q4 -11 -0.5 -22.5t-15.5 -14.5
q-17 -5 -26.5 -7.5t-18 -4.5t-18.5 -4t-26 -7l-26.5 -8t-17.5 -5l-18 -4.5t-26 -7.5q-10 -3 -18.5 0t-12.5 12z" />
    <glyph glyph-name="Ocircumflex" unicode="&#xd4;" horiz-adv-x="508" 
d="M413 242q0 -17 -1 -27t-2 -18t-2 -18t-1 -27q0 -22 -3 -42t-14 -37q-10 -18 -26.5 -30t-34.5 -23q-17 -10 -35.5 -18.5t-39.5 -8.5q-18 0 -28.5 0.5t-19.5 1t-19.5 1t-28.5 0.5q-21 0 -40 6.5t-36 17.5q-17 10 -32.5 23t-26.5 31q-20 35 -20 78q0 17 -0.5 27t-1 18t-1 18
t-0.5 27v27t0.5 18t0.5 18v27v91q0 17 1 27t1.5 18t1.5 18t1 27t-0.5 27t-1 18.5t-1 18.5t-0.5 27q0 21 7 39.5t17 35.5q11 18 23 34t30 26q17 11 37 15t41 4q18 0 28.5 1t19.5 1.5t19.5 1.5t28.5 1q21 0 41 -7t37 -17q17 -11 29.5 -26.5t23.5 -33.5q10 -17 18 -35.5
t8 -39.5q0 -17 -1 -27t-1.5 -18.5t-1.5 -18.5t-1 -27t0.5 -27t1 -18t1 -18t0.5 -27t0.5 -27t1.5 -18.5t1.5 -18.5t0.5 -27v-90zM317 152q0 17 0.5 27t1.5 18t1.5 18t0.5 27t-1 27t-1.5 18t-1.5 18t-1 27t0.5 27t0.5 18.5t0.5 18.5t0.5 27t-1 27t-1.5 18t-1.5 18t-1 27
t0.5 27t1 18.5t1 18.5t0.5 27q0 26 -18 46t-44 20q-18 0 -28.5 -1t-19.5 -2t-19.5 -2t-28.5 -1q-26 0 -44.5 -17t-18.5 -43q0 -17 -0.5 -27t-1 -18.5t-1 -18.5t-0.5 -27t0.5 -27t1.5 -18t1.5 -18t0.5 -27v-91q0 -17 0.5 -27t0.5 -18t0.5 -18t0.5 -27v-90q0 -26 17 -43.5
t43 -17.5q18 0 28.5 -1t19.5 -2t19.5 -2t28.5 -1q26 0 44.5 20.5t18.5 46.5zM88 815q-4 7 -6 11t-3.5 8t-3.5 8t-6 10q-6 10 -3.5 19.5t11.5 14.5q18 11 28.5 18l19 13l19 13t28.5 18q11 6 24 6.5t24 -5.5q18 -11 28 -18.5l18.5 -13.5l18.5 -13.5t28 -18.5q9 -5 13.5 -15
t-1.5 -19l-22 -36q-5 -9 -17 -11.5t-21 2.5q-9 6 -14 9t-9.5 6t-9.5 6l-14 8q-21 13 -44 0q-9 -6 -14 -9t-9.5 -6t-9.5 -6t-14 -9q-9 -5 -21.5 -2t-17.5 12z" />
    <glyph glyph-name="Otilde" unicode="&#xd5;" horiz-adv-x="508" 
d="M413 242q0 -17 -1 -27t-2 -18t-2 -18t-1 -27q0 -22 -3 -42t-14 -37q-10 -18 -26.5 -30t-34.5 -23q-17 -10 -35.5 -18.5t-39.5 -8.5q-18 0 -28.5 0.5t-19.5 1t-19.5 1t-28.5 0.5q-21 0 -40 6.5t-36 17.5q-17 10 -32.5 23t-26.5 31q-20 35 -20 78q0 17 -0.5 27t-1 18t-1 18
t-0.5 27v27t0.5 18t0.5 18v27v91q0 17 1 27t1.5 18t1.5 18t1 27t-0.5 27t-1 18.5t-1 18.5t-0.5 27q0 21 7 39.5t17 35.5q11 18 23 34t30 26q17 11 37 15t41 4q18 0 28.5 1t19.5 1.5t19.5 1.5t28.5 1q21 0 41 -7t37 -17q17 -11 29.5 -26.5t23.5 -33.5q10 -17 18 -35.5
t8 -39.5q0 -17 -1 -27t-1.5 -18.5t-1.5 -18.5t-1 -27t0.5 -27t1 -18t1 -18t0.5 -27t0.5 -27t1.5 -18.5t1.5 -18.5t0.5 -27v-90zM317 152q0 17 0.5 27t1.5 18t1.5 18t0.5 27t-1 27t-1.5 18t-1.5 18t-1 27t0.5 27t0.5 18.5t0.5 18.5t0.5 27t-1 27t-1.5 18t-1.5 18t-1 27
t0.5 27t1 18.5t1 18.5t0.5 27q0 26 -18 46t-44 20q-18 0 -28.5 -1t-19.5 -2t-19.5 -2t-28.5 -1q-26 0 -44.5 -17t-18.5 -43q0 -17 -0.5 -27t-1 -18.5t-1 -18.5t-0.5 -27t0.5 -27t1.5 -18t1.5 -18t0.5 -27v-91q0 -17 0.5 -27t0.5 -18t0.5 -18t0.5 -27v-90q0 -26 17 -43.5
t43 -17.5q18 0 28.5 -1t19.5 -2t19.5 -2t28.5 -1q26 0 44.5 20.5t18.5 46.5zM101 821q-9 4 -17.5 10.5t-13.5 15.5q-8 13 -7.5 27.5t9.5 25.5q8 9 20.5 14.5t26.5 12.5q17 8 33 8.5t30 -2.5q11 -2 20.5 -6.5l19.5 -9.5q8 -5 16 -12t18 -10q3 -2 9 -2q5 2 6.5 5t3.5 6t8 9
q9 9 24 11q10 3 21 -1q13 -4 21 -17q8 -11 8.5 -25.5t-7.5 -26.5q-15 -24 -47 -40q-17 -8 -33 -9.5t-30 2.5q-24 5 -40 15.5t-19 13.5q-8 7 -18.5 7.5t-18.5 -5.5l-12 -9q-8 -5 -15 -8t-16 0z" />
    <glyph glyph-name="Odieresis" unicode="&#xd6;" horiz-adv-x="508" 
d="M413 242q0 -17 -1 -27t-2 -18t-2 -18t-1 -27q0 -22 -3 -42t-14 -37q-10 -18 -26.5 -30t-34.5 -23q-17 -10 -35.5 -18.5t-39.5 -8.5q-18 0 -28.5 0.5t-19.5 1t-19.5 1t-28.5 0.5q-21 0 -40 6.5t-36 17.5q-17 10 -32.5 23t-26.5 31q-20 35 -20 78q0 17 -0.5 27t-1 18t-1 18
t-0.5 27v27t0.5 18t0.5 18v27v91q0 17 1 27t1.5 18t1.5 18t1 27t-0.5 27t-1 18.5t-1 18.5t-0.5 27q0 21 7 39.5t17 35.5q11 18 23 34t30 26q17 11 37 15t41 4q18 0 28.5 1t19.5 1.5t19.5 1.5t28.5 1q21 0 41 -7t37 -17q17 -11 29.5 -26.5t23.5 -33.5q10 -17 18 -35.5
t8 -39.5q0 -17 -1 -27t-1.5 -18.5t-1.5 -18.5t-1 -27t0.5 -27t1 -18t1 -18t0.5 -27t0.5 -27t1.5 -18.5t1.5 -18.5t0.5 -27v-90zM317 152q0 17 0.5 27t1.5 18t1.5 18t0.5 27t-1 27t-1.5 18t-1.5 18t-1 27t0.5 27t0.5 18.5t0.5 18.5t0.5 27t-1 27t-1.5 18t-1.5 18t-1 27
t0.5 27t1 18.5t1 18.5t0.5 27q0 26 -18 46t-44 20q-18 0 -28.5 -1t-19.5 -2t-19.5 -2t-28.5 -1q-26 0 -44.5 -17t-18.5 -43q0 -17 -0.5 -27t-1 -18.5t-1 -18.5t-0.5 -27t0.5 -27t1.5 -18t1.5 -18t0.5 -27v-91q0 -17 0.5 -27t0.5 -18t0.5 -18t0.5 -27v-90q0 -26 17 -43.5
t43 -17.5q18 0 28.5 -1t19.5 -2t19.5 -2t28.5 -1q26 0 44.5 20.5t18.5 46.5zM76 810q-19 0 -19 18v22t-0.5 15t-0.5 15v22q0 17 20 17q15 0 24 0.5t17 0.5t17 0.5t24 0.5q19 0 19 -19v-22t0.5 -15t0.5 -15v-22q0 -8 -6 -15t-14 -7q-15 0 -24 0.5t-17 1.5t-17 1.5t-24 0.5z
M253 805q-8 0 -14.5 7.5t-6.5 15.5q0 14 0.5 22t1 15t1 15t0.5 22q0 17 18 17q15 0 24 0.5t17 0.5t17 0.5t25 0.5q18 0 18 -19q0 -14 0.5 -22t1 -15t1 -15t0.5 -22q0 -8 -6.5 -12.5t-14.5 -4.5q-16 0 -25 -1t-17 -2t-17 -2t-24 -1z" />
    <glyph glyph-name="Scaron" unicode="&#x160;" horiz-adv-x="461" 
d="M350 342q20 -35 20 -79v-33t-0.5 -22.5t-0.5 -22.5v-33q0 -22 -3.5 -42.5t-13.5 -37.5q-11 -17 -27.5 -29t-34.5 -23q-17 -10 -36 -18t-40 -8h-17.5t-11.5 0.5t-11.5 0.5h-17.5q-19 0 -35.5 5t-32.5 13q-32 14 -55 44q-11 14 -19.5 30t-12.5 33q-2 12 6.5 22.5t20.5 10.5
h13t9 -0.5t9 -0.5h13t16.5 -4.5t10.5 -12.5q6 -20 21 -32.5t36 -12.5q11 0 17.5 -0.5t11.5 -1t11.5 -1t17.5 -0.5q26 0 45 19.5t19 45.5v33t-0.5 22.5t-0.5 22.5v33q0 26 -18.5 46.5t-44.5 20.5q-11 0 -17.5 -1.5t-11.5 -3t-11.5 -3t-17.5 -1.5q-21 0 -41 7.5t-37 17.5
q-18 11 -33.5 24.5t-26.5 31.5q-10 17 -15.5 37.5t-5.5 42.5q0 23 0.5 36.5t0.5 24.5t0.5 24.5t0.5 36.5q0 21 4 42t14 38q11 18 26.5 32.5t33.5 25.5q17 10 37.5 14t41.5 4q11 0 17.5 -0.5t11.5 -0.5t11.5 -0.5t17.5 -0.5q39 0 68 -16q34 -16 56 -43q21 -28 27 -65
q3 -12 -4 -22t-19 -10q-8 0 -13 0.5t-9 1t-9 1t-13 0.5t-15.5 4t-9.5 12q-6 20 -22 31t-37 11q-11 0 -17.5 1t-11.5 1.5t-11.5 1.5t-17.5 1q-26 0 -43 -19t-17 -45q0 -23 -0.5 -36.5t-0.5 -24.5t-0.5 -24.5t-0.5 -36.5q0 -26 18 -45t44 -19h17.5t11.5 0.5t11.5 0.5h17.5
q21 0 42 -4t38 -14q17 -11 31.5 -26.5t24.5 -32.5zM64 870q-9 6 -11.5 15.5t3.5 18.5q4 7 6 11t3.5 7.5t3.5 7.5t6 11q5 9 17.5 12.5t21.5 -2.5q9 -5 14 -8.5t9.5 -6t9.5 -6t14 -8.5q21 -13 44 -1q9 6 14 9l9.5 5.5l9.5 5.5t14 9q9 5 21 2.5t17 -11.5q4 -7 6.5 -11l4.5 -7
l4.5 -7l6.5 -10q6 -10 2 -19.5t-14 -15.5q-18 -11 -28 -18l-18.5 -13.5l-18.5 -13.5t-28 -18q-11 -7 -24 -6.5t-24 7.5l-28.5 17.5t-19 12.5l-19 13t-28.5 18z" />
    <glyph glyph-name="Sacute" unicode="&#x15a;" horiz-adv-x="461" 
d="M350 342q20 -35 20 -79v-33t-0.5 -22.5t-0.5 -22.5v-33q0 -22 -3.5 -42.5t-13.5 -37.5q-11 -17 -27.5 -29t-34.5 -23q-17 -10 -36 -18t-40 -8h-17.5t-11.5 0.5t-11.5 0.5h-17.5q-19 0 -35.5 5t-32.5 13q-32 14 -55 44q-11 14 -19.5 30t-12.5 33q-2 12 6.5 22.5t20.5 10.5
h13t9 -0.5t9 -0.5h13t16.5 -4.5t10.5 -12.5q6 -20 21 -32.5t36 -12.5q11 0 17.5 -0.5t11.5 -1t11.5 -1t17.5 -0.5q26 0 45 19.5t19 45.5v33t-0.5 22.5t-0.5 22.5v33q0 26 -18.5 46.5t-44.5 20.5q-11 0 -17.5 -1.5t-11.5 -3t-11.5 -3t-17.5 -1.5q-21 0 -41 7.5t-37 17.5
q-18 11 -33.5 24.5t-26.5 31.5q-10 17 -15.5 37.5t-5.5 42.5q0 23 0.5 36.5t0.5 24.5t0.5 24.5t0.5 36.5q0 21 4 42t14 38q11 18 26.5 32.5t33.5 25.5q17 10 37.5 14t41.5 4q11 0 17.5 -0.5t11.5 -0.5t11.5 -0.5t17.5 -0.5q39 0 68 -16q34 -16 56 -43q21 -28 27 -65
q3 -12 -4 -22t-19 -10q-8 0 -13 0.5t-9 1t-9 1t-13 0.5t-15.5 4t-9.5 12q-6 20 -22 31t-37 11q-11 0 -17.5 1t-11.5 1.5t-11.5 1.5t-17.5 1q-26 0 -43 -19t-17 -45q0 -23 -0.5 -36.5t-0.5 -24.5t-0.5 -24.5t-0.5 -36.5q0 -26 18 -45t44 -19h17.5t11.5 0.5t11.5 0.5h17.5
q21 0 42 -4t38 -14q17 -11 31.5 -26.5t24.5 -32.5zM76 813q-3 8 -4 10t-4 9q-4 9 0 18t13 14q16 7 25 11.5t17 8l17 7.5t24 12q15 7 24 12t16 9.5t16 9.5l24 13q11 5 22.5 0t15.5 -16l5 -13l3.5 -9l3.5 -9t5 -14q5 -11 0 -22.5t-16 -14.5q-17 -5 -26.5 -7.5t-18 -4.5
t-18.5 -4t-26 -7l-25.5 -8t-18 -5l-18.5 -4.5t-26 -7.5q-10 -3 -18.5 0t-11.5 12z" />
    <glyph glyph-name="Ugrave" unicode="&#xd9;" horiz-adv-x="461" 
d="M368 392q0 -16 1 -25t1.5 -17t1.5 -17t1 -25q0 -15 -1 -24t-2 -17t-2 -17t-1 -25v-25t0.5 -17t0.5 -17v-24q0 -22 -2.5 -42t-13.5 -37q-10 -18 -25 -33t-32 -25q-17 -11 -37.5 -14t-42.5 -3h-54q-22 0 -41 5.5t-36 15.5q-18 11 -33 24t-25 31q-11 17 -15 36.5t-4 41.5
q0 15 -1 24t-2.5 17t-2.5 17t-1 25v83q0 16 1.5 25t3 17t3 17t1.5 25q0 15 -0.5 24t-1.5 17t-1.5 17t-0.5 25t-1 25t-1.5 17t-1.5 17t-1 24q0 16 1 25t2.5 17t3 17t1.5 25q0 15 -1 24t-1.5 17t-1.5 17t-1 25q0 11 8 20t19 9h12.5t8.5 -0.5t8.5 -0.5h12.5q11 0 18.5 -8.5
t7.5 -19.5q0 -16 -0.5 -25t-0.5 -17t-0.5 -17t-0.5 -25q0 -15 0.5 -24t1 -17t1 -17t0.5 -25q0 -15 -0.5 -24t-0.5 -17t-0.5 -17t-0.5 -25t0.5 -25t1.5 -17t1.5 -17t0.5 -24q0 -16 -1 -25t-2.5 -17t-2.5 -17t-1 -25v-83q0 -16 1 -25t2.5 -17t3 -17t1.5 -24q0 -26 16.5 -42
t42.5 -16h16t11 -0.5t11 -0.5h16q26 0 46.5 16.5t20.5 42.5q0 15 -1 24t-2.5 17t-2.5 17t-1 25t1 25t2 17t2 17t1 24q0 16 -1.5 25t-3 17t-2.5 17t-1 25q0 15 0.5 24t0.5 17t0.5 17t0.5 25v83q0 16 1 25t1.5 17t1.5 17t1 25v24t-0.5 17t-0.5 17v25q0 21 25 21h42
q22 0 22 -21q0 -16 0.5 -25t1.5 -17t1.5 -17t0.5 -25v-24t-0.5 -17t-0.5 -17v-25q0 -15 1 -24t1.5 -17t1.5 -17t1 -25t-1.5 -25t-3 -17t-2.5 -17t-1 -24zM85 851q-11 4 -16 14t0 21q3 8 5.5 13t4 9l3.5 9l5 13q5 11 14.5 15.5t20.5 -0.5l82 -40q15 -8 24.5 -12l17 -7
t17 -7.5l24.5 -11.5q9 -5 13.5 -15.5t0.5 -20.5q-3 -7 -5.5 -8.5t-5.5 -8.5q-4 -10 -12 -14.5t-18 -1.5l-26.5 8l-17.5 5.5l-18 5.5l-26 8l-25.5 8t-18 5t-18 5z" />
    <glyph glyph-name="Uacute" unicode="&#xda;" horiz-adv-x="461" 
d="M368 392q0 -16 1 -25t1.5 -17t1.5 -17t1 -25q0 -15 -1 -24t-2 -17t-2 -17t-1 -25v-25t0.5 -17t0.5 -17v-24q0 -22 -2.5 -42t-13.5 -37q-10 -18 -25 -33t-32 -25q-17 -11 -37.5 -14t-42.5 -3h-54q-22 0 -41 5.5t-36 15.5q-18 11 -33 24t-25 31q-11 17 -15 36.5t-4 41.5
q0 15 -1 24t-2.5 17t-2.5 17t-1 25v83q0 16 1.5 25t3 17t3 17t1.5 25q0 15 -0.5 24t-1.5 17t-1.5 17t-0.5 25t-1 25t-1.5 17t-1.5 17t-1 24q0 16 1 25t2.5 17t3 17t1.5 25q0 15 -1 24t-1.5 17t-1.5 17t-1 25q0 11 8 20t19 9h12.5t8.5 -0.5t8.5 -0.5h12.5q11 0 18.5 -8.5
t7.5 -19.5q0 -16 -0.5 -25t-0.5 -17t-0.5 -17t-0.5 -25q0 -15 0.5 -24t1 -17t1 -17t0.5 -25q0 -15 -0.5 -24t-0.5 -17t-0.5 -17t-0.5 -25t0.5 -25t1.5 -17t1.5 -17t0.5 -24q0 -16 -1 -25t-2.5 -17t-2.5 -17t-1 -25v-83q0 -16 1 -25t2.5 -17t3 -17t1.5 -24q0 -26 16.5 -42
t42.5 -16h16t11 -0.5t11 -0.5h16q26 0 46.5 16.5t20.5 42.5q0 15 -1 24t-2.5 17t-2.5 17t-1 25t1 25t2 17t2 17t1 24q0 16 -1.5 25t-3 17t-2.5 17t-1 25q0 15 0.5 24t0.5 17t0.5 17t0.5 25v83q0 16 1 25t1.5 17t1.5 17t1 25v24t-0.5 17t-0.5 17v25q0 21 25 21h42
q22 0 22 -21q0 -16 0.5 -25t1.5 -17t1.5 -17t0.5 -25v-24t-0.5 -17t-0.5 -17v-25q0 -15 1 -24t1.5 -17t1.5 -17t1 -25t-1.5 -25t-3 -17t-2.5 -17t-1 -24zM80 813q-3 8 -4 10t-4 9q-4 9 0.5 18t13.5 14l24 11.5t17 8l17 7.5t24 12q15 7 24 12l16.5 9.5l16.5 9.5l24 13
q10 5 21.5 0t16.5 -16q3 -8 4.5 -13t3 -9l3.5 -9t5 -14q5 -11 0 -22.5t-16 -14.5q-17 -5 -26.5 -7.5t-18 -4.5t-18 -4t-25.5 -7l-26.5 -8t-18 -5t-18 -4.5t-25.5 -7.5q-10 -3 -18.5 0t-12.5 12z" />
    </font>
</defs>
</svg>
